<svg width="595" height="756" viewBox="0 0 595 756" fill="none" xmlns="http://www.w3.org/2000/svg">
<g clip-path="url(#clip0)">
<path d="M413.163 269.756C371.917 263.609 324.947 260.33 276.031 260.33C231.265 260.33 188.135 263.072 149.535 268.244C149.544 267.69 149.552 267.137 149.579 266.583C150.602 234.455 165.043 203.976 189.816 181.658C214.588 159.341 247.727 146.958 282.148 147.154C316.57 147.35 349.544 160.111 374.022 182.709C398.501 205.307 412.542 235.95 413.145 268.087C413.154 268.649 413.163 269.202 413.163 269.756Z" fill="#6C63FF"/>
<g opacity="0.1">
<path opacity="0.1" d="M298.637 147.108C280.329 144.799 261.706 146.108 243.975 150.949C226.244 155.791 209.8 164.057 195.709 175.213C181.618 186.369 170.195 200.165 162.179 215.706C154.164 231.248 149.735 248.189 149.18 265.432C149.154 265.985 149.145 266.539 149.136 267.092C160.604 265.556 172.479 264.239 184.671 263.14C186.162 234.415 198.376 207.084 219.193 185.889C240.01 164.694 268.117 150.974 298.637 147.108V147.108Z" fill="white"/>
</g>
<path d="M470.829 279.52C451.843 274.714 432.585 270.897 413.145 268.087C381.283 263.476 349.161 260.594 316.941 259.454C303.52 258.942 289.851 258.677 276.032 258.677C265.079 258.677 254.214 258.843 243.501 259.173C212.072 260.04 180.718 262.514 149.579 266.583C126.528 269.547 103.701 273.868 81.2346 279.52C28.8505 293.044 0 311.169 0 330.55C0 349.93 28.8505 368.055 81.2346 381.579C118.074 391.096 163.496 397.581 212.987 400.555C233.415 401.794 254.533 402.422 276.032 402.422C297.601 402.422 318.79 401.786 339.28 400.547C384.321 397.829 425.991 392.203 460.867 384.024C461.052 383.975 461.23 383.933 461.415 383.892C463.769 383.347 466.086 382.777 468.378 382.207C469.201 381.992 470.015 381.785 470.829 381.579C470.875 381.561 470.922 381.548 470.97 381.538C471.749 381.339 472.518 381.133 473.288 380.935C474.828 380.521 476.349 380.117 477.844 379.695C477.915 379.679 477.977 379.662 478.039 379.646C479.339 379.282 480.614 378.919 481.879 378.555C482.914 378.25 483.94 377.952 484.958 377.647C485.701 377.424 486.435 377.2 487.161 376.977C487.692 376.812 488.213 376.655 488.727 376.49C489.426 376.275 490.125 376.052 490.814 375.829C491.106 375.738 491.398 375.647 491.681 375.548C492.345 375.342 492.991 375.127 493.637 374.912C494.336 374.681 495.035 374.441 495.724 374.21C496.3 374.02 496.875 373.822 497.441 373.623C497.919 373.45 498.388 373.285 498.865 373.119C500.166 372.665 501.44 372.194 502.696 371.732C503.325 371.492 503.953 371.261 504.572 371.021C505.182 370.79 505.802 370.55 506.403 370.311C507.394 369.922 508.367 369.534 509.323 369.146C509.783 368.948 510.252 368.758 510.703 368.576C511.048 368.427 511.384 368.287 511.729 368.138C511.977 368.039 512.225 367.931 512.464 367.824C513.357 367.444 514.242 367.056 515.109 366.668C518.436 365.18 521.541 363.66 524.425 362.107C542.517 352.434 552.063 341.702 552.063 330.55C552.063 311.169 523.213 293.044 470.829 279.52ZM470.351 379.993C433.467 389.518 387.922 396.003 338.298 398.952C318.118 400.15 297.256 400.77 276.032 400.77C254.878 400.77 234.087 400.158 213.969 398.96C164.265 396.019 118.649 389.534 81.7123 379.993C30.1599 366.676 1.76943 349.121 1.76943 330.55C1.77231 328.909 1.99228 327.274 2.42433 325.684C6.93604 308.93 34.6897 293.25 81.7123 281.107C104.009 275.498 126.661 271.202 149.535 268.244C180.861 264.151 212.405 261.669 244.023 260.809C254.569 260.487 265.238 260.327 276.032 260.33C289.665 260.33 303.148 260.586 316.401 261.081C348.808 262.211 381.117 265.108 413.163 269.756C432.435 272.554 451.527 276.343 470.351 281.107C517.365 293.25 545.11 308.922 549.63 325.667C550.07 327.262 550.292 328.903 550.294 330.55C550.294 349.121 521.904 366.676 470.351 379.993V379.993Z" fill="#3F3D56"/>
<path d="M551.559 331.301C551.559 342.338 541.818 352.78 524.425 362.107C521.532 363.66 518.418 365.18 515.109 366.667C514.242 367.056 513.357 367.444 512.464 367.824C512.225 367.931 511.977 368.039 511.729 368.138C511.384 368.287 511.048 368.427 510.703 368.576C510.252 368.758 509.783 368.948 509.323 369.146C508.367 369.534 507.394 369.922 506.403 370.311C505.801 370.55 505.182 370.79 504.572 371.021C503.952 371.261 503.324 371.492 502.696 371.732C501.44 372.194 500.166 372.665 498.865 373.119C498.388 373.285 497.918 373.45 497.441 373.623C496.875 373.822 496.3 374.02 495.724 374.21C495.034 374.441 494.335 374.681 493.637 374.912C492.991 375.127 492.345 375.342 491.681 375.548C491.398 375.647 491.106 375.738 490.814 375.829C490.124 376.052 489.425 376.275 488.727 376.49C488.213 376.655 487.691 376.812 487.161 376.977C486.435 377.2 485.7 377.423 484.957 377.647C483.94 377.952 482.914 378.25 481.879 378.555C480.614 378.919 479.339 379.282 478.039 379.646C477.977 379.662 477.915 379.679 477.844 379.695C476.349 380.117 474.828 380.521 473.288 380.934C472.518 381.133 471.749 381.339 470.97 381.538C470.922 381.547 470.874 381.561 470.829 381.579C470.014 381.785 469.201 381.992 468.378 382.207C466.095 382.768 463.769 383.338 461.415 383.892C461.229 383.933 461.052 383.975 460.867 384.024C426.938 391.938 385.312 397.705 339.245 400.489C319.064 401.703 298.026 402.347 276.412 402.347C254.604 402.347 233.388 401.695 213.049 400.456C91.6298 393.062 1.26514 364.908 1.26514 331.301C1.2747 329.256 1.6085 327.224 2.25569 325.271C2.30883 325.411 2.36195 325.543 2.42417 325.684C15.0487 356.647 104.644 381.67 220.896 387.775C238.705 388.716 257.152 389.204 276.032 389.204C294.991 389.204 313.508 388.708 331.388 387.766C447.543 381.637 537.05 356.605 549.63 325.667C549.843 325.172 550.029 324.676 550.188 324.18C551.085 326.461 551.549 328.871 551.559 331.301V331.301Z" fill="#3F3D56"/>
<path d="M81.1015 322.409C66.3774 322.409 50.7285 319.451 50.7285 313.969C50.7285 308.486 66.3774 305.529 81.1015 305.529C95.8255 305.529 111.474 308.486 111.474 313.969C111.474 319.451 95.8255 322.409 81.1015 322.409ZM81.1015 307.181C64.2449 307.181 52.4979 310.758 52.4979 313.969C52.4979 317.179 64.245 320.757 81.1015 320.757C97.958 320.757 109.705 317.179 109.705 313.969C109.705 310.758 97.958 307.181 81.1015 307.181V307.181Z" fill="#3F3D56"/>
<path d="M143.916 361.237C129.192 361.237 113.543 358.279 113.543 352.796C113.543 347.314 129.192 344.356 143.916 344.356C158.64 344.356 174.289 347.314 174.289 352.796C174.289 358.279 158.64 361.237 143.916 361.237ZM143.916 346.008C127.06 346.008 115.313 349.586 115.313 352.796C115.313 356.007 127.06 359.584 143.916 359.584C160.773 359.584 172.52 356.007 172.52 352.796C172.52 349.586 160.773 346.008 143.916 346.008V346.008Z" fill="#3F3D56"/>
<path d="M470.377 322.409C455.653 322.409 440.004 319.451 440.004 313.969C440.004 308.486 455.653 305.529 470.377 305.529C485.101 305.529 500.75 308.486 500.75 313.969C500.75 319.451 485.101 322.409 470.377 322.409ZM470.377 307.181C453.52 307.181 441.773 310.758 441.773 313.969C441.773 317.179 453.52 320.757 470.377 320.757C487.233 320.757 498.98 317.179 498.98 313.969C498.98 310.758 487.233 307.181 470.377 307.181V307.181Z" fill="#3F3D56"/>
<path d="M407.562 361.237C392.838 361.237 377.189 358.279 377.189 352.796C377.189 347.314 392.838 344.356 407.562 344.356C422.286 344.356 437.935 347.314 437.935 352.796C437.935 358.279 422.286 361.237 407.562 361.237ZM407.562 346.008C390.705 346.008 378.958 349.586 378.958 352.796C378.958 356.007 390.705 359.584 407.562 359.584C424.418 359.584 436.165 356.007 436.165 352.796C436.165 349.586 424.418 346.008 407.562 346.008V346.008Z" fill="#3F3D56"/>
<path d="M275.739 379.411C261.015 379.411 245.366 376.453 245.366 370.971C245.366 365.489 261.015 362.531 275.739 362.531C290.463 362.531 306.112 365.489 306.112 370.971C306.112 376.453 290.463 379.411 275.739 379.411ZM275.739 364.183C258.883 364.183 247.136 367.76 247.136 370.971C247.136 374.181 258.883 377.759 275.739 377.759C292.596 377.759 304.343 374.181 304.343 370.971C304.343 367.76 292.596 364.183 275.739 364.183V364.183Z" fill="#3F3D56"/>
<path d="M298.13 553.042C318.658 553.042 335.299 537.503 335.299 518.335C335.299 499.166 318.658 483.627 298.13 483.627C277.602 483.627 260.961 499.166 260.961 518.335C260.961 537.503 277.602 553.042 298.13 553.042Z" fill="#2F2E41"/>
<path d="M283.996 541.137L265.906 549.596L270.962 559.024L289.052 550.565L283.996 541.137Z" fill="#2F2E41"/>
<path d="M273.347 558.067C274.42 556.548 271.772 553.151 267.434 550.48C263.095 547.809 258.708 546.875 257.635 548.394C256.563 549.913 259.21 553.31 263.549 555.982C267.888 558.653 272.274 559.587 273.347 558.067Z" fill="#2F2E41"/>
<path d="M312.264 541.137L307.208 550.565L325.298 559.024L330.354 549.596L312.264 541.137Z" fill="#2F2E41"/>
<path d="M332.711 555.982C337.05 553.31 339.697 549.913 338.625 548.394C337.552 546.875 333.165 547.809 328.826 550.48C324.487 553.151 321.84 556.548 322.913 558.067C323.985 559.587 328.372 558.653 332.711 555.982Z" fill="#2F2E41"/>
<path d="M295.528 521.707C302.544 521.707 308.231 516.396 308.231 509.845C308.231 503.294 302.544 497.983 295.528 497.983C288.512 497.983 282.825 503.294 282.825 509.845C282.825 516.396 288.512 521.707 295.528 521.707Z" fill="white"/>
<path d="M298.618 507.571C300.264 506.033 300.255 503.531 298.597 501.983C296.938 500.434 294.259 500.425 292.612 501.963C290.965 503.501 290.975 506.003 292.633 507.551C294.292 509.1 296.971 509.109 298.618 507.571Z" fill="#3F3D56"/>
<path d="M327.451 480.577C328.01 467.728 316.151 456.845 300.962 456.268C285.774 455.692 273.008 465.642 272.449 478.491C271.89 491.34 282.448 494.259 297.636 494.835C312.825 495.412 326.892 493.426 327.451 480.577Z" fill="#6C63FF"/>
<path d="M348.876 536.508C351.321 534.549 347.883 527.065 341.198 519.793C334.512 512.521 327.11 508.214 324.666 510.174C322.221 512.134 325.659 519.618 332.344 526.89C339.03 534.162 346.432 538.468 348.876 536.508Z" fill="#2F2E41"/>
<path d="M264.02 526.89C270.706 519.618 274.144 512.134 271.699 510.174C269.254 508.214 261.852 512.521 255.166 519.793C248.481 527.065 245.043 534.549 247.488 536.508C249.933 538.468 257.334 534.162 264.02 526.89Z" fill="#2F2E41"/>
<path d="M308.338 532.012C308.741 534.076 308.248 536.204 306.97 537.928C305.692 539.653 303.733 540.833 301.523 541.209C299.313 541.584 297.034 541.125 295.187 539.931C293.34 538.738 292.077 536.908 291.674 534.845L291.671 534.83C290.838 530.532 294.397 529.011 298.999 528.233C303.602 527.455 307.505 527.715 308.338 532.012Z" fill="white"/>
<path d="M235.335 555.254C234.866 555.253 234.416 555.079 234.084 554.77C233.752 554.46 233.565 554.039 233.565 553.601V456.119C233.565 455.681 233.752 455.261 234.084 454.951C234.415 454.641 234.866 454.467 235.335 454.467C235.804 454.467 236.254 454.641 236.586 454.951C236.918 455.261 237.104 455.681 237.104 456.119V553.601C237.104 554.039 236.918 554.46 236.586 554.77C236.254 555.079 235.804 555.253 235.335 555.254Z" fill="#CCCCCC"/>
<path d="M208.793 642.822C208.324 642.822 207.874 642.648 207.542 642.338C207.21 642.028 207.024 641.608 207.024 641.17V570.124C207.024 569.685 207.21 569.265 207.542 568.955C207.874 568.645 208.324 568.471 208.793 568.471C209.263 568.471 209.713 568.645 210.045 568.955C210.376 569.265 210.563 569.685 210.563 570.124V641.17C210.563 641.608 210.376 642.028 210.045 642.338C209.713 642.648 209.263 642.822 208.793 642.822V642.822Z" fill="#CCCCCC"/>
<path d="M276.916 584.168C276.447 584.168 275.997 583.994 275.665 583.684C275.333 583.374 275.147 582.954 275.147 582.515V485.034C275.147 484.595 275.333 484.175 275.665 483.865C275.997 483.555 276.447 483.381 276.916 483.381C277.386 483.381 277.836 483.555 278.168 483.865C278.499 484.175 278.686 484.595 278.686 485.034V582.515C278.686 582.954 278.499 583.374 278.168 583.684C277.836 583.994 277.386 584.168 276.916 584.168Z" fill="#CCCCCC"/>
<path d="M251.26 654.388C250.79 654.387 250.34 654.213 250.009 653.904C249.677 653.594 249.49 653.173 249.49 652.735V613.082C249.49 612.644 249.677 612.223 250.008 611.913C250.34 611.604 250.79 611.43 251.26 611.43C251.729 611.43 252.179 611.604 252.511 611.913C252.843 612.223 253.029 612.644 253.029 613.082V652.735C253.029 653.173 252.843 653.594 252.511 653.904C252.179 654.213 251.729 654.387 251.26 654.388V654.388Z" fill="#CCCCCC"/>
<path d="M287.533 451.163C287.064 451.163 286.614 450.989 286.282 450.679C285.95 450.369 285.764 449.949 285.764 449.511V409.857C285.764 409.419 285.95 408.998 286.282 408.689C286.614 408.379 287.064 408.205 287.533 408.205C288.002 408.205 288.452 408.379 288.784 408.689C289.116 408.998 289.303 409.419 289.303 409.857V449.511C289.303 449.949 289.116 450.369 288.784 450.679C288.452 450.989 288.002 451.163 287.533 451.163V451.163Z" fill="#CCCCCC"/>
<path d="M199.061 468.511C198.592 468.511 198.142 468.337 197.81 468.027C197.478 467.717 197.292 467.297 197.292 466.859V427.205C197.292 426.767 197.478 426.347 197.81 426.037C198.142 425.727 198.592 425.553 199.061 425.553C199.531 425.553 199.981 425.727 200.313 426.037C200.644 426.347 200.831 426.767 200.831 427.205V466.859C200.831 467.297 200.644 467.717 200.313 468.027C199.981 468.337 199.531 468.511 199.061 468.511V468.511Z" fill="#CCCCCC"/>
<path d="M353.002 472.642C352.533 472.642 352.083 472.468 351.751 472.158C351.419 471.848 351.232 471.428 351.232 470.99V431.336C351.232 430.898 351.419 430.477 351.751 430.168C352.082 429.858 352.533 429.684 353.002 429.684C353.471 429.684 353.921 429.858 354.253 430.168C354.585 430.477 354.771 430.898 354.771 431.336V470.99C354.771 471.428 354.585 471.848 354.253 472.158C353.921 472.468 353.471 472.642 353.002 472.642Z" fill="#CCCCCC"/>
<path d="M349.463 596.559C348.994 596.559 348.544 596.385 348.212 596.075C347.88 595.766 347.694 595.345 347.694 594.907V546.992C347.694 546.554 347.88 546.134 348.212 545.824C348.544 545.514 348.994 545.34 349.463 545.34C349.933 545.34 350.383 545.514 350.714 545.824C351.046 546.134 351.233 546.554 351.233 546.992V594.907C351.233 595.345 351.046 595.766 350.714 596.075C350.383 596.385 349.933 596.559 349.463 596.559Z" fill="#CCCCCC"/>
<path d="M314.075 638.691C313.605 638.691 313.155 638.517 312.823 638.207C312.492 637.898 312.305 637.477 312.305 637.039V565.993C312.305 565.555 312.492 565.135 312.823 564.825C313.155 564.515 313.605 564.341 314.075 564.341C314.544 564.341 314.994 564.515 315.326 564.825C315.658 565.135 315.844 565.555 315.844 565.993V637.039C315.844 637.477 315.658 637.898 315.326 638.207C314.994 638.517 314.544 638.691 314.075 638.691Z" fill="#CCCCCC"/>
<path d="M321.152 517.252C320.683 517.252 320.233 517.078 319.901 516.768C319.569 516.458 319.383 516.038 319.383 515.6V418.118C319.383 417.68 319.569 417.26 319.901 416.95C320.233 416.64 320.683 416.466 321.152 416.466C321.622 416.466 322.072 416.64 322.403 416.95C322.735 417.26 322.922 417.68 322.922 418.118V515.6C322.922 516.038 322.735 516.458 322.403 516.768C322.072 517.078 321.622 517.252 321.152 517.252Z" fill="#CCCCCC"/>
<path d="M538.079 724.688C540.611 722.708 537.189 714.996 530.434 707.463C523.68 699.93 516.151 695.428 513.618 697.408C511.086 699.388 514.508 707.1 521.263 714.633C528.017 722.166 535.546 726.668 538.079 724.688Z" fill="#2F2E41"/>
<path d="M521.469 716.121C528.124 697.48 517.335 677.331 497.371 671.117C477.408 664.904 455.83 674.978 449.175 693.619C442.521 712.261 453.31 732.409 473.273 738.623C493.237 744.837 514.815 734.762 521.469 716.121Z" fill="#2F2E41"/>
<path d="M501.449 732.793H489.874V752.158H501.449V732.793Z" fill="#2F2E41"/>
<path d="M478.299 732.793H466.723V752.158H478.299V732.793Z" fill="#2F2E41"/>
<path d="M491.803 755.761C497.131 755.761 501.45 754.249 501.45 752.384C501.45 750.518 497.131 749.006 491.803 749.006C486.476 749.006 482.157 750.518 482.157 752.384C482.157 754.249 486.476 755.761 491.803 755.761Z" fill="#2F2E41"/>
<path d="M468.653 755.311C473.98 755.311 478.299 753.799 478.299 751.933C478.299 750.068 473.98 748.555 468.653 748.555C463.325 748.555 459.006 750.068 459.006 751.933C459.006 753.799 463.325 755.311 468.653 755.311Z" fill="#2F2E41"/>
<path d="M473.358 660.147C476.76 647.353 491.779 639.824 506.902 643.33C522.025 646.837 531.527 660.051 528.125 672.845C524.723 685.639 513.435 685.681 498.312 682.174C483.188 678.667 469.956 672.941 473.358 660.147Z" fill="#CCCCCC"/>
<path d="M459.619 695.985C461.035 693.198 454.476 687.526 444.969 683.316C435.462 679.106 426.608 677.952 425.193 680.738C423.777 683.525 430.337 689.197 439.843 693.407C449.35 697.618 458.204 698.772 459.619 695.985Z" fill="#2F2E41"/>
<path d="M479.626 709.225C486.642 709.225 492.329 703.914 492.329 697.363C492.329 690.812 486.642 685.501 479.626 685.501C472.61 685.501 466.923 690.812 466.923 697.363C466.923 703.914 472.61 709.225 479.626 709.225Z" fill="white"/>
<path d="M474.405 697.065C476.743 697.065 478.639 695.295 478.639 693.111C478.639 690.927 476.743 689.157 474.405 689.157C472.066 689.157 470.17 690.927 470.17 693.111C470.17 695.295 472.066 697.065 474.405 697.065Z" fill="#3F3D56"/>
<path d="M479.517 727.086C482.448 727.086 484.825 724.867 484.825 722.129C484.825 719.392 482.448 717.172 479.517 717.172C476.585 717.172 474.208 719.392 474.208 722.129C474.208 724.867 476.585 727.086 479.517 727.086Z" fill="white"/>
<path d="M594.115 756H385.322C385.088 756 384.863 755.913 384.697 755.758C384.531 755.603 384.438 755.393 384.438 755.174C384.438 754.955 384.531 754.745 384.697 754.59C384.863 754.435 385.088 754.348 385.322 754.348H594.115C594.35 754.348 594.575 754.435 594.741 754.59C594.907 754.745 595 754.955 595 755.174C595 755.393 594.907 755.603 594.741 755.758C594.575 755.913 594.35 756 594.115 756Z" fill="#3F3D56"/>
</g>
<path d="M237.846 113V99.4H205.246V87.1L228.646 44.2H247.446L223.446 85.6H238.346L243.346 69.5H255.046V85.6H263.546V99.4H255.046V113H237.846ZM299.592 113.8C290.792 113.8 284.525 112.933 280.792 111.2C277.125 109.467 274.758 106.333 273.692 101.8C272.625 97.2 272.092 89.4667 272.092 78.6C272.092 67.7333 272.625 60.0333 273.692 55.5C274.758 50.9 277.125 47.7333 280.792 46C284.525 44.2667 290.792 43.4 299.592 43.4C308.392 43.4 314.625 44.2667 318.292 46C322.025 47.7333 324.425 50.9 325.492 55.5C326.558 60.0333 327.092 67.7333 327.092 78.6C327.092 89.4667 326.558 97.2 325.492 101.8C324.425 106.333 322.025 109.467 318.292 111.2C314.625 112.933 308.392 113.8 299.592 113.8ZM299.592 100C303.192 100 305.592 99.6667 306.792 99C308.058 98.2667 308.858 96.6 309.192 94C309.525 91.4 309.692 86.2667 309.692 78.6C309.692 70.9333 309.525 65.8 309.192 63.2C308.858 60.6 308.058 58.9667 306.792 58.3C305.592 57.5667 303.192 57.2 299.592 57.2C295.992 57.2 293.558 57.5667 292.292 58.3C291.092 58.9667 290.325 60.6 289.992 63.2C289.658 65.8 289.492 70.9333 289.492 78.6C289.492 86.2667 289.658 91.4 289.992 94C290.325 96.6 291.092 98.2667 292.292 99C293.558 99.6667 295.992 100 299.592 100ZM359.707 113.8C356.441 113.8 352.707 113.567 348.507 113.1C344.307 112.7 340.674 112.2 337.607 111.6V98.8C345.741 99.6 352.574 100 358.107 100C361.574 100 364.074 99.8667 365.607 99.6C367.141 99.3333 368.274 98.7 369.007 97.7C369.741 96.7 370.107 95.0667 370.107 92.8C370.107 90.6 369.841 88.9667 369.307 87.9C368.774 86.7667 367.841 86 366.507 85.6C365.241 85.2 363.374 85 360.907 85H349.407V71.4H360.907C363.174 71.4 364.907 71.2333 366.107 70.9C367.307 70.5667 368.174 69.9 368.707 68.9C369.241 67.8333 369.507 66.3 369.507 64.3C369.507 62.0333 369.174 60.4333 368.507 59.5C367.841 58.5 366.707 57.8667 365.107 57.6C363.507 57.3333 360.841 57.2 357.107 57.2C354.307 57.2 351.074 57.3333 347.407 57.6C343.807 57.8667 340.674 58.1667 338.007 58.5V45.6C340.941 44.9333 344.474 44.4 348.607 44C352.741 43.6 356.474 43.4 359.807 43.4C366.607 43.4 372.007 44.1 376.007 45.5C380.007 46.8333 382.841 48.8333 384.507 51.5C386.174 54.1 387.007 57.4333 387.007 61.5C387.007 66.3667 386.041 70.0667 384.107 72.6C382.174 75.0667 379.174 76.7667 375.107 77.7V78.1C379.441 79.1 382.607 80.7667 384.607 83.1C386.607 85.4333 387.607 89.2667 387.607 94.6C387.607 98.8 386.841 102.3 385.307 105.1C383.774 107.833 380.941 109.967 376.807 111.5C372.741 113.033 367.041 113.8 359.707 113.8Z" fill="black"/>
<defs>
<clipPath id="clip0">
<rect width="595" height="610" fill="white" transform="translate(0 146)"/>
</clipPath>
</defs>
</svg>
