<svg width="465" height="501" viewBox="0 0 465 501" fill="none" xmlns="http://www.w3.org/2000/svg">
<g clip-path="url(#clip0)">
<path d="M393.601 501C433.033 501 465 497.966 465 494.223C465 490.481 433.033 487.447 393.601 487.447C354.168 487.447 322.201 490.481 322.201 494.223C322.201 497.966 354.168 501 393.601 501Z" fill="#E6E6E6"/>
<path d="M171.549 141.46H3.11907C2.29214 141.459 1.49936 141.144 0.914635 140.583C0.329908 140.023 0.000971 139.263 0 138.47V98.4196C0.000970996 97.6269 0.329908 96.867 0.914635 96.3065C1.49936 95.7459 2.29214 95.4306 3.11907 95.4297H171.549C172.376 95.4306 173.168 95.7459 173.753 96.3065C174.338 96.867 174.667 97.6269 174.668 98.4196V138.47C174.667 139.263 174.338 140.023 173.753 140.583C173.168 141.144 172.376 141.459 171.549 141.46ZM3.11907 96.6257C2.6229 96.6262 2.14719 96.8154 1.79635 97.1517C1.4455 97.488 1.24816 97.944 1.24762 98.4196V138.47C1.24816 138.946 1.4455 139.402 1.79635 139.738C2.14719 140.074 2.6229 140.263 3.11907 140.264H171.549C172.045 140.263 172.521 140.074 172.871 139.738C173.222 139.402 173.42 138.946 173.42 138.47V98.4196C173.42 97.944 173.222 97.488 172.871 97.1517C172.521 96.8154 172.045 96.6262 171.549 96.6257H3.11907Z" fill="#3F3D56"/>
<path d="M29.2896 129.087C36.3066 129.087 41.995 123.634 41.995 116.908C41.995 110.181 36.3066 104.729 29.2896 104.729C22.2726 104.729 16.5842 110.181 16.5842 116.908C16.5842 123.634 22.2726 129.087 29.2896 129.087Z" fill="#6C63FF"/>
<path d="M58.6331 108.789C58.0715 108.789 57.5328 109.002 57.1357 109.383C56.7386 109.764 56.5155 110.28 56.5155 110.818C56.5155 111.357 56.7386 111.873 57.1357 112.254C57.5328 112.635 58.0715 112.848 58.6331 112.848H158.461C159.023 112.848 159.562 112.635 159.959 112.254C160.356 111.873 160.579 111.357 160.579 110.818C160.579 110.28 160.356 109.764 159.959 109.383C159.562 109.002 159.023 108.789 158.461 108.789H58.6331Z" fill="#E6E6E6"/>
<path d="M58.6331 120.968C58.0715 120.968 57.5328 121.182 57.1357 121.562C56.7386 121.943 56.5155 122.459 56.5155 122.998C56.5155 123.536 56.7386 124.052 57.1357 124.433C57.5328 124.814 58.0715 125.028 58.6331 125.028H101.589C102.151 125.028 102.69 124.814 103.087 124.433C103.484 124.052 103.707 123.536 103.707 122.998C103.707 122.459 103.484 121.943 103.087 121.562C102.69 121.182 102.151 120.968 101.589 120.968H58.6331Z" fill="#E6E6E6"/>
<path d="M78.6329 290.32H3.77505C2.94812 290.319 2.15534 290.004 1.57061 289.444C0.985883 288.883 0.656946 288.123 0.655975 287.33V212.597C0.656946 211.804 0.985883 211.044 1.57061 210.484C2.15534 209.923 2.94812 209.608 3.77505 209.607H78.6329C79.4598 209.608 80.2526 209.923 80.8373 210.484C81.422 211.044 81.751 211.804 81.7519 212.597V287.33C81.751 288.123 81.422 288.883 80.8373 289.444C80.2526 290.004 79.4598 290.319 78.6329 290.32ZM3.77505 210.803C3.27888 210.803 2.80319 210.993 2.45235 211.329C2.1015 211.665 1.90414 212.121 1.9036 212.597V287.33C1.90414 287.806 2.1015 288.262 2.45235 288.598C2.80319 288.935 3.27888 289.124 3.77505 289.124H78.6329C79.129 289.124 79.6047 288.935 79.9556 288.598C80.3064 288.262 80.5038 287.806 80.5043 287.33V212.597C80.5038 212.121 80.3064 211.665 79.9556 211.329C79.6047 210.993 79.129 210.803 78.6329 210.803H3.77505Z" fill="#3F3D56"/>
<path d="M19.7258 225.018C19.1642 225.018 18.6256 225.232 18.2284 225.613C17.8313 225.993 17.6082 226.51 17.6082 227.048C17.6082 227.586 17.8313 228.103 18.2284 228.483C18.6256 228.864 19.1642 229.078 19.7258 229.078H62.6822C62.9606 229.078 63.2363 229.026 63.4937 228.924C63.7511 228.823 63.985 228.673 64.182 228.485C64.3791 228.296 64.5354 228.072 64.6421 227.826C64.7487 227.579 64.8036 227.315 64.8036 227.048C64.8036 226.781 64.7487 226.517 64.6421 226.27C64.5354 226.024 64.3791 225.8 64.182 225.611C63.985 225.423 63.7511 225.273 63.4937 225.172C63.2363 225.07 62.9606 225.018 62.6822 225.018H19.7258Z" fill="#E6E6E6"/>
<path d="M19.7258 236.978C19.1641 236.978 18.6255 237.192 18.2284 237.573C17.8313 237.953 17.6082 238.47 17.6082 239.008C17.6082 239.546 17.8313 240.063 18.2284 240.443C18.6255 240.824 19.1641 241.038 19.7258 241.038H62.6821C63.2438 241.038 63.7824 240.824 64.1795 240.443C64.5766 240.063 64.7997 239.546 64.7997 239.008C64.7997 238.47 64.5766 237.953 64.1795 237.573C63.7824 237.192 63.2438 236.978 62.6821 236.978H19.7258Z" fill="#E6E6E6"/>
<path d="M41.2041 274.909C38.5678 274.909 35.9908 274.159 33.7988 272.755C31.6069 271.351 29.8984 269.356 28.8896 267.021C27.8807 264.686 27.6168 262.117 28.1311 259.639C28.6454 257.16 29.9149 254.883 31.779 253.096C33.6431 251.309 36.0181 250.093 38.6037 249.6C41.1893 249.107 43.8694 249.36 46.3049 250.327C48.7405 251.294 50.8222 252.931 52.2868 255.033C53.7515 257.134 54.5332 259.604 54.5332 262.131C54.5292 265.519 53.1236 268.767 50.6248 271.162C48.126 273.557 44.738 274.905 41.2041 274.909Z" fill="#6C63FF"/>
<path d="M221.056 36.0405H295.914C296.741 36.0415 297.534 36.3568 298.118 36.9173C298.703 37.4778 299.032 38.2378 299.033 39.0305V113.764C299.032 114.557 298.703 115.317 298.118 115.877C297.534 116.438 296.741 116.753 295.914 116.754H221.056C220.229 116.753 219.436 116.438 218.852 115.877C218.267 115.317 217.938 114.557 217.937 113.764V39.0305C217.938 38.2378 218.267 37.4778 218.852 36.9173C219.436 36.3568 220.229 36.0415 221.056 36.0405ZM295.914 115.558C296.41 115.557 296.886 115.368 297.237 115.032C297.588 114.696 297.785 114.24 297.785 113.764V39.0305C297.785 38.5548 297.588 38.0988 297.237 37.7625C296.886 37.4262 296.41 37.237 295.914 37.2365H221.056C220.56 37.237 220.084 37.4262 219.733 37.7625C219.383 38.0988 219.185 38.5548 219.185 39.0305V113.764C219.185 114.24 219.383 114.696 219.733 115.032C220.084 115.368 220.56 115.557 221.056 115.558H295.914Z" fill="#3F3D56"/>
<path d="M279.963 101.343C280.525 101.343 281.064 101.129 281.461 100.748C281.858 100.367 282.081 99.851 282.081 99.3126C282.081 98.7742 281.858 98.2579 281.461 97.8773C281.064 97.4966 280.525 97.2827 279.963 97.2827H237.007C236.445 97.2827 235.907 97.4966 235.51 97.8773C235.112 98.2579 234.889 98.7742 234.889 99.3126C234.889 99.851 235.112 100.367 235.51 100.748C235.907 101.129 236.445 101.343 237.007 101.343H279.963Z" fill="#E6E6E6"/>
<path d="M279.963 89.3825C280.525 89.3825 281.064 89.1687 281.461 88.788C281.858 88.4073 282.081 87.891 282.081 87.3526C282.081 86.8143 281.858 86.298 281.461 85.9173C281.064 85.5366 280.525 85.3228 279.963 85.3228H237.007C236.445 85.3228 235.907 85.5366 235.51 85.9173C235.112 86.298 234.889 86.8143 234.889 87.3526C234.889 87.891 235.112 88.4073 235.51 88.788C235.907 89.1687 236.445 89.3825 237.007 89.3825H279.963Z" fill="#E6E6E6"/>
<path d="M258.485 51.4521C261.121 51.4521 263.698 52.2015 265.89 53.6055C268.082 55.0095 269.791 57.005 270.799 59.3398C271.808 61.6745 272.072 64.2436 271.558 66.7221C271.044 69.2007 269.774 71.4774 267.91 73.2643C266.046 75.0512 263.671 76.2682 261.085 76.7612C258.5 77.2542 255.82 77.0012 253.384 76.0341C250.949 75.067 248.867 73.4293 247.402 71.3281C245.938 69.2269 245.156 66.7565 245.156 64.2294C245.16 60.8418 246.566 57.5941 249.064 55.1987C251.563 52.8034 254.951 51.456 258.485 51.4521Z" fill="#6C63FF"/>
<path d="M210.088 232.393H139.865L156.391 204.954C156.687 204.462 157.113 204.054 157.626 203.77C158.139 203.486 158.721 203.336 159.313 203.336C159.906 203.336 160.488 203.486 161.001 203.77C161.514 204.054 161.94 204.462 162.236 204.954L169.296 216.675L181.299 196.745C181.67 196.129 182.204 195.618 182.846 195.262C183.488 194.907 184.217 194.72 184.958 194.72C185.7 194.72 186.429 194.907 187.071 195.262C187.713 195.618 188.247 196.129 188.618 196.745L210.088 232.393Z" fill="#6C63FF"/>
<path d="M210.154 232.386H135.296C134.469 232.385 133.677 232.07 133.092 231.509C132.507 230.948 132.178 230.189 132.177 229.396V189.345C132.178 188.553 132.507 187.793 133.092 187.232C133.677 186.672 134.469 186.356 135.296 186.355H210.154C210.981 186.356 211.774 186.672 212.359 187.232C212.943 187.793 213.272 188.553 213.273 189.345V229.396C213.272 230.188 212.943 230.948 212.359 231.509C211.774 232.07 210.981 232.385 210.154 232.386ZM135.296 187.551C134.8 187.552 134.324 187.741 133.974 188.077C133.623 188.414 133.425 188.87 133.425 189.345V229.396C133.425 229.871 133.623 230.327 133.974 230.664C134.324 231 134.8 231.189 135.296 231.19H210.154C210.65 231.189 211.126 231 211.477 230.664C211.828 230.327 212.025 229.871 212.026 229.396V189.345C212.025 188.87 211.828 188.414 211.477 188.077C211.126 187.741 210.65 187.552 210.154 187.551H135.296Z" fill="#3F3D56"/>
<path d="M80.0139 46.0378H9.7908L26.3167 18.5989C26.6128 18.107 27.0388 17.6986 27.5519 17.4147C28.0649 17.1307 28.6469 16.9812 29.2393 16.9812C29.8317 16.9812 30.4136 17.1307 30.9266 17.4147C31.4397 17.6986 31.8657 18.107 32.1618 18.5989L39.2215 30.3203L51.2253 10.3899C51.5961 9.77421 52.1295 9.2629 52.7718 8.9074C53.4141 8.5519 54.1427 8.36475 54.8844 8.36475C55.6261 8.36475 56.3547 8.5519 56.997 8.9074C57.6393 9.2629 58.1727 9.77421 58.5435 10.3899L80.0139 46.0378Z" fill="#6C63FF"/>
<path d="M80.0801 46.0303H5.22229C4.39536 46.0294 3.60258 45.714 3.01785 45.1535C2.43313 44.593 2.10421 43.833 2.10324 43.0404V2.98993C2.10421 2.19724 2.43313 1.43728 3.01785 0.876757C3.60258 0.316238 4.39536 0.000930798 5.22229 0H80.0801C80.9071 0.000930798 81.6998 0.316238 82.2846 0.876757C82.8693 1.43728 83.1982 2.19724 83.1992 2.98993V43.0403C83.1982 43.833 82.8693 44.593 82.2846 45.1535C81.6998 45.714 80.9071 46.0294 80.0801 46.0303ZM5.22229 1.19597C4.72612 1.19649 4.25043 1.38566 3.89959 1.72198C3.54875 2.0583 3.35141 2.5143 3.35086 2.98993V43.0403C3.35141 43.516 3.54875 43.972 3.89959 44.3083C4.25043 44.6446 4.72612 44.8338 5.22229 44.8343H80.0801C80.5763 44.8338 81.052 44.6446 81.4028 44.3083C81.7537 43.972 81.951 43.516 81.9515 43.0403V2.98993C81.951 2.5143 81.7537 2.0583 81.4028 1.72198C81.052 1.38566 80.5763 1.19649 80.0801 1.19597H5.22229Z" fill="#3F3D56"/>
<path d="M394.052 167.919C405.169 167.919 414.18 159.281 414.18 148.625C414.18 137.969 405.169 129.331 394.052 129.331C382.936 129.331 373.925 137.969 373.925 148.625C373.925 159.281 382.936 167.919 394.052 167.919Z" fill="#FFB8B8"/>
<path d="M414.724 183.564L380.453 183.042C383.4 175.256 384.678 167.965 382.629 161.662L408.74 159.055C405.212 167.224 407.207 175.394 414.724 183.564Z" fill="#FFB8B8"/>
<path d="M343.461 312.888L349.152 327.436C349.64 328.684 349.827 330.023 349.697 331.35C349.568 332.677 349.126 333.959 348.404 335.099C347.683 336.239 346.701 337.207 345.533 337.93C344.364 338.653 343.04 339.113 341.66 339.274C340.339 339.429 338.999 339.306 337.732 338.916C336.466 338.525 335.303 337.875 334.324 337.012C333.345 336.148 332.573 335.091 332.062 333.913C331.551 332.735 331.313 331.465 331.364 330.191L332.037 313.41L336.933 227.367L357.061 233.103L343.461 312.888Z" fill="#FFB8B8"/>
<path d="M444.644 312.888L438.953 327.436C438.464 328.684 438.278 330.023 438.408 331.35C438.537 332.677 438.979 333.959 439.701 335.099C440.422 336.239 441.404 337.207 442.572 337.93C443.74 338.653 445.065 339.113 446.445 339.274C447.766 339.429 449.106 339.306 450.373 338.916C451.639 338.525 452.802 337.875 453.781 337.012C454.76 336.148 455.532 335.091 456.043 333.913C456.554 332.735 456.792 331.465 456.741 330.191L456.068 313.41L451.172 227.367L431.044 233.103L444.644 312.888Z" fill="#FFB8B8"/>
<path d="M423.428 474.544L407.108 472.98L392.421 336.355L371.749 475.587L356.517 475.066L352.709 322.275H425.604L423.428 474.544Z" fill="#2F2E41"/>
<path d="M370.117 141.325C370.117 141.325 375.557 152.797 379.365 153.318C383.173 153.84 389.701 159.576 388.613 162.183C387.525 164.791 388.069 172.613 398.948 171.57C409.828 170.527 409.284 169.484 409.284 169.484C409.284 169.484 426.692 137.674 408.74 129.331C390.788 120.987 375.013 127.245 370.117 141.325Z" fill="#2F2E41"/>
<path d="M355.685 467.602L356.338 480.765C356.338 480.765 346.373 495.664 358.796 495.664C358.92 495.664 358.673 495.665 358.796 495.664C367.78 495.637 375.9 499.513 374.838 490.961L373.338 478.884L370.723 465.722L355.685 467.602Z" fill="#2F2E41"/>
<path d="M423.292 467.602L422.638 480.765C422.638 480.765 432.604 495.664 420.181 495.664C420.056 495.664 420.303 495.665 420.181 495.664C411.196 495.637 403.076 499.513 404.138 490.961L405.638 478.884L408.254 465.722L423.292 467.602Z" fill="#2F2E41"/>
<path d="M431.588 328.533L350.533 324.882C365.65 278.381 365.761 240.332 346.725 205.295C346.725 201.63 347.845 198.045 349.947 194.983C352.049 191.921 355.041 189.516 358.553 188.066L382.085 178.349L412.004 179.914L431.747 190.322C435.613 192.361 438.802 195.401 440.95 199.095C443.097 202.79 444.117 206.99 443.891 211.214C426.607 250.766 425.62 289.767 431.588 328.533Z" fill="#3F3D56"/>
<path d="M371.205 237.796L326.053 230.496L333.492 212.792C336.108 206.566 340.094 200.955 345.178 196.341C350.262 191.727 356.325 188.219 362.953 186.057L367.397 184.606L371.205 237.796Z" fill="#3F3D56"/>
<path d="M416.9 237.796L462.052 230.496L454.613 212.792C451.997 206.566 448.011 200.955 442.927 196.341C437.842 191.727 431.779 188.219 425.152 186.057L420.708 184.606L416.9 237.796Z" fill="#3F3D56"/>
</g>
<defs>
<clipPath id="clip0">
<rect width="465" height="501" fill="white"/>
</clipPath>
</defs>
</svg>
