<svg width="551" height="483" viewBox="0 0 551 483" fill="none" xmlns="http://www.w3.org/2000/svg">
<g clip-path="url(#clip0)">
<path d="M277.233 0H31.4338C23.0999 0.0108337 15.11 3.83773 9.21707 10.6411C3.32413 17.4445 0.00936313 26.6687 0 36.2901V369.499C0.00936488 379.121 3.32414 388.345 9.21708 395.148C15.11 401.952 23.0999 405.778 31.4338 405.789H277.233C285.567 405.778 293.557 401.952 299.45 395.148C305.343 388.345 308.658 379.121 308.667 369.499V36.2901C308.658 26.6687 305.343 17.4445 299.45 10.6411C293.557 3.83773 285.567 0.0108337 277.233 0Z" fill="#F2F2F2"/>
<path d="M277.233 10.4471H31.4336C25.4988 10.4548 19.809 13.18 15.6125 18.0249C11.416 22.8697 9.05549 29.4385 9.04883 36.2901V369.499C9.0555 376.351 11.416 382.92 15.6125 387.764C19.8091 392.609 25.4988 395.335 31.4336 395.342H277.233C283.168 395.334 288.858 392.609 293.054 387.764C297.251 382.92 299.611 376.351 299.618 369.499V36.2901C299.611 29.4385 297.251 22.8698 293.054 18.025C288.858 13.1801 283.168 10.4549 277.233 10.4471Z" fill="white"/>
<path d="M240.241 107.335H115.942C114.553 107.335 113.222 106.699 112.24 105.565C111.259 104.432 110.707 102.895 110.707 101.292C110.707 99.6894 111.259 98.1523 112.24 97.0189C113.222 95.8856 114.553 95.2489 115.942 95.2489H240.241C240.928 95.2489 241.609 95.4052 242.244 95.7089C242.879 96.0126 243.456 96.4578 243.942 97.0189C244.428 97.5801 244.814 98.2463 245.077 98.9795C245.34 99.7127 245.475 100.499 245.475 101.292C245.475 102.086 245.34 102.872 245.077 103.605C244.814 104.338 244.428 105.004 243.942 105.565C243.456 106.127 242.879 106.572 242.244 106.875C241.609 107.179 240.928 107.335 240.241 107.335Z" fill="#F2F2F2"/>
<path d="M261.833 127.731H115.941C114.554 127.73 113.224 127.092 112.244 125.959C111.263 124.826 110.712 123.29 110.712 121.688C110.712 120.087 111.263 118.55 112.244 117.417C113.224 116.284 114.554 115.647 115.941 115.645H261.833C263.22 115.647 264.55 116.284 265.531 117.417C266.511 118.55 267.062 120.087 267.062 121.688C267.062 123.29 266.511 124.826 265.531 125.959C264.55 127.092 263.22 127.73 261.833 127.731Z" fill="#F2F2F2"/>
<path d="M240.241 198.74H115.942C114.553 198.74 113.222 198.103 112.24 196.97C111.259 195.836 110.707 194.299 110.707 192.697C110.707 191.094 111.259 189.557 112.24 188.423C113.222 187.29 114.553 186.653 115.942 186.653H240.241C240.928 186.653 241.609 186.81 242.244 187.113C242.879 187.417 243.456 187.862 243.942 188.423C244.428 188.985 244.814 189.651 245.077 190.384C245.34 191.117 245.475 191.903 245.475 192.697C245.475 193.49 245.34 194.276 245.077 195.009C244.814 195.742 244.428 196.409 243.942 196.97C243.456 197.531 242.879 197.976 242.244 198.28C241.609 198.584 240.928 198.74 240.241 198.74Z" fill="#F2F2F2"/>
<path d="M261.833 219.136H115.941C114.554 219.134 113.224 218.497 112.244 217.363C111.263 216.23 110.712 214.694 110.712 213.093C110.712 211.491 111.263 209.955 112.244 208.822C113.224 207.689 114.554 207.051 115.941 207.049H261.833C263.22 207.051 264.55 207.689 265.531 208.822C266.511 209.955 267.062 211.491 267.062 213.093C267.062 214.694 266.511 216.23 265.531 217.363C264.55 218.497 263.22 219.134 261.833 219.136Z" fill="#F2F2F2"/>
<path d="M240.241 290.144H115.942C114.553 290.144 113.222 289.508 112.24 288.374C111.259 287.241 110.707 285.704 110.707 284.101C110.707 282.498 111.259 280.961 112.24 279.828C113.222 278.695 114.553 278.058 115.942 278.058H240.241C240.929 278.057 241.61 278.213 242.246 278.516C242.882 278.819 243.459 279.264 243.946 279.826C244.433 280.387 244.819 281.053 245.082 281.787C245.346 282.521 245.481 283.307 245.481 284.101C245.481 284.895 245.346 285.682 245.082 286.415C244.819 287.149 244.433 287.816 243.946 288.377C243.459 288.938 242.882 289.383 242.246 289.686C241.61 289.99 240.929 290.145 240.241 290.144Z" fill="#F2F2F2"/>
<path d="M261.833 310.54H115.941C114.554 310.539 113.224 309.901 112.244 308.768C111.263 307.635 110.712 306.099 110.712 304.497C110.712 302.896 111.263 301.359 112.244 300.226C113.224 299.093 114.554 298.456 115.941 298.454H261.833C263.22 298.456 264.55 299.093 265.531 300.226C266.511 301.359 267.062 302.896 267.062 304.497C267.062 306.099 266.511 307.635 265.531 308.768C264.55 309.901 263.22 310.539 261.833 310.54Z" fill="#F2F2F2"/>
<path d="M88.0974 136.99H44.1091C43.4436 136.99 42.8056 136.684 42.3351 136.141C41.8645 135.598 41.5999 134.861 41.5991 134.093V88.8877C41.5999 88.1195 41.8645 87.3829 42.3351 86.8397C42.8056 86.2964 43.4436 85.9908 44.1091 85.99H88.0974C88.7629 85.9908 89.4008 86.2964 89.8714 86.8397C90.342 87.3829 90.6066 88.1195 90.6074 88.8877V134.093C90.6066 134.861 90.342 135.598 89.8714 136.141C89.4008 136.684 88.7629 136.99 88.0974 136.99Z" fill="#E6E6E6"/>
<path d="M88.0974 228.395H44.1091C43.4436 228.394 42.8056 228.088 42.3351 227.545C41.8645 227.002 41.5999 226.265 41.5991 225.497V180.292C41.5999 179.524 41.8645 178.787 42.3351 178.244C42.8056 177.701 43.4436 177.395 44.1091 177.394H88.0974C88.7629 177.395 89.4008 177.701 89.8714 178.244C90.342 178.787 90.6066 179.524 90.6074 180.292V225.497C90.6066 226.265 90.3419 227.002 89.8714 227.545C89.4008 228.088 88.7629 228.394 88.0974 228.395Z" fill="#E6E6E6"/>
<path d="M88.0974 319.799H44.1091C43.4436 319.798 42.8056 319.493 42.3351 318.95C41.8645 318.406 41.5999 317.67 41.5991 316.902V271.697C41.5999 270.928 41.8645 270.192 42.3351 269.649C42.8056 269.105 43.4436 268.8 44.1091 268.799H88.0974C88.7629 268.8 89.4008 269.105 89.8714 269.649C90.342 270.192 90.6066 270.928 90.6074 271.697V316.902C90.6066 317.67 90.342 318.406 89.8714 318.95C89.4008 319.493 88.7629 319.798 88.0974 319.799Z" fill="#E6E6E6"/>
<path d="M493.766 315.137L495.716 295.449L505.494 196.735L507.444 177.047C508.381 167.486 505.996 157.887 500.81 150.355C495.625 142.823 488.063 137.972 479.785 136.869L257.928 107.58C249.647 106.498 241.332 109.252 234.808 115.239C228.283 121.225 224.082 129.955 223.126 139.513L223.121 139.564L209.454 277.553L209.449 277.603C208.511 287.164 210.897 296.763 216.082 304.295C221.268 311.827 228.829 316.677 237.108 317.781L458.965 347.07C467.246 348.152 475.561 345.398 482.085 339.411C488.609 333.425 492.81 324.695 493.766 315.137Z" fill="#E6E6E6"/>
<path d="M484.776 313.951L487.085 290.632L496.143 199.179L498.453 175.86C499.121 169.052 497.422 162.216 493.729 156.852C490.037 151.488 484.652 148.034 478.756 147.248L256.899 117.96C251.002 117.189 245.081 119.15 240.435 123.413C235.789 127.677 232.797 133.893 232.117 140.7L232.112 140.75L218.444 278.739L218.439 278.791C217.772 285.599 219.47 292.435 223.163 297.798C226.856 303.162 232.24 306.616 238.136 307.402L459.993 336.69C465.89 337.461 471.811 335.5 476.457 331.237C481.103 326.974 484.095 320.757 484.776 313.951Z" fill="white"/>
<path d="M448.461 188.834L324.967 172.531C324.283 172.441 323.622 172.197 323.02 171.812C322.418 171.428 321.888 170.91 321.46 170.288C321.032 169.667 320.714 168.954 320.524 168.191C320.335 167.427 320.278 166.628 320.356 165.839C320.434 165.05 320.646 164.287 320.98 163.592C321.314 162.898 321.763 162.287 322.302 161.793C322.84 161.299 323.458 160.933 324.119 160.715C324.781 160.497 325.473 160.431 326.156 160.522L449.651 176.825C451.029 177.009 452.288 177.817 453.15 179.071C454.013 180.325 454.409 181.924 454.251 183.515C454.094 185.107 453.395 186.561 452.31 187.558C451.224 188.555 449.84 189.014 448.461 188.834Z" fill="#E6E6E6"/>
<path d="M467.907 211.93L322.96 192.795C322.276 192.705 321.615 192.461 321.013 192.076C320.411 191.692 319.881 191.174 319.453 190.552C319.025 189.931 318.707 189.218 318.517 188.455C318.328 187.691 318.271 186.892 318.349 186.103C318.427 185.314 318.639 184.551 318.973 183.857C319.307 183.162 319.756 182.551 320.295 182.057C320.833 181.563 321.451 181.197 322.112 180.979C322.774 180.761 323.466 180.695 324.149 180.786L469.096 199.921C469.779 200.012 470.44 200.256 471.041 200.641C471.642 201.026 472.172 201.544 472.6 202.165C473.027 202.787 473.345 203.499 473.534 204.262C473.723 205.025 473.78 205.824 473.702 206.612C473.624 207.401 473.412 208.164 473.079 208.858C472.745 209.552 472.297 210.163 471.759 210.657C471.22 211.15 470.603 211.517 469.942 211.735C469.282 211.954 468.59 212.02 467.907 211.93Z" fill="#E6E6E6"/>
<path d="M463.866 252.346L250.169 224.135C248.791 223.951 247.532 223.143 246.669 221.889C245.806 220.634 245.41 219.036 245.568 217.445C245.726 215.853 246.424 214.399 247.51 213.402C248.595 212.405 249.98 211.946 251.358 212.126L465.055 240.337C465.739 240.427 466.4 240.671 467.002 241.056C467.604 241.44 468.134 241.958 468.562 242.58C468.99 243.201 469.308 243.914 469.497 244.677C469.687 245.441 469.744 246.24 469.666 247.029C469.588 247.818 469.376 248.581 469.042 249.275C468.708 249.97 468.259 250.581 467.72 251.075C467.182 251.569 466.564 251.935 465.903 252.153C465.241 252.371 464.549 252.437 463.866 252.346H463.866Z" fill="#E6E6E6"/>
<path d="M462.545 272.7L248.161 244.399C246.783 244.215 245.525 243.407 244.662 242.153C243.799 240.898 243.403 239.3 243.561 237.709C243.718 236.117 244.417 234.663 245.502 233.666C246.588 232.669 247.972 232.21 249.351 232.39L463.735 260.692C465.113 260.876 466.372 261.683 467.234 262.938C468.097 264.192 468.493 265.791 468.335 267.382C468.178 268.973 467.479 270.427 466.394 271.425C465.308 272.422 463.924 272.881 462.545 272.7Z" fill="#E6E6E6"/>
<path d="M459.933 292.053L246.236 263.842C245.553 263.753 244.891 263.508 244.289 263.124C243.688 262.739 243.157 262.221 242.729 261.6C242.301 260.978 241.983 260.265 241.793 259.502C241.604 258.739 241.547 257.94 241.625 257.151C241.703 256.362 241.915 255.598 242.249 254.904C242.583 254.209 243.032 253.598 243.571 253.104C244.109 252.61 244.727 252.244 245.388 252.026C246.05 251.808 246.742 251.743 247.425 251.834L461.122 280.045C462.501 280.228 463.759 281.036 464.622 282.29C465.485 283.545 465.881 285.143 465.723 286.735C465.566 288.326 464.867 289.78 463.782 290.777C462.696 291.774 461.312 292.233 459.933 292.053V292.053Z" fill="#E6E6E6"/>
<path d="M458.613 312.408L244.229 284.106C242.851 283.922 241.592 283.115 240.729 281.86C239.867 280.606 239.471 279.007 239.628 277.416C239.786 275.825 240.484 274.371 241.57 273.373C242.656 272.376 244.04 271.917 245.418 272.098L459.802 300.399C460.486 300.489 461.147 300.733 461.749 301.118C462.351 301.502 462.881 302.02 463.309 302.642C463.737 303.263 464.055 303.976 464.245 304.739C464.434 305.503 464.491 306.302 464.413 307.091C464.335 307.88 464.123 308.643 463.789 309.338C463.455 310.032 463.006 310.643 462.467 311.137C461.929 311.631 461.311 311.997 460.65 312.215C459.988 312.433 459.296 312.499 458.613 312.408Z" fill="#E6E6E6"/>
<path d="M294.386 198.342L250.682 192.572C250.021 192.484 249.417 192.097 249.003 191.495C248.589 190.894 248.399 190.127 248.473 189.364L252.922 144.452C252.998 143.688 253.334 142.991 253.855 142.513C254.376 142.035 255.04 141.815 255.701 141.902L299.404 147.671C300.065 147.759 300.669 148.147 301.083 148.748C301.497 149.35 301.688 150.116 301.613 150.88L297.164 195.792C297.088 196.555 296.753 197.252 296.232 197.73C295.711 198.208 295.047 198.428 294.386 198.342Z" fill="#6C63FF"/>
<path d="M550.347 482.88H407.303C407.129 482.88 406.963 482.801 406.841 482.66C406.718 482.518 406.649 482.326 406.649 482.126C406.649 481.926 406.718 481.735 406.841 481.593C406.963 481.452 407.129 481.372 407.303 481.372H550.347C550.52 481.372 550.686 481.452 550.808 481.593C550.931 481.735 551 481.926 551 482.126C551 482.326 550.931 482.518 550.808 482.66C550.686 482.801 550.52 482.88 550.347 482.88Z" fill="#3F3D56"/>
<path d="M496.634 194.794C496.414 195.796 496.388 196.842 496.556 197.857C496.724 198.872 497.082 199.833 497.607 200.671C498.131 201.509 498.808 202.204 499.59 202.707C500.372 203.21 501.241 203.509 502.134 203.583L506.559 218.913L515.284 218.08L508.771 196.533C508.779 194.793 508.234 193.109 507.239 191.802C506.244 190.495 504.868 189.654 503.372 189.44C501.876 189.226 500.364 189.652 499.122 190.639C497.88 191.626 496.995 193.104 496.634 194.794Z" fill="#FFB8B8"/>
<path d="M503.317 295.181C504.339 296.265 505.591 297.018 506.947 297.365C508.302 297.712 509.713 297.64 511.037 297.157C512.361 296.673 513.55 295.795 514.486 294.611C515.422 293.427 516.07 291.979 516.366 290.412L523.277 253.86C524.458 247.61 524.18 241.109 522.471 235.023L514.383 206.236C514.267 205.823 514.075 205.443 513.82 205.124C513.565 204.804 513.254 204.552 512.907 204.384C512.56 204.216 512.185 204.137 511.809 204.152C511.433 204.167 511.065 204.275 510.728 204.469L505.45 207.52C504.903 207.836 504.47 208.363 504.225 209.01C503.98 209.657 503.94 210.382 504.111 211.06L504.643 213.172C509.068 230.743 509.3 249.367 505.315 267.077L501.016 286.178C500.656 287.778 500.68 289.462 501.085 291.048C501.49 292.634 502.262 294.062 503.317 295.181Z" fill="#6C63FF"/>
<path d="M475.666 474.995L468.199 474.994L464.647 441.742L475.668 441.743L475.666 474.995Z" fill="#FFB8B8"/>
<path d="M462.865 472.531H477.266V482.999H453.797C453.797 481.624 454.032 480.263 454.488 478.993C454.943 477.723 455.611 476.569 456.453 475.597C457.295 474.625 458.295 473.854 459.395 473.328C460.495 472.802 461.674 472.531 462.865 472.531Z" fill="#2F2E41"/>
<path d="M515.915 474.995L508.448 474.994L504.896 441.742L515.917 441.743L515.915 474.995Z" fill="#FFB8B8"/>
<path d="M503.114 472.531H517.515V482.999H494.046C494.046 481.624 494.281 480.263 494.737 478.993C495.192 477.723 495.86 476.569 496.702 475.597C497.544 474.625 498.544 473.854 499.644 473.328C500.744 472.802 501.923 472.531 503.114 472.531Z" fill="#2F2E41"/>
<path d="M494.046 238.61C502.906 238.61 510.088 230.318 510.088 220.089C510.088 209.86 502.906 201.568 494.046 201.568C485.186 201.568 478.003 209.86 478.003 220.089C478.003 230.318 485.186 238.61 494.046 238.61Z" fill="#FFB8B8"/>
<path d="M439.191 340.876C439.303 339.85 439.609 338.865 440.086 337.991C440.563 337.116 441.201 336.373 441.954 335.814C442.707 335.255 443.557 334.893 444.445 334.754C445.332 334.615 446.235 334.702 447.09 335.01L456.055 322.602L463.915 327.053L451.041 344.37C450.498 345.994 449.459 347.331 448.119 348.129C446.779 348.927 445.232 349.13 443.772 348.699C442.311 348.268 441.038 347.234 440.194 345.792C439.35 344.35 438.993 342.601 439.191 340.876Z" fill="#FFB8B8"/>
<path d="M497.952 238.609C500.366 238.669 502.764 238.139 504.989 237.053C507.213 235.967 509.213 234.35 510.857 232.308C512.502 230.266 513.753 227.845 514.529 225.205C515.306 222.565 515.589 219.765 515.362 216.989C515.134 214.214 514.4 211.525 513.208 209.1C512.016 206.675 510.393 204.569 508.446 202.92C506.498 201.271 504.271 200.116 501.909 199.531C499.548 198.947 497.106 198.946 494.745 199.529C491.217 197.056 487.115 195.392 483.004 195.815C478.893 196.238 474.827 199.056 473.29 203.478C471.753 207.9 473.404 213.729 477.227 215.526C479.678 216.678 482.445 216.119 485.06 215.655C487.675 215.19 490.528 214.887 492.804 216.445C495.08 218.003 496.103 222.18 494.065 224.128C492.984 225.201 492.213 226.629 491.853 228.222C491.493 229.814 491.562 231.495 492.051 233.041C493.075 236.1 495.871 238.557 497.952 238.609Z" fill="#2F2E41"/>
<path d="M517.856 340.144L520.702 464.823C520.711 465.238 520.646 465.652 520.511 466.037C520.375 466.422 520.172 466.771 519.915 467.061C519.657 467.351 519.35 467.577 519.013 467.724C518.676 467.871 518.317 467.936 517.957 467.914L508.583 467.362C507.984 467.327 507.415 467.056 506.969 466.593C506.524 466.131 506.229 465.506 506.135 464.823L494.985 383.844C494.937 383.497 494.786 383.181 494.558 382.949C494.33 382.717 494.039 382.584 493.736 382.573C493.432 382.562 493.134 382.674 492.894 382.889C492.654 383.104 492.486 383.409 492.42 383.751L477.327 461.721C477.246 462.137 477.09 462.53 476.868 462.871C476.646 463.213 476.364 463.497 476.04 463.703C475.717 463.91 475.359 464.034 474.99 464.069C474.621 464.104 474.25 464.048 473.902 463.905L464.598 463.249C464.06 463.028 463.599 462.609 463.287 462.057C462.974 461.505 462.827 460.85 462.867 460.192L470.989 338.964L517.856 340.144Z" fill="#2F2E41"/>
<path d="M522.423 280.925C523.993 262.031 511.96 244.942 495.561 243.598C488.495 243.018 477.525 242.811 473.909 253.504C463.016 285.713 482.085 284.93 475.515 312.837C468.945 340.743 463.142 342.342 472.157 344.357C481.172 346.373 521.711 358.268 520.046 338.626C519.023 326.553 520.858 299.772 522.423 280.925Z" fill="#6C63FF"/>
<path d="M477.144 250.227C478.439 249.649 479.843 249.475 481.215 249.723C482.586 249.971 483.877 250.632 484.957 251.64C486.036 252.648 486.866 253.967 487.363 255.464C487.86 256.96 488.006 258.582 487.787 260.165L482.667 297.108C481.791 303.425 479.477 309.36 475.962 314.306L459.332 337.701C459.094 338.036 458.795 338.309 458.457 338.499C458.119 338.689 457.749 338.793 457.373 338.803C456.997 338.813 456.623 338.729 456.278 338.557C455.932 338.384 455.623 338.128 455.371 337.805L451.421 332.741C451.012 332.217 450.775 331.543 450.752 330.838C450.729 330.133 450.92 329.441 451.293 328.882L452.456 327.139C462.131 312.645 468.234 295.403 470.121 277.235L472.157 257.64C472.327 255.998 472.882 254.441 473.76 253.135C474.639 251.83 475.809 250.824 477.144 250.227Z" fill="#6C63FF"/>
</g>
<defs>
<clipPath id="clip0">
<rect width="551" height="483" fill="white"/>
</clipPath>
</defs>
</svg>
