<svg width="897" height="458" viewBox="0 0 897 458" fill="none" xmlns="http://www.w3.org/2000/svg">
<g clip-path="url(#clip0)">
<path d="M578.096 321.972C567.813 344.678 550.009 362.051 529.64 375.271C521.285 380.648 512.598 385.408 503.638 389.519C497.776 392.235 491.834 394.714 485.812 396.955C455.941 408.118 424.334 413.574 392.672 413.592C387.498 413.598 382.324 413.456 377.15 413.165C375.665 413.084 374.181 412.99 372.696 412.885C364.875 412.33 357.079 411.44 349.309 410.215C349.156 410.192 348.998 410.169 348.845 410.139C332.591 407.571 316.567 403.551 300.94 398.123C297.911 397.072 294.9 395.968 291.907 394.811C291.1 394.507 290.292 394.186 289.489 393.871C286.116 392.533 282.769 391.129 279.447 389.659C276.652 388.426 273.874 387.147 271.112 385.821C268.394 384.506 265.695 383.149 263.013 381.749C258.625 379.448 254.284 377.035 249.99 374.511C246.677 372.549 243.408 370.512 240.182 368.401C232.183 363.172 224.442 357.501 216.991 351.414C214.361 349.264 211.766 347.06 209.208 344.801C207.434 343.235 205.677 341.635 203.892 340.081C200.126 336.804 196.251 333.69 191.928 331.359C190.624 330.656 189.287 330.024 187.922 329.466C182.822 327.447 177.448 326.328 172.012 326.154C162.739 325.763 153.166 327.609 144.198 330.343C139.936 331.634 135.722 333.118 131.509 334.636C129.778 335.261 128.05 335.888 126.323 336.517C122.754 337.82 119.185 339.094 115.582 340.256C114.382 340.642 113.181 341.021 111.974 341.378C107.159 342.862 102.251 343.978 97.2873 344.719C86.203 346.227 74.9455 345.178 64.2719 341.64L63.3605 341.337C61.8324 340.823 60.3205 340.262 58.814 339.648L57.9025 339.275C56.4509 338.673 55.0264 338.028 53.6289 337.341L52.7175 336.897C51.3748 336.225 50.0594 335.524 48.766 334.782C48.6568 334.724 48.5531 334.666 48.4438 334.601C47.9418 334.321 47.4453 334.017 46.9538 333.731C39.0294 328.984 31.8231 322.979 25.5806 315.92C25.4005 315.727 25.2312 315.528 25.0348 315.336C24.1668 314.331 23.3154 313.309 22.4913 312.263C22.1857 311.877 21.88 311.492 21.5799 311.095C20.6029 309.815 19.6587 308.509 18.7473 307.175C18.6108 306.982 18.4797 306.783 18.3488 306.591C14.6216 301.069 11.53 295.087 9.14117 288.774C9.06469 288.581 8.99381 288.382 8.92823 288.19C8.20229 286.186 7.53826 284.147 6.93614 282.073C6.69042 281.209 6.4559 280.321 6.24829 279.456C6.1774 279.199 6.11184 278.936 6.05188 278.679C3.06653 265.991 2.74435 252.795 2.74435 239.675V235.089C2.83176 213.866 3.13744 192.282 6.06283 171.351C6.07445 171.206 6.09448 171.061 6.1228 170.919C7.10529 163.873 8.4371 156.888 10.1126 149.994C11.8721 142.762 14.1175 135.675 16.8314 128.789C23.5611 111.848 33.3473 96.432 44.2139 82.1433C71.5583 46.2114 107.455 16.0043 149.471 4.73582C194.745 -7.43231 245.062 4.2276 281.581 35.346C292.349 44.5174 302.059 55.3244 313.996 62.6031C314.4 62.8543 314.809 63.0996 315.224 63.3391C316.801 64.2562 318.413 65.0896 320.059 65.8393C322.241 66.8368 324.486 67.6665 326.778 68.322C334.032 70.4075 341.613 70.5944 348.845 68.0066C349.434 67.7904 350.024 67.5626 350.608 67.3114C351.846 66.7857 353.031 66.295 354.171 65.8393C361.955 62.7374 367.948 61.2303 377.406 61.7736C399.869 63.128 422.013 68.0885 443.098 76.4886C443.95 76.8216 444.801 77.1663 445.647 77.5109C500.614 100.03 547.875 144.748 572.425 202.212C573.079 203.731 573.711 205.262 574.318 206.804C588.962 243.384 594.246 286.303 578.096 321.972Z" fill="#F2F2F2"/>
<path d="M34.717 299.452V299.686L34.6351 299.792L34.717 299.452Z" fill="#CACACA"/>
<path d="M131.509 334.636C129.778 335.261 128.05 335.888 126.323 336.517V334.636H131.509Z" fill="white"/>
<path d="M326.778 34.3299H313.995V68.5355H326.778V34.3299Z" fill="#E4E4E4"/>
<path d="M348.845 65.8393V410.139C332.591 407.571 316.567 403.551 300.94 398.123C297.911 397.072 294.9 395.968 291.907 394.811C291.1 394.507 290.292 394.186 289.489 393.87C286.116 392.533 282.769 391.129 279.447 389.659C276.652 388.426 273.874 387.147 271.112 385.821C268.394 384.506 265.695 383.149 263.013 381.749C258.625 379.447 254.284 377.035 249.99 374.511C246.677 372.548 243.408 370.512 240.182 368.401V65.8393H348.845Z" fill="#E4E4E4"/>
<path d="M392.672 65.8393V413.592C387.498 413.598 382.324 413.456 377.15 413.165C375.665 413.084 374.181 412.99 372.696 412.885C364.875 412.33 357.079 411.44 349.309 410.215C349.156 410.192 348.998 410.169 348.845 410.139V65.8393H392.672Z" fill="#CACACA"/>
<path d="M276.251 100.044H259.815V117.635H276.251V100.044Z" fill="white"/>
<path d="M302.731 100.044H286.295V117.635H302.731V100.044Z" fill="white"/>
<path d="M329.211 100.044H312.775V117.635H329.211V100.044Z" fill="white"/>
<path d="M276.707 140.113H260.271V157.705H276.707V140.113Z" fill="white"/>
<path d="M303.188 140.113H286.752V157.705H303.188V140.113Z" fill="white"/>
<path d="M329.668 140.113H313.232V157.705H329.668V140.113Z" fill="white"/>
<path d="M277.164 180.182H260.728V197.774H277.164V180.182Z" fill="white"/>
<path d="M303.644 180.182H287.208V197.774H303.644V180.182Z" fill="white"/>
<path d="M330.124 180.182H313.688V197.774H330.124V180.182Z" fill="white"/>
<path d="M277.621 220.252H261.184V237.843H277.621V220.252Z" fill="white"/>
<path d="M304.101 220.252H287.665V237.843H304.101V220.252Z" fill="white"/>
<path d="M330.581 220.252H314.145V237.843H330.581V220.252Z" fill="white"/>
<path d="M278.077 260.321H261.641V277.913H278.077V260.321Z" fill="white"/>
<path d="M304.557 260.321H288.121V277.913H304.557V260.321Z" fill="white"/>
<path d="M331.038 260.321H314.602V277.913H331.038V260.321Z" fill="white"/>
<path d="M278.534 300.391H262.098V317.982H278.534V300.391Z" fill="white"/>
<path d="M305.014 300.391H288.578V317.982H305.014V300.391Z" fill="white"/>
<path d="M331.494 300.391H315.058V317.982H331.494V300.391Z" fill="white"/>
<path d="M278.99 340.46H262.554V358.051H278.99V340.46Z" fill="white"/>
<path d="M305.47 340.46H289.034V358.051H305.47V340.46Z" fill="white"/>
<path d="M331.951 340.46H315.515V358.051H331.951V340.46Z" fill="white"/>
<path d="M279.447 380.528V389.659C276.652 388.426 273.874 387.147 271.112 385.821C268.394 384.506 265.695 383.149 263.013 381.749V380.528H279.447Z" fill="white"/>
<path d="M305.929 380.528V398.123H300.94C297.911 397.072 294.9 395.968 291.907 394.811C291.1 394.507 290.292 394.186 289.489 393.871V380.528L305.929 380.528Z" fill="white"/>
<path d="M332.407 380.529H315.971V398.121H332.407V380.529Z" fill="white"/>
<path d="M475.766 208.524H462.982V228.797H475.766V208.524Z" fill="#E4E4E4"/>
<path d="M485.812 227.057V396.955C455.941 408.118 424.334 413.574 392.672 413.592C387.498 413.598 382.324 413.456 377.15 413.165V227.057H485.812Z" fill="#E4E4E4"/>
<path d="M529.64 227.057V375.271C521.285 380.648 512.598 385.408 503.638 389.518C497.776 392.235 491.834 394.714 485.812 396.955V227.057H529.64Z" fill="#CACACA"/>
<path d="M415.044 260.321H398.608V277.913H415.044V260.321Z" fill="white"/>
<path d="M441.524 260.321H425.088V277.913H441.524V260.321Z" fill="white"/>
<path d="M468.005 260.321H451.569V277.913H468.005V260.321Z" fill="white"/>
<path d="M415.501 300.391H399.065V317.982H415.501V300.391Z" fill="white"/>
<path d="M441.981 300.391H425.545V317.982H441.981V300.391Z" fill="white"/>
<path d="M468.461 300.391H452.025V317.982H468.461V300.391Z" fill="white"/>
<path d="M415.957 340.46H399.521V358.051H415.957V340.46Z" fill="white"/>
<path d="M442.437 340.46H426.001V358.051H442.437V340.46Z" fill="white"/>
<path d="M468.918 340.46H452.482V358.051H468.918V340.46Z" fill="white"/>
<path d="M416.414 380.529H399.978V398.121H416.414V380.529Z" fill="white"/>
<path d="M442.894 380.529H426.458V398.121H442.894V380.529Z" fill="white"/>
<path d="M469.374 380.529H452.938V398.121H469.374V380.529Z" fill="white"/>
<path d="M390.012 418.951C390.012 418.951 395.859 441.207 420.346 440.195C444.833 439.183 455.419 418.546 455.419 418.546L390.012 418.951Z" fill="#3F3D56"/>
<path d="M52.5771 332.152L45.5811 345.866L46.7169 371.606L214.362 424.921L287.364 434.53L273.092 341.349L223.15 331.884L148.231 334.175L84.7136 321.631L52.5771 332.152Z" fill="#2F2E41"/>
<path d="M75.9143 422.39H71.5866C67.403 422.406 63.3025 421.14 59.7699 418.741C56.2373 416.342 53.4203 412.911 51.6518 408.853C44.98 393.264 46.9563 371.708 46.9856 371.4C48.4975 352.768 58.0381 340.612 70.7281 341.164C84.7373 341.769 96.6832 393.63 97.1849 395.838C98.0174 399.56 97.7984 403.464 96.5557 407.053C95.0096 411.573 92.1971 415.472 88.5026 418.218C84.8081 420.963 80.4118 422.42 75.9143 422.39Z" fill="#3F3D56"/>
<path d="M252.391 458C251.651 457.981 250.913 457.905 250.183 457.772C244.583 456.827 239.29 454.409 234.779 450.734C230.269 447.059 226.682 442.242 224.341 436.716C222.586 432.632 220.898 428.451 219.323 424.287C213.001 407.568 218.301 378.34 226.914 367.027C234.515 357.042 242.166 357.121 253.748 357.238C254.937 357.25 256.169 357.262 257.447 357.265C270.307 357.287 283.902 407.918 288.369 424.555C288.725 425.879 289.019 426.974 289.246 427.796C289.946 430.324 289.863 433.348 288.999 436.783C286.273 447.62 277.29 455.657 266.645 456.782C258.999 457.59 254.204 458 252.391 458Z" fill="#3F3D56"/>
<path d="M46.7168 371.606C46.7168 371.606 41.8018 348.136 49.1743 332.152L56.6049 312.931L84.6839 340.852L91.0956 384.542L200.973 402.36C200.973 402.36 194.167 330.736 236.89 327.903C279.613 325.071 299.885 402.36 299.885 402.36L321.202 418.951L469.786 407.216C469.786 407.216 472.409 414.904 468.64 418.951C464.871 422.997 284.528 435.542 284.528 435.542C284.528 435.542 275.454 339.638 239.537 348.541C203.619 357.443 214.362 424.921 214.362 424.921L86.0369 400.741C86.0369 400.741 81.8781 335.592 60.7057 335.592C39.5333 335.592 46.7168 371.606 46.7168 371.606Z" fill="#3F3D56"/>
<path d="M72.0374 290.013L96.2451 249.4L199.461 242.926L314.018 244.544L367.327 297.554L202.485 307.67L69.7795 299.982L72.0374 290.013Z" fill="#3F3D56"/>
<path d="M72.0376 290.013C72.0376 290.013 51.4428 290.472 49.1743 332.152C49.1743 332.152 71.1029 289.663 90.0068 384.353L202.863 403.978C202.863 403.978 198.704 325.071 241.427 331.14C284.15 337.21 294.358 409.644 294.358 409.644C294.358 409.644 302.676 427.448 348.423 424.616C394.171 421.783 462.603 417.332 469.786 407.216C469.786 407.216 486.422 346.922 434.625 308.075L367.327 297.554L214.962 300.791L72.0376 290.013Z" fill="#6C63FF"/>
<path d="M123.656 318.394H110.801C110.453 318.395 110.107 318.323 109.785 318.181C109.463 318.04 109.17 317.831 108.923 317.568C108.676 317.305 108.48 316.992 108.347 316.648C108.213 316.303 108.144 315.934 108.144 315.561C108.144 315.188 108.213 314.819 108.347 314.475C108.48 314.13 108.676 313.818 108.923 313.554C109.17 313.291 109.463 313.083 109.785 312.941C110.107 312.799 110.453 312.727 110.801 312.729H123.656C124.356 312.731 125.026 313.031 125.521 313.562C126.015 314.093 126.292 314.812 126.292 315.561C126.292 316.311 126.015 317.029 125.521 317.56C125.026 318.091 124.356 318.391 123.656 318.394Z" fill="#CACACA"/>
<path d="M319.311 406.406C323.905 406.406 327.629 402.421 327.629 397.504C327.629 392.587 323.905 388.602 319.311 388.602C314.717 388.602 310.993 392.587 310.993 397.504C310.993 402.421 314.717 406.406 319.311 406.406Z" fill="white"/>
<path d="M315.19 353.821C309.496 353.821 302.697 351.219 296.612 346.202C285.874 337.349 281.362 324.276 286.555 317.061C291.748 309.846 304.709 311.18 315.447 320.033C320.636 324.312 324.543 329.689 326.448 335.175C328.365 340.693 328.029 345.665 325.503 349.174C323.253 352.3 319.544 353.821 315.19 353.821Z" fill="white"/>
<path d="M462.999 342.518C458.809 342.518 451.284 337.977 443.833 330.609C439.367 326.192 435.667 321.458 433.414 317.278C431.127 313.033 430.606 309.839 431.947 308.285C433.289 306.731 436.305 307.035 440.44 309.14C444.51 311.214 449.212 314.787 453.678 319.204C463.103 328.525 468.324 338.331 465.564 341.529C465.225 341.877 464.822 342.145 464.38 342.315C463.938 342.486 463.467 342.555 462.999 342.518Z" fill="white"/>
<path d="M111.629 290.004C111.539 290.004 111.449 290 111.358 289.991L84.0196 287.27C83.5208 287.221 83.0421 287.036 82.6289 286.732C82.2157 286.429 81.8817 286.018 81.6587 285.538C81.4356 285.058 81.3308 284.524 81.3543 283.989C81.3778 283.453 81.5287 282.933 81.7928 282.477L97.2091 255.875C97.4612 255.44 97.8088 255.077 98.2217 254.818C98.6347 254.559 99.1004 254.412 99.5785 254.39L119.969 253.427C120.438 253.405 120.905 253.503 121.331 253.714C121.757 253.924 122.13 254.241 122.418 254.637C122.707 255.033 122.902 255.497 122.989 255.991C123.076 256.484 123.05 256.993 122.916 257.474L114.448 287.759C114.265 288.407 113.892 288.975 113.385 289.38C112.877 289.784 112.262 290.003 111.629 290.004Z" fill="white"/>
<path d="M183.671 296.237C183.401 296.237 183.129 296.223 182.856 296.195L135.593 291.215C134.399 291.089 133.244 290.686 132.21 290.033C131.176 289.381 130.288 288.495 129.607 287.437C128.926 286.379 128.468 285.175 128.267 283.908C128.066 282.642 128.125 281.343 128.44 280.104L135.24 253.402C135.697 251.58 136.69 249.964 138.072 248.793C139.454 247.621 141.151 246.957 142.913 246.898L181.056 245.472C183.125 245.406 185.143 246.171 186.713 247.616C188.283 249.06 189.291 251.081 189.54 253.281L192.688 282.342C192.793 283.311 192.747 284.293 192.552 285.246L191.725 289.293C191.323 291.259 190.305 293.02 188.84 294.283C187.375 295.545 185.552 296.235 183.671 296.237Z" fill="white"/>
<path d="M220.557 297.642C219.174 297.638 217.833 297.134 216.75 296.213C215.667 295.291 214.906 294.006 214.59 292.565L206.252 253.992C206.044 253.031 206.042 252.033 206.245 251.071C206.448 250.109 206.851 249.208 207.425 248.436C207.998 247.664 208.727 247.04 209.557 246.612C210.387 246.183 211.297 245.96 212.219 245.96H311.091C311.911 245.962 312.722 246.139 313.477 246.481C314.232 246.823 314.915 247.323 315.487 247.951L347.782 283.589C348.611 284.504 349.174 285.659 349.399 286.911C349.625 288.164 349.504 289.459 349.052 290.639C348.6 291.819 347.836 292.833 346.854 293.555C345.872 294.277 344.714 294.677 343.523 294.706L220.693 297.641C220.648 297.642 220.602 297.642 220.557 297.642Z" fill="white"/>
<path d="M95.4011 250.816L96.2451 249.4C96.2451 249.4 101.16 234.832 168.836 232.404C236.512 229.976 299.651 231.19 314.018 244.544L197.192 244.139L98.5135 251.423L95.4011 250.816Z" fill="#6C63FF"/>
<path d="M63.3523 354.61C56.2528 354.61 50.4976 367.292 50.4976 382.936C50.4976 398.58 56.2528 411.262 63.3523 411.262C70.4517 411.262 76.2069 398.58 76.2069 382.936C76.2069 367.292 70.4517 354.61 63.3523 354.61ZM63.9194 360.68C65.4854 360.68 66.755 363.941 66.755 367.964C66.755 371.987 65.4854 375.248 63.9194 375.248C62.3533 375.248 61.0838 371.987 61.0838 367.964C61.0838 363.941 62.3533 360.68 63.9194 360.68ZM65.6207 382.936C65.6207 384.277 64.7743 385.364 63.7303 385.364C62.6864 385.364 61.8399 384.277 61.8399 382.936C61.8399 381.595 62.6864 380.508 63.7303 380.508C64.7743 380.508 65.6207 381.595 65.6207 382.936V382.936ZM55.7435 384.495C53.3123 384.696 51.2783 383.98 51.2 382.896C51.1218 381.812 53.029 380.77 55.4601 380.569C57.891 380.368 59.925 381.084 60.0033 382.168C60.0815 383.252 58.1743 384.294 55.7434 384.495L55.7435 384.495ZM63.9194 405.192C62.3534 405.192 61.0838 401.931 61.0838 397.909C61.0838 393.886 62.3534 390.625 63.9194 390.625C65.4854 390.625 66.755 393.886 66.755 397.909C66.755 401.931 65.4854 405.192 63.9194 405.192H63.9194ZM71.2447 384.495C68.8136 384.696 66.7795 383.98 66.7013 382.896C66.623 381.812 68.5302 380.77 70.9613 380.569C73.3922 380.368 75.4262 381.084 75.5045 382.168C75.5828 383.252 73.6756 384.294 71.2446 384.495L71.2447 384.495Z" fill="#E4E4E4"/>
<path d="M242.939 373.629C231.664 373.629 222.523 389.844 222.523 409.846C222.523 429.848 231.664 446.063 242.939 446.063C254.215 446.063 263.356 429.848 263.356 409.846C263.356 389.844 254.215 373.629 242.939 373.629ZM230.742 412.564C227.45 412.836 224.694 411.866 224.588 410.398C224.482 408.929 227.066 407.518 230.359 407.246C233.651 406.974 236.407 407.943 236.513 409.412C236.619 410.88 234.035 412.291 230.742 412.564ZM242.951 440.195C240.83 440.195 239.111 435.778 239.111 430.329C239.111 424.88 240.83 420.463 242.951 420.463C245.073 420.463 246.792 424.88 246.792 430.329C246.792 435.778 245.073 440.195 242.951 440.195ZM239.915 410.048C239.915 407.903 241.269 406.164 242.939 406.164C244.61 406.164 245.964 407.903 245.964 410.048C245.964 412.194 244.61 413.933 242.939 413.933C241.269 413.933 239.915 412.194 239.915 410.048ZM242.951 399.634C240.83 399.634 239.111 395.217 239.111 389.768C239.111 384.319 240.83 379.901 242.951 379.901C245.073 379.901 246.792 384.319 246.792 389.768C246.792 395.217 245.073 399.634 242.951 399.634ZM255.898 411.754C252.606 412.027 249.85 411.057 249.744 409.588C249.638 408.12 252.222 406.709 255.515 406.437C258.807 406.164 261.563 407.134 261.669 408.602C261.775 410.071 259.191 411.482 255.898 411.754Z" fill="#E4E4E4"/>
<path d="M171.483 301.196L176.02 312.526C176.02 312.526 183.581 315.763 188.496 304.838L178.537 294.178L171.483 301.196Z" fill="#CACACA"/>
<path d="M165.244 303.826C157.114 303.826 150.499 299.107 150.499 293.305C150.499 287.504 157.114 282.784 165.244 282.784C173.375 282.784 179.989 287.504 179.989 293.305C179.989 299.107 173.375 303.826 165.244 303.826Z" fill="#CACACA"/>
<path d="M449.561 340.852L365.03 343.497C365.03 343.497 346.53 349.051 344.642 364.919C344.642 364.919 347.285 377.878 354.081 377.878C360.877 377.878 465.077 372.06 465.077 372.06C465.077 372.06 471.873 360.952 466.21 353.018C460.546 345.084 449.561 340.852 449.561 340.852Z" fill="#3F3D56"/>
<path d="M456.879 345.908L357.748 349.416L357.786 350.629L456.916 347.121L456.879 345.908Z" fill="#E4E4E4"/>
<path d="M460.485 349.754L352.671 354.982L352.722 356.195L460.536 350.967L460.485 349.754Z" fill="#E4E4E4"/>
<path d="M464.258 354.979L348.639 361.624L348.7 362.836L464.319 356.191L464.258 354.979Z" fill="#E4E4E4"/>
<path d="M62.7514 328.085C62.2896 327.45 61.9635 326.715 61.7961 325.93C61.6287 325.146 61.624 324.332 61.7823 323.545C61.9407 322.759 62.2582 322.019 62.7126 321.378C63.167 320.737 63.7472 320.21 64.4123 319.835L63.3383 307.31L70.2906 304.755L71.5753 322.466C72.0903 323.704 72.163 325.101 71.7797 326.392C71.3964 327.684 70.5838 328.78 69.4958 329.473C68.4078 330.165 67.1201 330.407 65.8768 330.151C64.6335 329.896 63.5211 329.161 62.7504 328.086L62.7514 328.085Z" fill="#FFB8B8"/>
<path d="M70.2149 256.197C70.2149 256.197 74.9858 245.481 79.2254 249.248C83.465 253.015 73.413 284.704 73.413 284.704L71.8845 315.468L63.8274 314.606L61.5491 284.637L70.2149 256.197Z" fill="#E6E6E6"/>
<path d="M6.21909 414.744L12.2 419.926L33.7206 397.698L24.8935 390.053L6.21909 414.744Z" fill="#FFB8B8"/>
<path d="M6.27359 411.332L18.0524 421.536C20.043 423.261 21.3119 425.761 21.58 428.488C21.8481 431.214 21.0934 433.942 19.4819 436.073L19.2846 436.334L0 419.628L6.27359 411.332Z" fill="#2F2E41"/>
<path d="M89.3419 429.129H97.0368L100.696 397.359H89.3404L89.3419 429.129Z" fill="#FFB8B8"/>
<path d="M87.3784 426.44H102.533C105.094 426.44 107.551 427.529 109.362 429.467C111.173 431.405 112.191 434.034 112.191 436.775V437.112H87.3789L87.3784 426.44Z" fill="#2F2E41"/>
<path d="M102.844 280.2C102.844 280.2 117.28 299.008 114.142 317.82C111.004 336.633 108.493 350.739 108.493 350.739L103.474 393.06C103.474 393.06 105.357 404.588 102.846 407.557C102.846 407.557 106.612 414.558 99.7081 417.245C92.8038 419.932 89.0759 416.318 89.0759 416.318C89.0759 416.318 84.0138 408.513 87.1522 406.501L88.4745 323.437L38.1945 393.732C38.1945 393.732 37.2705 402.281 30.8279 402.374L23.1305 408.512L14.3431 403.136L18.7368 397.09C18.7368 397.09 16.2261 390.372 21.8751 389.028L54.5139 343.348L62.6736 319.835C62.6736 319.835 67.0673 301.697 78.993 294.307V286.445L102.844 280.2Z" fill="#2F2E41"/>
<path d="M78.0515 247.618C79.952 245.214 82.6121 243.643 85.5254 243.202C88.4386 242.762 91.4014 243.484 93.8493 245.231L94.3709 245.603C99.9421 252.356 103.687 260.608 105.201 269.469L107.551 283.224L78.0509 290.063L71.1352 264.535C70.2575 261.295 70.4687 257.828 71.7323 254.737C72.9958 251.646 75.2317 249.127 78.0509 247.619L78.0515 247.618Z" fill="#E6E6E6"/>
<path d="M126.519 331.01C125.701 330.723 124.951 330.249 124.323 329.619C123.695 328.99 123.204 328.22 122.884 327.365C122.564 326.511 122.423 325.591 122.471 324.672C122.519 323.752 122.754 322.855 123.161 322.044L114.651 310.897L119.719 303.709L131.53 319.632C132.758 320.454 133.662 321.73 134.07 323.217C134.478 324.705 134.363 326.301 133.745 327.703C133.127 329.105 132.051 330.216 130.719 330.826C129.387 331.435 127.892 331.5 126.518 331.01H126.519Z" fill="#FFB8B8"/>
<path d="M90.6043 257.695C90.6043 257.695 88.7213 244.259 94.998 244.931C101.275 245.603 110.69 282.551 110.69 282.551L127.637 312.782L119.477 317.484L99.3917 290.613L90.6043 257.695Z" fill="#E6E6E6"/>
<path d="M102.099 238.052H72.2097C71.5949 238.052 71.0055 237.79 70.5707 237.325C70.136 236.859 69.8914 236.229 69.8907 235.571V221.782C69.8907 216.881 71.7096 212.182 74.9471 208.716C78.1846 205.251 82.5757 203.305 87.1542 203.305C91.7328 203.305 96.1238 205.251 99.3613 208.716C102.599 212.182 104.418 216.881 104.418 221.782V235.571C104.417 236.229 104.172 236.859 103.738 237.325C103.303 237.79 102.714 238.052 102.099 238.052Z" fill="#2F2E41"/>
<path d="M90.7019 237.731C97.6921 237.731 103.359 231.666 103.359 224.185C103.359 216.703 97.6921 210.638 90.7019 210.638C83.7117 210.638 78.0449 216.703 78.0449 224.185C78.0449 231.666 83.7117 237.731 90.7019 237.731Z" fill="#FFB8B8"/>
<path d="M108.502 223.161H92.5729L92.4095 220.352L91.5927 223.161H89.1403L88.8167 217.594L87.1981 223.161H82.4524V222.885C82.4524 214.825 87.7917 208.269 94.3565 208.269H96.6023C103.165 208.269 108.506 214.825 108.506 222.885L108.502 223.161Z" fill="#2F2E41"/>
<path d="M93.2325 240.627C93.0379 240.626 92.8436 240.61 92.6512 240.579L73.6918 237.453V216.317C73.6918 214.158 74.4932 212.088 75.9196 210.561C77.3461 209.034 79.2808 208.177 81.2981 208.177H94.5626L94.0473 208.74C86.8584 216.572 92.2745 229.276 96.1426 236.152C96.4264 236.646 96.5546 237.225 96.5082 237.803C96.4618 238.381 96.2433 238.927 95.8849 239.362C95.5557 239.767 95.1479 240.09 94.6899 240.309C94.232 240.528 93.7349 240.637 93.2336 240.628L93.2325 240.627Z" fill="#2F2E41"/>
</g>
<path d="M489.389 141.9V134.5H497.939V141.9H489.389ZM488.989 166.9C488.989 165.6 489.172 162.633 489.539 158C489.939 153.333 490.306 149.417 490.639 146.25H496.639C496.972 149.417 497.322 153.333 497.689 158C498.089 162.633 498.289 165.6 498.289 166.9V168.9H488.989V166.9ZM505.163 125.6H522.463C525.829 125.6 528.346 126.317 530.013 127.75C531.679 129.183 532.513 131.35 532.513 134.25C532.513 136.683 532.029 138.533 531.063 139.8C530.129 141.033 528.613 141.883 526.513 142.35V142.55C528.779 143.05 530.396 143.9 531.363 145.1C532.329 146.3 532.813 148.217 532.813 150.85C532.813 153.883 531.996 156.167 530.363 157.7C528.763 159.233 526.113 160 522.413 160H505.163V125.6ZM519.313 139.3C520.546 139.3 521.463 139.217 522.063 139.05C522.663 138.85 523.079 138.517 523.313 138.05C523.546 137.583 523.663 136.883 523.663 135.95C523.663 134.983 523.546 134.267 523.313 133.8C523.113 133.333 522.713 133.017 522.113 132.85C521.546 132.683 520.613 132.6 519.313 132.6H513.813V139.3H519.313ZM519.563 153C520.829 153 521.763 152.917 522.363 152.75C522.963 152.55 523.379 152.217 523.613 151.75C523.846 151.283 523.963 150.55 523.963 149.55C523.963 148.517 523.846 147.75 523.613 147.25C523.413 146.75 522.996 146.417 522.363 146.25C521.763 146.05 520.829 145.95 519.563 145.95H513.813V153H519.563ZM538.351 129.45V122.85H546.601V129.45H538.351ZM538.401 160V134.5H546.551V160H538.401ZM575.058 149.25H559.808C559.808 150.85 559.925 151.967 560.158 152.6C560.425 153.233 560.975 153.65 561.808 153.85C562.675 154.05 564.208 154.15 566.408 154.15C568.775 154.15 571.325 154.017 574.058 153.75V159.5C572.992 159.767 571.558 159.983 569.758 160.15C567.992 160.317 566.242 160.4 564.508 160.4C560.608 160.4 557.758 159.983 555.958 159.15C554.192 158.283 553.058 156.983 552.558 155.25C552.058 153.517 551.808 150.867 551.808 147.3C551.808 143.8 552.058 141.167 552.558 139.4C553.058 137.633 554.142 136.317 555.808 135.45C557.508 134.55 560.158 134.1 563.758 134.1C567.358 134.1 569.942 134.533 571.508 135.4C573.108 136.233 574.092 137.5 574.458 139.2C574.858 140.867 575.058 143.567 575.058 147.3V149.25ZM563.708 139.95C562.508 139.95 561.642 140.067 561.108 140.3C560.575 140.533 560.225 141 560.058 141.7C559.892 142.367 559.808 143.5 559.808 145.1H567.508C567.508 143.5 567.408 142.35 567.208 141.65C567.008 140.95 566.658 140.5 566.158 140.3C565.658 140.067 564.842 139.95 563.708 139.95ZM595.693 146.55C595.693 144.683 595.609 143.383 595.443 142.65C595.309 141.917 595.026 141.45 594.593 141.25C594.159 141.05 593.359 140.95 592.193 140.95C591.059 140.95 590.226 141.117 589.693 141.45C589.193 141.75 588.859 142.283 588.693 143.05C588.526 143.817 588.443 145.033 588.443 146.7V160H580.393V134.5H588.043L588.243 137.55H588.693C589.993 135.25 592.443 134.1 596.043 134.1C598.209 134.1 599.843 134.483 600.943 135.25C602.076 135.983 602.826 137.05 603.193 138.45C603.559 139.817 603.743 141.683 603.743 144.05V160H595.693V146.55ZM615.036 160L607.436 134.5H615.636L620.336 152.6H620.836L625.436 134.5H633.486L625.886 160H615.036ZM659.14 149.25H643.89C643.89 150.85 644.007 151.967 644.24 152.6C644.507 153.233 645.057 153.65 645.89 153.85C646.757 154.05 648.29 154.15 650.49 154.15C652.857 154.15 655.407 154.017 658.14 153.75V159.5C657.074 159.767 655.64 159.983 653.84 160.15C652.074 160.317 650.324 160.4 648.59 160.4C644.69 160.4 641.84 159.983 640.04 159.15C638.274 158.283 637.14 156.983 636.64 155.25C636.14 153.517 635.89 150.867 635.89 147.3C635.89 143.8 636.14 141.167 636.64 139.4C637.14 137.633 638.224 136.317 639.89 135.45C641.59 134.55 644.24 134.1 647.84 134.1C651.44 134.1 654.024 134.533 655.59 135.4C657.19 136.233 658.174 137.5 658.54 139.2C658.94 140.867 659.14 143.567 659.14 147.3V149.25ZM647.79 139.95C646.59 139.95 645.724 140.067 645.19 140.3C644.657 140.533 644.307 141 644.14 141.7C643.974 142.367 643.89 143.5 643.89 145.1H651.59C651.59 143.5 651.49 142.35 651.29 141.65C651.09 140.95 650.74 140.5 650.24 140.3C649.74 140.067 648.924 139.95 647.79 139.95ZM679.775 146.55C679.775 144.683 679.691 143.383 679.525 142.65C679.391 141.917 679.108 141.45 678.675 141.25C678.241 141.05 677.441 140.95 676.275 140.95C675.141 140.95 674.308 141.117 673.775 141.45C673.275 141.75 672.941 142.283 672.775 143.05C672.608 143.817 672.525 145.033 672.525 146.7V160H664.475V134.5H672.125L672.325 137.55H672.775C674.075 135.25 676.525 134.1 680.125 134.1C682.291 134.1 683.925 134.483 685.025 135.25C686.158 135.983 686.908 137.05 687.275 138.45C687.641 139.817 687.825 141.683 687.825 144.05V160H679.775V146.55ZM693.868 129.45V122.85H702.118V129.45H693.868ZM693.918 160V134.5H702.068V160H693.918ZM715.676 160.4C713.609 160.4 711.976 160.017 710.776 159.25C709.609 158.483 708.743 157.167 708.176 155.3C707.609 153.4 707.326 150.75 707.326 147.35C707.326 143.917 707.593 141.25 708.126 139.35C708.693 137.45 709.559 136.117 710.726 135.35C711.926 134.55 713.559 134.15 715.626 134.15C717.326 134.15 718.743 134.367 719.876 134.8C721.043 135.2 721.993 136 722.726 137.2H723.126V122.85H731.176V160H723.526L723.326 157H722.926C722.226 158.3 721.259 159.2 720.026 159.7C718.793 160.167 717.343 160.4 715.676 160.4ZM719.276 153.6C720.309 153.6 721.076 153.483 721.576 153.25C722.076 152.983 722.443 152.533 722.676 151.9C722.876 151.367 722.993 150.75 723.026 150.05C723.093 149.35 723.126 148.417 723.126 147.25C723.126 145.05 722.993 143.55 722.726 142.75C722.493 142.05 722.126 141.583 721.626 141.35C721.126 141.083 720.343 140.95 719.276 140.95C718.009 140.95 717.126 141.083 716.626 141.35C716.126 141.583 715.793 142.117 715.626 142.95C715.459 143.75 715.376 145.183 715.376 147.25C715.376 149.35 715.459 150.817 715.626 151.65C715.793 152.45 716.126 152.983 716.626 153.25C717.126 153.483 718.009 153.6 719.276 153.6ZM748.478 160.4C744.678 160.4 741.944 160.033 740.278 159.3C738.611 158.533 737.544 157.3 737.078 155.6C736.644 153.867 736.428 151.083 736.428 147.25C736.428 143.383 736.644 140.6 737.078 138.9C737.544 137.2 738.611 135.983 740.278 135.25C741.944 134.483 744.678 134.1 748.478 134.1C752.278 134.1 755.011 134.483 756.678 135.25C758.344 135.983 759.394 137.2 759.828 138.9C760.294 140.6 760.528 143.383 760.528 147.25C760.528 151.083 760.294 153.867 759.828 155.6C759.394 157.3 758.344 158.533 756.678 159.3C755.011 160.033 752.278 160.4 748.478 160.4ZM748.478 154.15C749.878 154.15 750.828 154.017 751.328 153.75C751.861 153.45 752.178 152.883 752.278 152.05C752.411 151.217 752.478 149.617 752.478 147.25C752.478 144.85 752.411 143.233 752.278 142.4C752.178 141.567 751.861 141.017 751.328 140.75C750.828 140.483 749.878 140.35 748.478 140.35C747.078 140.35 746.111 140.483 745.578 140.75C745.078 141.017 744.761 141.567 744.628 142.4C744.528 143.233 744.478 144.85 744.478 147.25C744.478 149.617 744.528 151.217 744.628 152.05C744.761 152.883 745.078 153.45 745.578 153.75C746.111 154.017 747.078 154.15 748.478 154.15ZM784.591 160.4C782.091 160.4 780.241 159.8 779.041 158.6C777.841 157.4 777.241 155.433 777.241 152.7C777.241 150.7 777.474 149.15 777.941 148.05C778.407 146.95 779.207 146.15 780.341 145.65C781.507 145.15 783.174 144.9 785.341 144.9C786.974 144.9 789.324 144.967 792.391 145.1V144.2C792.391 142.933 792.241 142.05 791.941 141.55C791.674 141.017 791.141 140.683 790.341 140.55C789.574 140.417 788.191 140.35 786.191 140.35C783.691 140.35 781.207 140.483 778.741 140.75V134.95C781.874 134.383 785.207 134.1 788.741 134.1C792.241 134.1 794.807 134.467 796.441 135.2C798.107 135.933 799.191 137.017 799.691 138.45C800.191 139.883 800.441 141.95 800.441 144.65V160H792.741L792.541 157.05H792.141C791.274 158.417 790.224 159.317 788.991 159.75C787.757 160.183 786.291 160.4 784.591 160.4ZM788.391 154.55C789.324 154.55 790.057 154.45 790.591 154.25C791.124 154.05 791.541 153.7 791.841 153.2C792.207 152.567 792.391 151.533 792.391 150.1V149.1H787.841C786.941 149.1 786.291 149.167 785.891 149.3C785.491 149.433 785.207 149.7 785.041 150.1C784.907 150.467 784.841 151.083 784.841 151.95C784.841 152.683 784.924 153.233 785.091 153.6C785.257 153.967 785.574 154.217 786.041 154.35C786.541 154.483 787.324 154.55 788.391 154.55Z" fill="black"/>
<path d="M426.309 217.28H442.104C448.691 217.28 453.392 217.952 456.209 219.295C459.026 220.595 460.781 222.675 461.474 225.535C462.167 228.352 462.514 233.053 462.514 239.64C462.514 246.227 462.167 250.95 461.474 253.81C460.781 256.627 459.026 258.707 456.209 260.05C453.392 261.35 448.691 262 442.104 262H426.309V217.28ZM441.844 252.835C445.181 252.835 447.391 252.64 448.474 252.25C449.601 251.817 450.294 250.82 450.554 249.26C450.857 247.657 451.009 244.45 451.009 239.64C451.009 234.873 450.857 231.688 450.554 230.085C450.251 228.482 449.536 227.485 448.409 227.095C447.326 226.662 445.137 226.445 441.844 226.445H437.554V252.835H441.844ZM470.026 228.85H479.971L480.231 234.505H480.816C481.639 232.208 482.874 230.605 484.521 229.695C486.168 228.785 488.378 228.33 491.151 228.33V238.21C488.334 238.21 486.168 238.557 484.651 239.25C483.178 239.9 482.116 241.048 481.466 242.695C480.816 244.342 480.491 246.682 480.491 249.715V262H470.026V228.85ZM496.494 222.285V213.705H507.219V222.285H496.494ZM496.559 262V228.85H507.154V262H496.559ZM521.854 262L511.974 228.85H522.634L528.744 252.38H529.394L535.374 228.85H545.839L535.959 262H521.854ZM550.64 222.285V213.705H561.365V222.285H550.64ZM550.705 262V228.85H561.3V262H550.705ZM589.13 244.515C589.13 242.088 589.022 240.398 588.805 239.445C588.632 238.492 588.263 237.885 587.7 237.625C587.137 237.365 586.097 237.235 584.58 237.235C583.107 237.235 582.023 237.452 581.33 237.885C580.68 238.275 580.247 238.968 580.03 239.965C579.813 240.962 579.705 242.543 579.705 244.71V262H569.24V228.85H579.185L579.445 232.815H580.03C581.72 229.825 584.905 228.33 589.585 228.33C592.402 228.33 594.525 228.828 595.955 229.825C597.428 230.778 598.403 232.165 598.88 233.985C599.357 235.762 599.595 238.188 599.595 241.265V262H589.13V244.515ZM620.776 275.39C618.74 275.39 616.616 275.303 614.406 275.13C612.196 274.957 610.42 274.762 609.076 274.545V267.135C612.63 267.222 615.641 267.265 618.111 267.265C621.058 267.265 623.095 267.113 624.221 266.81C625.391 266.507 626.128 265.9 626.431 264.99C626.778 264.08 626.951 262.477 626.951 260.18V257.775H626.496C625.586 259.335 624.373 260.397 622.856 260.96C621.34 261.523 619.498 261.805 617.331 261.805C614.601 261.805 612.456 261.307 610.896 260.31C609.336 259.313 608.188 257.623 607.451 255.24C606.758 252.857 606.411 249.477 606.411 245.1C606.411 240.723 606.78 237.322 607.516 234.895C608.253 232.468 609.401 230.778 610.961 229.825C612.521 228.828 614.645 228.33 617.331 228.33C619.411 228.33 621.253 228.655 622.856 229.305C624.503 229.955 625.781 231.125 626.691 232.815H627.211L627.471 228.85H637.416V258.23C637.416 262.693 637.07 266.073 636.376 268.37C635.726 270.667 634.21 272.4 631.826 273.57C629.486 274.783 625.803 275.39 620.776 275.39ZM621.946 253.03C623.203 253.03 624.156 252.9 624.806 252.64C625.456 252.337 625.933 251.817 626.236 251.08C626.54 250.473 626.735 249.737 626.821 248.87C626.908 247.96 626.951 246.703 626.951 245.1C626.951 243.54 626.908 242.327 626.821 241.46C626.735 240.55 626.54 239.813 626.236 239.25C625.933 238.47 625.456 237.928 624.806 237.625C624.156 237.322 623.203 237.17 621.946 237.17C620.3 237.17 619.151 237.322 618.501 237.625C617.851 237.928 617.418 238.6 617.201 239.64C616.985 240.68 616.876 242.5 616.876 245.1C616.876 247.7 616.985 249.52 617.201 250.56C617.418 251.6 617.851 252.272 618.501 252.575C619.151 252.878 620.3 253.03 621.946 253.03ZM678.885 262.52C672.559 262.52 666.947 262.152 662.05 261.415V252.575C667.337 253.095 671.8 253.355 675.44 253.355C677.564 253.355 679.189 253.268 680.315 253.095C681.442 252.922 682.244 252.64 682.72 252.25C683.154 251.903 683.414 251.492 683.5 251.015C683.63 250.495 683.695 249.78 683.695 248.87C683.695 247.787 683.609 247.007 683.435 246.53C683.262 246.053 682.915 245.728 682.395 245.555C681.875 245.338 680.965 245.143 679.665 244.97L671.41 243.93C668.464 243.583 666.21 242.847 664.65 241.72C663.134 240.55 662.094 239.055 661.53 237.235C661.01 235.415 660.75 233.14 660.75 230.41C660.75 226.553 661.465 223.628 662.895 221.635C664.325 219.642 666.232 218.342 668.615 217.735C671.042 217.085 674.119 216.76 677.845 216.76C680.575 216.76 683.067 216.868 685.32 217.085C687.617 217.302 690.109 217.648 692.795 218.125V226.77C687.639 226.207 683.414 225.925 680.12 225.925C676.654 225.925 674.4 226.185 673.36 226.705C672.797 226.965 672.429 227.333 672.255 227.81C672.125 228.287 672.06 228.958 672.06 229.825C672.06 230.908 672.125 231.688 672.255 232.165C672.429 232.598 672.754 232.923 673.23 233.14C673.75 233.313 674.639 233.487 675.895 233.66L685.385 234.83C687.292 235.047 688.852 235.437 690.065 236C691.322 236.563 692.362 237.517 693.185 238.86C694.442 240.723 695.07 243.692 695.07 247.765C695.07 252.012 694.399 255.218 693.055 257.385C691.712 259.508 689.914 260.895 687.66 261.545C685.407 262.195 682.482 262.52 678.885 262.52ZM725.433 261.415C722.183 262.152 718.825 262.52 715.358 262.52C710.981 262.52 707.753 261.892 705.673 260.635C703.636 259.335 702.336 257.537 701.773 255.24C701.21 252.943 700.928 249.672 700.928 245.425C700.928 241.308 701.21 238.102 701.773 235.805C702.38 233.465 703.701 231.645 705.738 230.345C707.818 229.002 711.003 228.33 715.293 228.33C719.02 228.33 722.313 228.698 725.173 229.435V236.975C722.833 236.628 720.471 236.455 718.088 236.455C716.051 236.455 714.578 236.693 713.668 237.17C712.801 237.603 712.216 238.405 711.913 239.575C711.653 240.745 711.523 242.695 711.523 245.425C711.523 248.155 711.653 250.127 711.913 251.34C712.216 252.51 712.801 253.312 713.668 253.745C714.578 254.178 716.073 254.395 718.153 254.395C720.45 254.395 722.876 254.222 725.433 253.875V261.415ZM751.884 244.515C751.884 242.088 751.775 240.398 751.559 239.445C751.385 238.492 751.017 237.885 750.454 237.625C749.89 237.365 748.85 237.235 747.334 237.235C745.86 237.235 744.777 237.452 744.084 237.885C743.434 238.275 743 238.968 742.784 239.965C742.567 240.962 742.459 242.543 742.459 244.71V262H731.994V213.705H742.459V232.685H742.979C743.889 231.125 745.124 230.02 746.684 229.37C748.287 228.677 750.172 228.33 752.339 228.33C755.155 228.33 757.279 228.828 758.709 229.825C760.182 230.778 761.157 232.165 761.634 233.985C762.11 235.762 762.349 238.188 762.349 241.265V262H751.884V244.515ZM784.83 262.52C779.89 262.52 776.337 262.043 774.17 261.09C772.004 260.093 770.617 258.49 770.01 256.28C769.447 254.027 769.165 250.408 769.165 245.425C769.165 240.398 769.447 236.78 770.01 234.57C770.617 232.36 772.004 230.778 774.17 229.825C776.337 228.828 779.89 228.33 784.83 228.33C789.77 228.33 793.324 228.828 795.49 229.825C797.657 230.778 799.022 232.36 799.585 234.57C800.192 236.78 800.495 240.398 800.495 245.425C800.495 250.408 800.192 254.027 799.585 256.28C799.022 258.49 797.657 260.093 795.49 261.09C793.324 262.043 789.77 262.52 784.83 262.52ZM784.83 254.395C786.65 254.395 787.885 254.222 788.535 253.875C789.229 253.485 789.64 252.748 789.77 251.665C789.944 250.582 790.03 248.502 790.03 245.425C790.03 242.305 789.944 240.203 789.77 239.12C789.64 238.037 789.229 237.322 788.535 236.975C787.885 236.628 786.65 236.455 784.83 236.455C783.01 236.455 781.754 236.628 781.06 236.975C780.41 237.322 779.999 238.037 779.825 239.12C779.695 240.203 779.63 242.305 779.63 245.425C779.63 248.502 779.695 250.582 779.825 251.665C779.999 252.748 780.41 253.485 781.06 253.875C781.754 254.222 783.01 254.395 784.83 254.395ZM821.9 262.52C816.96 262.52 813.407 262.043 811.24 261.09C809.074 260.093 807.687 258.49 807.08 256.28C806.517 254.027 806.235 250.408 806.235 245.425C806.235 240.398 806.517 236.78 807.08 234.57C807.687 232.36 809.074 230.778 811.24 229.825C813.407 228.828 816.96 228.33 821.9 228.33C826.84 228.33 830.394 228.828 832.56 229.825C834.727 230.778 836.092 232.36 836.655 234.57C837.262 236.78 837.565 240.398 837.565 245.425C837.565 250.408 837.262 254.027 836.655 256.28C836.092 258.49 834.727 260.093 832.56 261.09C830.394 262.043 826.84 262.52 821.9 262.52ZM821.9 254.395C823.72 254.395 824.955 254.222 825.605 253.875C826.299 253.485 826.71 252.748 826.84 251.665C827.014 250.582 827.1 248.502 827.1 245.425C827.1 242.305 827.014 240.203 826.84 239.12C826.71 238.037 826.299 237.322 825.605 236.975C824.955 236.628 823.72 236.455 821.9 236.455C820.08 236.455 818.824 236.628 818.13 236.975C817.48 237.322 817.069 238.037 816.895 239.12C816.765 240.203 816.7 242.305 816.7 245.425C816.7 248.502 816.765 250.582 816.895 251.665C817.069 252.748 817.48 253.485 818.13 253.875C818.824 254.222 820.08 254.395 821.9 254.395ZM844.411 262V213.705H855.006V262H844.411ZM866.326 246.725C865.893 242.348 865.416 237.192 864.896 231.255C864.376 225.318 864.116 221.527 864.116 219.88V217.28H876.206V219.88C876.206 221.57 875.946 225.448 875.426 231.515C874.949 237.538 874.494 242.608 874.061 246.725H866.326ZM864.636 262V252.38H875.751V262H864.636Z" fill="#6C63FE"/>
<defs>
<clipPath id="clip0">
<rect width="588" height="458" fill="white"/>
</clipPath>
</defs>
</svg>
