<svg width="434" height="298" viewBox="0 0 434 298" fill="none" xmlns="http://www.w3.org/2000/svg">
<g clip-path="url(#clip0)">
<path d="M404.603 280.651C404.485 286.018 403.75 291.339 402.419 296.455C402.389 296.574 402.357 296.691 402.325 296.81H394.176C394.184 296.703 394.193 296.585 394.202 296.455C394.745 288.815 391.641 242.87 387.896 234.919C388.224 235.564 405.234 256.375 404.603 280.651Z" fill="#F1F1F1"/>
<path d="M403.991 296.455C403.923 296.574 403.852 296.693 403.78 296.81H397.666C397.712 296.709 397.766 296.59 397.828 296.455C398.838 294.226 401.827 287.561 404.602 280.651C407.583 273.225 410.32 265.518 410.089 262.729C410.16 263.358 412.224 282.537 403.991 296.455Z" fill="#F1F1F1"/>
<path d="M22.5516 284.809C22.639 288.795 23.185 292.747 24.1735 296.547C24.1954 296.635 24.2198 296.722 24.2435 296.81H30.2955C30.2892 296.731 30.2826 296.643 30.2762 296.547C29.8727 290.872 32.178 256.75 34.9598 250.844C34.7161 251.323 22.0824 266.779 22.5516 284.809Z" fill="#F1F1F1"/>
<path d="M23.0058 296.547C23.0564 296.635 23.109 296.723 23.1629 296.81H27.7034C27.669 296.735 27.6291 296.647 27.5828 296.547C26.8328 294.891 24.6128 289.941 22.5521 284.809C20.3384 279.294 18.3058 273.57 18.477 271.498C18.4239 271.965 16.8915 286.209 23.0058 296.547Z" fill="#F1F1F1"/>
<path d="M318.225 209.032C272.515 185.338 231.161 186.239 192.209 200.7C132.192 187.88 91.0952 189.863 64.7337 209.032V149.521H318.225V209.032Z" fill="#CBCBCB"/>
<path d="M318.225 192.666C276.113 169.327 234.052 167.821 191.358 192.666C147.628 177.266 105.354 177.427 64.4905 192.666V11.7534C107.936 -4.10681 150.198 -3.72568 191.358 11.7534C234.836 -3.67222 277.163 -4.16144 318.225 11.7534V192.666Z" fill="#E5E5E5"/>
<path d="M75.9025 34.2044L74.486 29.7699C75.0412 29.5046 88.3076 23.2315 107.777 20.0317C125.778 17.0727 152.596 16.3663 178.138 29.8001L176.601 34.1739C151.912 21.1896 125.887 21.8734 108.402 24.7327C89.3694 27.8456 76.035 34.1411 75.9025 34.2044Z" fill="white"/>
<path d="M75.9025 50.8674L74.486 46.4329C75.0412 46.1676 88.3076 39.8945 107.777 36.6947C125.778 33.736 152.596 33.0296 178.138 46.4631L176.601 50.8369C151.912 37.8526 125.887 38.5358 108.402 41.3957C89.3694 44.5087 76.035 50.8041 75.9025 50.8674Z" fill="white"/>
<path d="M75.9025 67.5304L74.486 63.0959C75.0412 62.8306 88.3076 56.5576 107.777 53.3577C125.778 50.3987 152.596 49.6923 178.138 63.1261L176.601 67.4999C151.912 54.5157 125.887 55.1988 108.402 58.0587C89.3694 61.1717 76.035 67.4671 75.9025 67.5304Z" fill="white"/>
<path d="M75.9025 84.1935L74.486 79.7589C75.0412 79.4936 88.3076 73.2206 107.777 70.0207C125.778 67.0623 152.596 66.355 178.138 79.7891L176.601 84.163C151.912 71.1787 125.887 71.8621 108.402 74.7217C89.3694 77.8347 76.035 84.1301 75.9025 84.1935Z" fill="white"/>
<path d="M75.9025 100.856L74.486 96.4219C75.0412 96.1566 88.3076 89.8836 107.777 86.6837C125.778 83.7247 152.596 83.0183 178.138 96.4521L176.601 100.826C151.912 87.8414 125.887 88.5251 108.402 91.3847C89.3694 94.4977 76.035 100.793 75.9025 100.856Z" fill="white"/>
<path d="M75.9025 117.519L74.486 113.085C75.0412 112.82 88.3076 106.547 107.777 103.347C125.778 100.388 152.596 99.6813 178.138 113.115L176.601 117.489C151.912 104.504 125.887 105.188 108.402 108.048C89.3694 111.161 76.035 117.456 75.9025 117.519Z" fill="white"/>
<path d="M202.891 152.631L201.475 148.196C202.03 147.931 215.296 141.658 234.766 138.458C252.766 135.5 279.585 134.793 305.127 148.226L303.589 152.6C278.901 139.616 252.876 140.3 235.39 143.159C216.358 146.272 203.024 152.567 202.891 152.631Z" fill="#6C63FF"/>
<path d="M201.697 120.651V29.6417L203.063 29.1199C237.677 15.8947 272.124 15.8973 305.446 29.1277L306.791 29.6618V120.53L304.158 119.314C269.482 103.307 235.914 103.297 204.388 119.286L201.697 120.651ZM253.058 102.53C269.35 102.53 285.964 106.245 302.899 113.674V33.1296C271.217 20.9092 238.491 20.9159 205.589 33.149V113.563C220.707 106.278 236.81 102.536 253.058 102.53Z" fill="white"/>
<path d="M302.979 150.273L303.489 135.127L320.979 92.5946C321.472 91.3854 322.276 90.4076 323.267 89.8115C323.874 89.441 324.536 89.2224 325.213 89.1683C325.89 89.1142 326.569 89.2258 327.21 89.4965C327.953 89.8099 328.627 90.3288 329.179 91.013C329.731 91.6971 330.146 92.528 330.392 93.4407C330.498 93.8348 330.572 94.2404 330.614 94.652C330.738 95.8733 330.562 97.1122 330.107 98.21L312.593 140.8L302.979 150.273Z" fill="#6C63FF"/>
<path d="M325.445 89.4537L306.46 135.622L305.013 134.732L323.375 90.0785C324.018 89.6845 324.726 89.471 325.445 89.4537Z" fill="#3F3D56"/>
<path d="M330.372 94.6897L312.111 139.098L310.664 138.208L329.609 92.1352C329.842 92.5699 330.028 93.0402 330.161 93.534C330.262 93.91 330.333 94.297 330.372 94.6897Z" fill="#3F3D56"/>
<path d="M328.554 90.7269L309.36 137.406L307.912 136.515L327.131 89.778C327.336 89.8636 327.536 89.9665 327.729 90.0858C328.021 90.2657 328.297 90.4805 328.554 90.7269Z" fill="#3F3D56"/>
<path d="M305.175 147.728L303.243 149.63L303.405 144.614C304.069 144.896 304.787 146.117 305.175 147.728Z" fill="#3F3D56"/>
<path d="M114.667 202.398L112.354 193.82L114.818 165.611C114.886 164.81 115.166 164.058 115.617 163.471C115.892 163.109 116.224 162.818 116.592 162.614C116.961 162.41 117.358 162.298 117.763 162.284C118.231 162.269 118.695 162.385 119.12 162.625C119.546 162.865 119.92 163.222 120.213 163.668C120.34 163.861 120.451 164.068 120.545 164.287C120.823 164.936 120.937 165.673 120.872 166.402L118.405 194.649L114.667 202.398Z" fill="#6C63FF"/>
<path d="M116.771 162.713L114.097 193.334L113.137 193.208L115.723 163.593C116.014 163.208 116.372 162.908 116.771 162.713Z" fill="#3F3D56"/>
<path d="M120.416 164.37L117.844 193.824L116.884 193.698L119.553 163.141C119.757 163.324 119.942 163.538 120.101 163.78C120.221 163.964 120.327 164.161 120.416 164.37Z" fill="#3F3D56"/>
<path d="M118.723 162.626L116.02 193.585L115.06 193.46L117.766 162.462C117.895 162.457 118.024 162.463 118.153 162.48C118.346 162.506 118.537 162.555 118.723 162.626Z" fill="#3F3D56"/>
<path d="M115.455 200.416L114.704 201.972L113.934 199.133C114.352 199.12 114.962 199.617 115.455 200.416Z" fill="#3F3D56"/>
<path d="M365.124 192.338C364.861 192.902 364.509 193.396 364.09 193.793C363.67 194.191 363.191 194.483 362.679 194.654C361.644 194.998 360.541 194.826 359.611 194.176C358.68 193.525 357.999 192.449 357.717 191.184C357.436 189.919 357.576 188.569 358.108 187.431C358.117 187.412 358.126 187.393 358.136 187.374C358.249 187.142 358.376 186.921 358.516 186.713L355.117 157.08L355.015 156.192L354.325 150.145L354.223 149.273L354.599 149.295L361.185 149.663L362.951 149.761L363.172 155.277L364.425 186.291C365.079 187.057 365.504 188.07 365.631 189.166C365.758 190.263 365.579 191.38 365.124 192.338H365.124Z" fill="#FFB8B8"/>
<path d="M355.035 156.46L363.398 155.522C363.831 155.472 364.231 155.214 364.51 154.805C364.789 154.395 364.924 153.868 364.887 153.337L363.338 132.066C363.188 130.017 362.379 128.125 361.089 126.806C359.799 125.486 358.133 124.848 356.458 125.031C354.783 125.214 353.236 126.203 352.157 127.781C351.079 129.359 350.557 131.396 350.706 133.445C350.717 133.592 350.731 133.738 350.749 133.883L353.256 154.747C353.314 155.225 353.51 155.662 353.809 155.978C354.108 156.294 354.489 156.468 354.884 156.469C354.935 156.47 354.985 156.467 355.035 156.46Z" fill="#CBCBCB"/>
<path d="M361.374 139.276C362.22 136.346 362.259 133.157 361.485 130.197C360.712 127.237 359.168 124.667 357.09 122.88C353.936 120.24 349.621 119.293 344.974 126.06C339.35 134.321 335.339 144.041 333.245 154.481L352.276 158.271C352.276 158.271 358.749 148.594 361.374 139.276Z" fill="#CBCBCB"/>
<path d="M330.592 291.725H325.166L322.585 266.125H330.593L330.592 291.725Z" fill="#FFB8B8"/>
<path d="M314.702 297.887H331.756V289.828H321.291C319.544 289.828 317.868 290.677 316.632 292.189C315.397 293.7 314.702 295.75 314.702 297.887Z" fill="#2F2E41"/>
<path d="M375.204 285.936L370.052 288.019L361.032 264.704L368.635 261.63L375.204 285.936Z" fill="#FFB8B8"/>
<path d="M361.697 297.887L377.889 291.341L375.821 283.689L365.885 287.706C364.226 288.377 362.852 289.826 362.067 291.736C361.282 293.645 361.148 295.858 361.697 297.887Z" fill="#2F2E41"/>
<path d="M349.427 116.167C355.43 116.167 360.297 110.214 360.297 102.871C360.297 95.5277 355.43 89.5748 349.427 89.5748C343.423 89.5748 338.556 95.5277 338.556 102.871C338.556 110.214 343.423 116.167 349.427 116.167Z" fill="#FFB8B8"/>
<path d="M339.908 284.599L344.947 243.919C345.001 243.485 345.177 243.087 345.444 242.793C345.711 242.5 346.053 242.329 346.411 242.31C346.77 242.291 347.123 242.425 347.41 242.688C347.697 242.952 347.9 243.33 347.985 243.757L355.658 282.524C355.779 283.118 356.077 283.635 356.494 283.974C356.911 284.313 357.416 284.45 357.91 284.357L379.078 280.196C379.358 280.141 379.626 280.013 379.863 279.82C380.1 279.628 380.3 279.376 380.451 279.081C380.602 278.786 380.699 278.456 380.736 278.111C380.774 277.766 380.75 277.416 380.668 277.083L353.067 165.78C352.989 165.464 352.979 165.128 353.04 164.806L353.959 159.934C354.06 159.406 354.013 158.851 353.826 158.359C353.64 157.867 353.324 157.466 352.929 157.219C349.17 154.874 339.651 149.997 332.467 155.339C332.234 155.513 332.032 155.743 331.874 156.015C331.716 156.288 331.604 156.597 331.547 156.923L309.985 280.877C309.927 281.214 309.927 281.563 309.987 281.9C310.046 282.236 310.163 282.554 310.331 282.831C310.498 283.108 310.712 283.339 310.957 283.508C311.203 283.677 311.475 283.78 311.756 283.811L337.761 286.659C337.82 286.666 337.879 286.669 337.938 286.669C338.415 286.668 338.875 286.459 339.236 286.079C339.597 285.699 339.835 285.174 339.907 284.599L339.908 284.599Z" fill="#2F2E41"/>
<path d="M356.635 93.4769C355.815 92.874 355.088 92.1009 354.486 91.1924C354.189 90.7334 353.993 90.1884 353.918 89.61C353.843 89.0316 353.89 88.4393 354.057 87.8901C354.606 86.4079 356.238 85.9413 357.503 86.4442C358.768 86.9471 359.744 88.1614 360.669 89.3312C361.483 90.3598 362.32 91.4382 362.705 92.791C363.089 94.1439 362.892 95.8594 361.932 96.6806C360.989 97.4862 359.634 97.1565 358.727 96.2914C357.871 95.3455 357.189 94.1888 356.725 92.8972L356.635 93.4769Z" fill="#2F2E41"/>
<path d="M360.317 89.6885C360.377 85.9423 363.868 83.2556 366.884 83.9198C369.899 84.5841 372.217 87.7283 373.377 91.1962C375.828 98.5234 373.988 106.884 371.626 114.258C369.264 121.632 366.341 129.112 366.686 137.018C366.919 141.291 368.092 145.408 370.08 148.934C372.067 152.459 374.797 155.263 377.979 157.048C374.577 158.935 370.509 156.986 367.649 154.045C361.299 147.513 358.848 135.885 361.824 126.412C363.292 121.739 365.88 117.742 367.9 113.389C369.92 109.036 371.402 103.906 370.359 99.0653C369.316 94.2251 364.877 90.3067 361.083 92.1793L360.317 89.6885Z" fill="#2F2E41"/>
<path d="M348.775 108.771C349.722 106.813 350.678 104.241 348.946 102.529C348.57 102.174 348.139 101.914 347.679 101.765C347.219 101.616 346.74 101.582 346.269 101.663C344.316 101.951 342.189 102.069 340.299 101.202C339.59 100.903 338.937 100.433 338.38 99.8205C337.822 99.2076 337.371 98.4639 337.052 97.6334C336.079 94.8054 337.299 91.3689 339.338 89.5813C340.586 88.5275 342.061 87.9478 343.577 87.9149C345.094 87.8821 346.584 88.3976 347.862 89.3967C350.504 87.9692 353.71 88.6042 356.111 90.5693C358.511 92.5344 360.154 95.6813 361.046 99.0415C361.868 101.934 362.01 105.05 361.455 108.036C361.008 110.113 360.159 112.028 358.979 113.619C357.799 115.209 356.323 116.429 354.676 117.174C354.034 117.483 353.338 117.581 352.655 117.458C351.973 117.334 351.33 116.993 350.789 116.47C349.91 115.506 349.235 114.296 348.822 112.943C348.461 111.462 348.269 109.818 348.775 108.771Z" fill="#2F2E41"/>
<path d="M316.526 120.636C316.58 120.928 316.616 121.225 316.632 121.523L335.644 134.939L340.266 131.685L345.192 139.574L337.469 146.307C336.845 146.851 336.093 147.133 335.327 147.11C334.561 147.087 333.822 146.761 333.22 146.18L313.613 127.262C312.728 127.663 311.764 127.725 310.849 127.44C309.935 127.154 309.113 126.535 308.493 125.664C307.873 124.794 307.485 123.713 307.38 122.565C307.275 121.418 307.458 120.259 307.904 119.242C308.351 118.225 309.04 117.399 309.88 116.872C310.721 116.346 311.672 116.146 312.607 116.297C313.543 116.448 314.419 116.944 315.118 117.719C315.818 118.494 316.308 119.512 316.523 120.636L316.526 120.636Z" fill="#FFB8B8"/>
<path d="M336.28 135.575L342.426 145.316C342.6 145.593 342.822 145.82 343.075 145.983C343.328 146.146 343.607 146.24 343.893 146.259C344.178 146.278 344.464 146.222 344.73 146.094C344.996 145.966 345.237 145.77 345.435 145.518L352.392 136.682C352.977 136.153 353.471 135.487 353.845 134.724C354.22 133.961 354.467 133.114 354.574 132.234C354.681 131.353 354.644 130.455 354.467 129.592C354.289 128.729 353.974 127.917 353.539 127.202C353.105 126.488 352.559 125.886 351.934 125.43C351.309 124.974 350.616 124.674 349.896 124.546C349.176 124.418 348.442 124.465 347.737 124.685C347.031 124.904 346.368 125.292 345.785 125.825C345.725 125.88 345.666 125.936 345.608 125.994L336.883 131.961C336.634 132.132 336.417 132.367 336.248 132.649C336.079 132.932 335.962 133.256 335.905 133.599C335.847 133.942 335.851 134.296 335.916 134.637C335.98 134.978 336.104 135.298 336.279 135.575H336.28Z" fill="#CBCBCB"/>
<path d="M101.47 290.894L107.369 290.893L110.175 263.065L101.469 263.066L101.47 290.894Z" fill="#A0616A"/>
<path d="M99.9657 288.538L111.582 288.538H111.583C113.546 288.538 115.429 289.492 116.817 291.19C118.205 292.888 118.985 295.191 118.985 297.592V297.886L99.9661 297.887L99.9657 288.538Z" fill="#2F2E41"/>
<path d="M55.5423 287.771L61.3745 288.849L67.5503 261.847L59.9042 260.255L55.5423 287.771Z" fill="#A0616A"/>
<path d="M54.3422 285.166L65.8282 287.29L65.8286 287.29C67.7699 287.649 69.515 288.937 70.6801 290.869C71.8453 292.802 72.3351 295.222 72.0417 297.596L72.0057 297.887L53.2 294.41L54.3422 285.166Z" fill="#2F2E41"/>
<path d="M73.729 152.984L80.2783 155.083L79.8426 168.071L79.7886 191.717C80.4338 192.263 80.9284 193.035 81.2068 193.932C81.4852 194.829 81.5345 195.809 81.3479 196.741C81.1614 197.673 80.7479 198.514 80.1622 199.152C79.5765 199.791 78.8461 200.196 78.0677 200.316C77.2893 200.436 76.4995 200.263 75.8029 199.822C75.1062 199.381 74.5355 198.691 74.1663 197.845C73.797 196.998 73.6466 196.034 73.735 195.081C73.8233 194.127 74.1462 193.229 74.661 192.505L72.6484 168.772L73.729 152.984Z" fill="#A0616A"/>
<path d="M72.5889 138.108C72.6251 136.853 72.956 135.637 73.542 134.606C74.1281 133.575 74.9446 132.772 75.8939 132.293C76.7825 131.807 77.7678 131.649 78.729 131.838C79.6901 132.027 80.5852 132.555 81.3043 133.358C81.8212 133.922 82.2311 134.618 82.5055 135.397C82.7799 136.176 82.9121 137.018 82.8929 137.865C82.9102 145.474 81.5059 156.563 81.4917 156.674L81.4693 156.851L71.8964 160.794L72.5889 138.108Z" fill="#CBCBCB"/>
<path d="M89.7057 159.706L104.348 155.07L111.116 182.951L111.357 286.818L100.16 286.732L95.4793 202.665L65.6492 280.344L53.621 278.579L79.8426 195.309C79.8426 195.309 78.3992 180.597 82.9699 173.241L82.0076 165.59L89.7057 159.706Z" fill="#2F2E41"/>
<path d="M79.8329 166.642C79.6282 166.338 79.4795 165.983 79.3969 165.602C79.3143 165.222 79.2997 164.823 79.3542 164.435L72.6755 139.928C72.3637 138.782 72.3306 137.551 72.5801 136.382C72.8297 135.214 73.3512 134.16 74.0814 133.347L76.9807 130.124L78.9455 120.511L90.2383 123.887L89.3079 128.439L94.4187 127.303L105.184 156.628L82.6823 167.629L81.5741 167.65C81.2409 167.651 80.9117 167.561 80.6105 167.387C80.3093 167.212 80.0437 166.958 79.8329 166.642Z" fill="#CBCBCB"/>
<path d="M95.507 145.951L101.959 143.442L107.267 154.704L117.555 174.723C118.339 174.763 119.095 175.092 119.722 175.669C120.349 176.245 120.819 177.04 121.069 177.95C121.318 178.86 121.336 179.841 121.12 180.763C120.904 181.686 120.464 182.506 119.859 183.116C119.253 183.726 118.511 184.097 117.729 184.179C116.947 184.262 116.164 184.052 115.482 183.578C114.799 183.104 114.251 182.388 113.909 181.524C113.567 180.661 113.447 179.69 113.566 178.742L101.493 160L95.507 145.951Z" fill="#A0616A"/>
<path d="M88.0424 134.123C87.5244 133.039 87.2727 131.795 87.3174 130.54C87.362 129.286 87.7012 128.073 88.2942 127.048C88.8329 126.056 89.5965 125.279 90.4914 124.81C91.3863 124.341 92.3735 124.203 93.332 124.41C94.0157 124.55 94.6662 124.87 95.2384 125.348C95.8105 125.827 96.2904 126.453 96.6446 127.181C99.984 133.6 103.644 143.891 103.68 143.994L103.738 144.158L97.3709 153.749L88.0424 134.123Z" fill="#CBCBCB"/>
<path d="M87.3007 118.722C92.2561 118.722 96.2733 113.809 96.2733 107.748C96.2733 101.687 92.2561 96.7732 87.3007 96.7732C82.3454 96.7732 78.3282 101.687 78.3282 107.748C78.3282 113.809 82.3454 118.722 87.3007 118.722Z" fill="#A0616A"/>
<path d="M71.4443 103.119C76.2176 103.119 80.0871 98.3856 80.0871 92.5473C80.0871 86.7089 76.2176 81.976 71.4443 81.976C66.671 81.976 62.8015 86.7089 62.8015 92.5473C62.8015 98.3856 66.671 103.119 71.4443 103.119Z" fill="#2F2E41"/>
<path d="M63.9894 101.301C65.1081 102.29 66.4041 102.937 67.769 103.187C69.134 103.438 70.5282 103.285 71.8349 102.742C73.1417 102.198 74.3231 101.28 75.2802 100.064C76.2373 98.8472 76.9423 97.3682 77.3362 95.7502C77.1872 97.2002 76.7939 98.5966 76.1814 99.8513C75.5688 101.106 74.7502 102.192 73.7773 103.04C72.8043 103.888 71.6981 104.48 70.5286 104.779C69.3591 105.078 68.1516 105.078 66.9823 104.777C65.8131 104.476 64.7075 103.882 63.7353 103.033C62.7632 102.183 61.9457 101.096 61.3343 99.8405C60.723 98.5849 60.3311 97.1879 60.1834 95.7377C60.0358 94.2875 60.1355 92.8156 60.4764 91.415C60.2828 93.2968 60.5068 95.2076 61.1249 96.947C61.743 98.6864 62.7325 100.19 63.9894 101.301Z" fill="#2F2E41"/>
<path d="M98.0979 101.313C96.589 98.0088 96.0117 96.6286 94.0663 94.6196C92.3459 92.8427 90.2298 92.3209 88.523 94.0045C86.5039 92.9375 84.2572 92.6955 82.1167 93.3146C79.9762 93.9337 78.0561 95.3808 76.6415 97.4409C75.227 99.501 74.3935 102.064 74.2648 104.75C74.1362 107.436 74.7193 110.101 75.9274 112.349C77.1356 114.597 78.9044 116.308 80.9712 117.229C83.0379 118.149 85.2923 118.23 87.3995 117.459C89.5067 116.687 91.3543 115.105 92.6678 112.947C93.9812 110.789 94.6906 108.171 94.6904 105.48C94.6889 105.008 94.6656 104.536 94.6208 104.067C96.1044 103.812 96.6142 101.568 98.0979 101.313Z" fill="#2F2E41"/>
<path d="M185.861 298H0.486547C0.357507 298 0.233751 297.937 0.142506 297.826C0.0512607 297.714 0 297.563 0 297.405C0 297.247 0.0512607 297.096 0.142506 296.984C0.233751 296.873 0.357507 296.81 0.486547 296.81H185.861C185.99 296.81 186.114 296.873 186.205 296.984C186.296 297.096 186.348 297.247 186.348 297.405C186.348 297.563 186.296 297.714 186.205 297.826C186.114 297.937 185.99 298 185.861 298Z" fill="#CBCBCB"/>
<path d="M433.513 298H248.139C248.01 298 247.886 297.937 247.795 297.826C247.704 297.714 247.652 297.563 247.652 297.405C247.652 297.247 247.704 297.096 247.795 296.984C247.886 296.873 248.01 296.81 248.139 296.81H433.513C433.642 296.81 433.766 296.873 433.858 296.984C433.949 297.096 434 297.247 434 297.405C434 297.563 433.949 297.714 433.858 297.826C433.766 297.937 433.642 298 433.513 298Z" fill="#CBCBCB"/>
<path d="M191.844 11.7534H190.871V192.094H191.844V11.7534Z" fill="#CBCBCB"/>
</g>
<defs>
<clipPath id="clip0">
<rect width="434" height="298" fill="white"/>
</clipPath>
</defs>
</svg>
