<svg width="257" height="39" viewBox="0 0 257 39" fill="none" xmlns="http://www.w3.org/2000/svg">
<path d="M3.17285 8.99023V14H1.48535V1.20312H6.20508C7.60547 1.20312 8.70117 1.56055 9.49219 2.27539C10.2891 2.99023 10.6875 3.93652 10.6875 5.11426C10.6875 6.35645 10.2979 7.31445 9.51855 7.98828C8.74512 8.65625 7.63477 8.99023 6.1875 8.99023H3.17285ZM3.17285 7.61035H6.20508C7.10742 7.61035 7.79883 7.39941 8.2793 6.97754C8.75977 6.5498 9 5.93457 9 5.13184C9 4.37012 8.75977 3.76074 8.2793 3.30371C7.79883 2.84668 7.13965 2.60938 6.30176 2.5918H3.17285V7.61035ZM16.4092 14.1758C15.1201 14.1758 14.0713 13.7539 13.2627 12.9102C12.4541 12.0605 12.0498 10.9268 12.0498 9.50879V9.20996C12.0498 8.2666 12.2285 7.42578 12.5859 6.6875C12.9492 5.94336 13.4531 5.36328 14.0977 4.94727C14.748 4.52539 15.4512 4.31445 16.207 4.31445C17.4434 4.31445 18.4043 4.72168 19.0898 5.53613C19.7754 6.35059 20.1182 7.5166 20.1182 9.03418V9.71094H13.6758C13.6992 10.6484 13.9717 11.4072 14.4932 11.9873C15.0205 12.5615 15.6885 12.8486 16.4971 12.8486C17.0713 12.8486 17.5576 12.7314 17.9561 12.4971C18.3545 12.2627 18.7031 11.9521 19.002 11.5654L19.9951 12.3389C19.1982 13.5635 18.0029 14.1758 16.4092 14.1758ZM16.207 5.65039C15.5508 5.65039 15 5.89062 14.5547 6.37109C14.1094 6.8457 13.834 7.51367 13.7285 8.375H18.4922V8.25195C18.4453 7.42578 18.2227 6.78711 17.8242 6.33594C17.4258 5.87891 16.8867 5.65039 16.207 5.65039ZM26.6045 5.94922C26.3584 5.9082 26.0918 5.8877 25.8047 5.8877C24.7383 5.8877 24.0146 6.3418 23.6338 7.25V14H22.0078V4.49023H23.5898L23.6162 5.58887C24.1494 4.73926 24.9053 4.31445 25.8838 4.31445C26.2002 4.31445 26.4404 4.35547 26.6045 4.4375V5.94922ZM29.6367 4.49023L29.6807 5.54492C30.3779 4.72461 31.3184 4.31445 32.502 4.31445C33.832 4.31445 34.7373 4.82422 35.2178 5.84375C35.5342 5.38672 35.9443 5.01758 36.4482 4.73633C36.958 4.45508 37.5586 4.31445 38.25 4.31445C40.3359 4.31445 41.3965 5.41895 41.4316 7.62793V14H39.8057V7.72461C39.8057 7.04492 39.6504 6.53809 39.3398 6.2041C39.0293 5.86426 38.5078 5.69434 37.7754 5.69434C37.1719 5.69434 36.6709 5.87598 36.2725 6.23926C35.874 6.59668 35.6426 7.08008 35.5781 7.68945V14H33.9434V7.76855C33.9434 6.38574 33.2666 5.69434 31.9131 5.69434C30.8467 5.69434 30.1172 6.14844 29.7246 7.05664V14H28.0986V4.49023H29.6367ZM45.6592 14H44.0332V4.49023H45.6592V14ZM43.9014 1.96777C43.9014 1.7041 43.9805 1.48145 44.1387 1.2998C44.3027 1.11816 44.543 1.02734 44.8594 1.02734C45.1758 1.02734 45.416 1.11816 45.5801 1.2998C45.7441 1.48145 45.8262 1.7041 45.8262 1.96777C45.8262 2.23145 45.7441 2.45117 45.5801 2.62695C45.416 2.80273 45.1758 2.89062 44.8594 2.89062C44.543 2.89062 44.3027 2.80273 44.1387 2.62695C43.9805 2.45117 43.9014 2.23145 43.9014 1.96777ZM50.4756 2.1875V4.49023H52.251V5.74707H50.4756V11.6445C50.4756 12.0254 50.5547 12.3125 50.7129 12.5059C50.8711 12.6934 51.1406 12.7871 51.5215 12.7871C51.709 12.7871 51.9668 12.752 52.2949 12.6816V14C51.8672 14.1172 51.4512 14.1758 51.0469 14.1758C50.3203 14.1758 49.7725 13.9561 49.4033 13.5166C49.0342 13.0771 48.8496 12.4531 48.8496 11.6445V5.74707H47.1182V4.49023H48.8496V2.1875H50.4756ZM55.9248 14H54.2988V4.49023H55.9248V14ZM54.167 1.96777C54.167 1.7041 54.2461 1.48145 54.4043 1.2998C54.5684 1.11816 54.8086 1.02734 55.125 1.02734C55.4414 1.02734 55.6816 1.11816 55.8457 1.2998C56.0098 1.48145 56.0918 1.7041 56.0918 1.96777C56.0918 2.23145 56.0098 2.45117 55.8457 2.62695C55.6816 2.80273 55.4414 2.89062 55.125 2.89062C54.8086 2.89062 54.5684 2.80273 54.4043 2.62695C54.2461 2.45117 54.167 2.23145 54.167 1.96777ZM63.1318 5.94922C62.8857 5.9082 62.6191 5.8877 62.332 5.8877C61.2656 5.8877 60.542 6.3418 60.1611 7.25V14H58.5352V4.49023H60.1172L60.1436 5.58887C60.6768 4.73926 61.4326 4.31445 62.4111 4.31445C62.7275 4.31445 62.9678 4.35547 63.1318 4.4375V5.94922ZM68.7041 9.16602C68.7041 7.67188 69.0469 6.49121 69.7324 5.62402C70.418 4.75098 71.3379 4.31445 72.4922 4.31445C73.6172 4.31445 74.5049 4.69238 75.1553 5.44824L75.2256 4.49023H76.7197V17.6562H75.0938V13.1211C74.4375 13.8242 73.5645 14.1758 72.4746 14.1758C71.3262 14.1758 70.4092 13.7305 69.7236 12.8398C69.0439 11.9434 68.7041 10.7568 68.7041 9.28027V9.16602ZM70.3301 9.35059C70.3301 10.4404 70.5586 11.2959 71.0156 11.917C71.4785 12.5381 72.0996 12.8486 72.8789 12.8486C73.8457 12.8486 74.584 12.4209 75.0938 11.5654V6.90723C74.5781 6.06934 73.8457 5.65039 72.8965 5.65039C72.1113 5.65039 71.4873 5.96387 71.0244 6.59082C70.5615 7.21191 70.3301 8.13184 70.3301 9.35059ZM85.2012 13.0596C84.5684 13.8037 83.6396 14.1758 82.415 14.1758C81.4014 14.1758 80.6279 13.8828 80.0947 13.2969C79.5674 12.7051 79.3008 11.832 79.2949 10.6777V4.49023H80.9209V10.6338C80.9209 12.0752 81.5068 12.7959 82.6787 12.7959C83.9209 12.7959 84.7471 12.333 85.1572 11.4072V4.49023H86.7832V14H85.2363L85.2012 13.0596ZM93.208 14.1758C91.9189 14.1758 90.8701 13.7539 90.0615 12.9102C89.2529 12.0605 88.8486 10.9268 88.8486 9.50879V9.20996C88.8486 8.2666 89.0273 7.42578 89.3848 6.6875C89.748 5.94336 90.252 5.36328 90.8965 4.94727C91.5469 4.52539 92.25 4.31445 93.0059 4.31445C94.2422 4.31445 95.2031 4.72168 95.8887 5.53613C96.5742 6.35059 96.917 7.5166 96.917 9.03418V9.71094H90.4746C90.498 10.6484 90.7705 11.4072 91.292 11.9873C91.8193 12.5615 92.4873 12.8486 93.2959 12.8486C93.8701 12.8486 94.3564 12.7314 94.7549 12.4971C95.1533 12.2627 95.502 11.9521 95.8008 11.5654L96.7939 12.3389C95.9971 13.5635 94.8018 14.1758 93.208 14.1758ZM93.0059 5.65039C92.3496 5.65039 91.7988 5.89062 91.3535 6.37109C90.9082 6.8457 90.6328 7.51367 90.5273 8.375H95.291V8.25195C95.2441 7.42578 95.0215 6.78711 94.623 6.33594C94.2246 5.87891 93.6855 5.65039 93.0059 5.65039ZM107.218 14.1758C105.929 14.1758 104.88 13.7539 104.071 12.9102C103.263 12.0605 102.858 10.9268 102.858 9.50879V9.20996C102.858 8.2666 103.037 7.42578 103.395 6.6875C103.758 5.94336 104.262 5.36328 104.906 4.94727C105.557 4.52539 106.26 4.31445 107.016 4.31445C108.252 4.31445 109.213 4.72168 109.898 5.53613C110.584 6.35059 110.927 7.5166 110.927 9.03418V9.71094H104.484C104.508 10.6484 104.78 11.4072 105.302 11.9873C105.829 12.5615 106.497 12.8486 107.306 12.8486C107.88 12.8486 108.366 12.7314 108.765 12.4971C109.163 12.2627 109.512 11.9521 109.811 11.5654L110.804 12.3389C110.007 13.5635 108.812 14.1758 107.218 14.1758ZM107.016 5.65039C106.359 5.65039 105.809 5.89062 105.363 6.37109C104.918 6.8457 104.643 7.51367 104.537 8.375H109.301V8.25195C109.254 7.42578 109.031 6.78711 108.633 6.33594C108.234 5.87891 107.695 5.65039 107.016 5.65039ZM114.583 14H112.957V0.5H114.583V14ZM125.604 14.1758C124.315 14.1758 123.267 13.7539 122.458 12.9102C121.649 12.0605 121.245 10.9268 121.245 9.50879V9.20996C121.245 8.2666 121.424 7.42578 121.781 6.6875C122.145 5.94336 122.648 5.36328 123.293 4.94727C123.943 4.52539 124.646 4.31445 125.402 4.31445C126.639 4.31445 127.6 4.72168 128.285 5.53613C128.971 6.35059 129.313 7.5166 129.313 9.03418V9.71094H122.871C122.895 10.6484 123.167 11.4072 123.688 11.9873C124.216 12.5615 124.884 12.8486 125.692 12.8486C126.267 12.8486 126.753 12.7314 127.151 12.4971C127.55 12.2627 127.898 11.9521 128.197 11.5654L129.19 12.3389C128.394 13.5635 127.198 14.1758 125.604 14.1758ZM125.402 5.65039C124.746 5.65039 124.195 5.89062 123.75 6.37109C123.305 6.8457 123.029 7.51367 122.924 8.375H127.688V8.25195C127.641 7.42578 127.418 6.78711 127.02 6.33594C126.621 5.87891 126.082 5.65039 125.402 5.65039ZM136.74 11.4775C136.74 11.0381 136.573 10.6982 136.239 10.458C135.911 10.2119 135.334 10.001 134.508 9.8252C133.688 9.64941 133.034 9.43848 132.548 9.19238C132.067 8.94629 131.71 8.65332 131.476 8.31348C131.247 7.97363 131.133 7.56934 131.133 7.10059C131.133 6.32129 131.461 5.66211 132.117 5.12305C132.779 4.58398 133.623 4.31445 134.648 4.31445C135.727 4.31445 136.6 4.59277 137.268 5.14941C137.941 5.70605 138.278 6.41797 138.278 7.28516H136.644C136.644 6.83984 136.453 6.45605 136.072 6.13379C135.697 5.81152 135.223 5.65039 134.648 5.65039C134.057 5.65039 133.594 5.7793 133.26 6.03711C132.926 6.29492 132.759 6.63184 132.759 7.04785C132.759 7.44043 132.914 7.73633 133.225 7.93555C133.535 8.13477 134.095 8.3252 134.903 8.50684C135.718 8.68848 136.377 8.90527 136.881 9.15723C137.385 9.40918 137.757 9.71387 137.997 10.0713C138.243 10.4229 138.366 10.8535 138.366 11.3633C138.366 12.2129 138.026 12.8955 137.347 13.4111C136.667 13.9209 135.785 14.1758 134.701 14.1758C133.939 14.1758 133.266 14.041 132.68 13.7715C132.094 13.502 131.634 13.127 131.3 12.6465C130.972 12.1602 130.808 11.6357 130.808 11.0732H132.434C132.463 11.6182 132.68 12.0518 133.084 12.374C133.494 12.6904 134.033 12.8486 134.701 12.8486C135.316 12.8486 135.809 12.7256 136.178 12.4795C136.553 12.2275 136.74 11.8936 136.74 11.4775ZM142.69 2.1875V4.49023H144.466V5.74707H142.69V11.6445C142.69 12.0254 142.77 12.3125 142.928 12.5059C143.086 12.6934 143.355 12.7871 143.736 12.7871C143.924 12.7871 144.182 12.752 144.51 12.6816V14C144.082 14.1172 143.666 14.1758 143.262 14.1758C142.535 14.1758 141.987 13.9561 141.618 13.5166C141.249 13.0771 141.064 12.4531 141.064 11.6445V5.74707H139.333V4.49023H141.064V2.1875H142.69ZM152.244 13.0596C151.611 13.8037 150.683 14.1758 149.458 14.1758C148.444 14.1758 147.671 13.8828 147.138 13.2969C146.61 12.7051 146.344 11.832 146.338 10.6777V4.49023H147.964V10.6338C147.964 12.0752 148.55 12.7959 149.722 12.7959C150.964 12.7959 151.79 12.333 152.2 11.4072V4.49023H153.826V14H152.279L152.244 13.0596ZM155.909 9.16602C155.909 7.70703 156.255 6.53516 156.946 5.65039C157.638 4.75977 158.543 4.31445 159.662 4.31445C160.775 4.31445 161.657 4.69531 162.308 5.45703V0.5H163.934V14H162.439L162.36 12.9805C161.71 13.7773 160.805 14.1758 159.645 14.1758C158.543 14.1758 157.644 13.7246 156.946 12.8223C156.255 11.9199 155.909 10.7422 155.909 9.28906V9.16602ZM157.535 9.35059C157.535 10.4287 157.758 11.2725 158.203 11.8818C158.648 12.4912 159.264 12.7959 160.049 12.7959C161.08 12.7959 161.833 12.333 162.308 11.4072V7.03906C161.821 6.14258 161.074 5.69434 160.066 5.69434C159.27 5.69434 158.648 6.00195 158.203 6.61719C157.758 7.23242 157.535 8.14355 157.535 9.35059ZM168.231 14H166.605V4.49023H168.231V14ZM166.474 1.96777C166.474 1.7041 166.553 1.48145 166.711 1.2998C166.875 1.11816 167.115 1.02734 167.432 1.02734C167.748 1.02734 167.988 1.11816 168.152 1.2998C168.316 1.48145 168.398 1.7041 168.398 1.96777C168.398 2.23145 168.316 2.45117 168.152 2.62695C167.988 2.80273 167.748 2.89062 167.432 2.89062C167.115 2.89062 166.875 2.80273 166.711 2.62695C166.553 2.45117 166.474 2.23145 166.474 1.96777ZM176.713 14C176.619 13.8125 176.543 13.4785 176.484 12.998C175.729 13.7832 174.826 14.1758 173.777 14.1758C172.84 14.1758 172.069 13.9121 171.466 13.3848C170.868 12.8516 170.569 12.1777 170.569 11.3633C170.569 10.373 170.944 9.60547 171.694 9.06055C172.45 8.50977 173.511 8.23438 174.876 8.23438H176.458V7.4873C176.458 6.91895 176.288 6.46777 175.948 6.13379C175.608 5.79395 175.107 5.62402 174.445 5.62402C173.865 5.62402 173.379 5.77051 172.986 6.06348C172.594 6.35645 172.397 6.71094 172.397 7.12695H170.763C170.763 6.65234 170.93 6.19531 171.264 5.75586C171.604 5.31055 172.061 4.95898 172.635 4.70117C173.215 4.44336 173.851 4.31445 174.542 4.31445C175.638 4.31445 176.496 4.58984 177.117 5.14062C177.738 5.68555 178.061 6.43848 178.084 7.39941V11.7764C178.084 12.6494 178.195 13.3438 178.418 13.8594V14H176.713ZM174.015 12.7607C174.524 12.7607 175.008 12.6289 175.465 12.3652C175.922 12.1016 176.253 11.7588 176.458 11.3369V9.38574H175.184C173.191 9.38574 172.195 9.96875 172.195 11.1348C172.195 11.6445 172.365 12.043 172.705 12.3301C173.045 12.6172 173.481 12.7607 174.015 12.7607ZM182.171 4.49023L182.224 5.68555C182.95 4.77148 183.899 4.31445 185.071 4.31445C187.081 4.31445 188.095 5.44824 188.112 7.71582V14H186.486V7.70703C186.48 7.02148 186.322 6.51465 186.012 6.18652C185.707 5.8584 185.229 5.69434 184.579 5.69434C184.052 5.69434 183.589 5.83496 183.19 6.11621C182.792 6.39746 182.481 6.7666 182.259 7.22363V14H180.633V4.49023H182.171ZM192.771 2.1875V4.49023H194.546V5.74707H192.771V11.6445C192.771 12.0254 192.85 12.3125 193.008 12.5059C193.166 12.6934 193.436 12.7871 193.816 12.7871C194.004 12.7871 194.262 12.752 194.59 12.6816V14C194.162 14.1172 193.746 14.1758 193.342 14.1758C192.615 14.1758 192.067 13.9561 191.698 13.5166C191.329 13.0771 191.145 12.4531 191.145 11.6445V5.74707H189.413V4.49023H191.145V2.1875H192.771ZM200.399 14.1758C199.11 14.1758 198.062 13.7539 197.253 12.9102C196.444 12.0605 196.04 10.9268 196.04 9.50879V9.20996C196.04 8.2666 196.219 7.42578 196.576 6.6875C196.939 5.94336 197.443 5.36328 198.088 4.94727C198.738 4.52539 199.441 4.31445 200.197 4.31445C201.434 4.31445 202.395 4.72168 203.08 5.53613C203.766 6.35059 204.108 7.5166 204.108 9.03418V9.71094H197.666C197.689 10.6484 197.962 11.4072 198.483 11.9873C199.011 12.5615 199.679 12.8486 200.487 12.8486C201.062 12.8486 201.548 12.7314 201.946 12.4971C202.345 12.2627 202.693 11.9521 202.992 11.5654L203.985 12.3389C203.188 13.5635 201.993 14.1758 200.399 14.1758ZM200.197 5.65039C199.541 5.65039 198.99 5.89062 198.545 6.37109C198.1 6.8457 197.824 7.51367 197.719 8.375H202.482V8.25195C202.436 7.42578 202.213 6.78711 201.814 6.33594C201.416 5.87891 200.877 5.65039 200.197 5.65039ZM0.834961 30.166C0.834961 28.707 1.18066 27.5352 1.87207 26.6504C2.56348 25.7598 3.46875 25.3145 4.58789 25.3145C5.70117 25.3145 6.58301 25.6953 7.2334 26.457V21.5H8.85938V35H7.36523L7.28613 33.9805C6.63574 34.7773 5.73047 35.1758 4.57031 35.1758C3.46875 35.1758 2.56934 34.7246 1.87207 33.8223C1.18066 32.9199 0.834961 31.7422 0.834961 30.2891V30.166ZM2.46094 30.3506C2.46094 31.4287 2.68359 32.2725 3.12891 32.8818C3.57422 33.4912 4.18945 33.7959 4.97461 33.7959C6.00586 33.7959 6.75879 33.333 7.2334 32.4072V28.0391C6.74707 27.1426 6 26.6943 4.99219 26.6943C4.19531 26.6943 3.57422 27.002 3.12891 27.6172C2.68359 28.2324 2.46094 29.1436 2.46094 30.3506ZM15.3369 35.1758C14.0479 35.1758 12.999 34.7539 12.1904 33.9102C11.3818 33.0605 10.9775 31.9268 10.9775 30.5088V30.21C10.9775 29.2666 11.1562 28.4258 11.5137 27.6875C11.877 26.9434 12.3809 26.3633 13.0254 25.9473C13.6758 25.5254 14.3789 25.3145 15.1348 25.3145C16.3711 25.3145 17.332 25.7217 18.0176 26.5361C18.7031 27.3506 19.0459 28.5166 19.0459 30.0342V30.7109H12.6035C12.627 31.6484 12.8994 32.4072 13.4209 32.9873C13.9482 33.5615 14.6162 33.8486 15.4248 33.8486C15.999 33.8486 16.4854 33.7314 16.8838 33.4971C17.2822 33.2627 17.6309 32.9521 17.9297 32.5654L18.9229 33.3389C18.126 34.5635 16.9307 35.1758 15.3369 35.1758ZM15.1348 26.6504C14.4785 26.6504 13.9277 26.8906 13.4824 27.3711C13.0371 27.8457 12.7617 28.5137 12.6562 29.375H17.4199V29.252C17.373 28.4258 17.1504 27.7871 16.752 27.3359C16.3535 26.8789 15.8145 26.6504 15.1348 26.6504ZM26.4727 32.4775C26.4727 32.0381 26.3057 31.6982 25.9717 31.458C25.6436 31.2119 25.0664 31.001 24.2402 30.8252C23.4199 30.6494 22.7666 30.4385 22.2803 30.1924C21.7998 29.9463 21.4424 29.6533 21.208 29.3135C20.9795 28.9736 20.8652 28.5693 20.8652 28.1006C20.8652 27.3213 21.1934 26.6621 21.8496 26.123C22.5117 25.584 23.3555 25.3145 24.3809 25.3145C25.459 25.3145 26.332 25.5928 27 26.1494C27.6738 26.7061 28.0107 27.418 28.0107 28.2852H26.376C26.376 27.8398 26.1855 27.4561 25.8047 27.1338C25.4297 26.8115 24.9551 26.6504 24.3809 26.6504C23.7891 26.6504 23.3262 26.7793 22.9922 27.0371C22.6582 27.2949 22.4912 27.6318 22.4912 28.0479C22.4912 28.4404 22.6465 28.7363 22.957 28.9355C23.2676 29.1348 23.8271 29.3252 24.6357 29.5068C25.4502 29.6885 26.1094 29.9053 26.6133 30.1572C27.1172 30.4092 27.4893 30.7139 27.7295 31.0713C27.9756 31.4229 28.0986 31.8535 28.0986 32.3633C28.0986 33.2129 27.7588 33.8955 27.0791 34.4111C26.3994 34.9209 25.5176 35.1758 24.4336 35.1758C23.6719 35.1758 22.998 35.041 22.4121 34.7715C21.8262 34.502 21.3662 34.127 21.0322 33.6465C20.7041 33.1602 20.54 32.6357 20.54 32.0732H22.166C22.1953 32.6182 22.4121 33.0518 22.8164 33.374C23.2266 33.6904 23.7656 33.8486 24.4336 33.8486C25.0488 33.8486 25.541 33.7256 25.9102 33.4795C26.2852 33.2275 26.4727 32.8936 26.4727 32.4775ZM29.8213 30.166C29.8213 28.707 30.167 27.5352 30.8584 26.6504C31.5498 25.7598 32.4551 25.3145 33.5742 25.3145C34.6875 25.3145 35.5693 25.6953 36.2197 26.457V21.5H37.8457V35H36.3516L36.2725 33.9805C35.6221 34.7773 34.7168 35.1758 33.5566 35.1758C32.4551 35.1758 31.5557 34.7246 30.8584 33.8223C30.167 32.9199 29.8213 31.7422 29.8213 30.2891V30.166ZM31.4473 30.3506C31.4473 31.4287 31.6699 32.2725 32.1152 32.8818C32.5605 33.4912 33.1758 33.7959 33.9609 33.7959C34.9922 33.7959 35.7451 33.333 36.2197 32.4072V28.0391C35.7334 27.1426 34.9863 26.6943 33.9785 26.6943C33.1816 26.6943 32.5605 27.002 32.1152 27.6172C31.6699 28.2324 31.4473 29.1436 31.4473 30.3506ZM44.3232 35.1758C43.0342 35.1758 41.9854 34.7539 41.1768 33.9102C40.3682 33.0605 39.9639 31.9268 39.9639 30.5088V30.21C39.9639 29.2666 40.1426 28.4258 40.5 27.6875C40.8633 26.9434 41.3672 26.3633 42.0117 25.9473C42.6621 25.5254 43.3652 25.3145 44.1211 25.3145C45.3574 25.3145 46.3184 25.7217 47.0039 26.5361C47.6895 27.3506 48.0322 28.5166 48.0322 30.0342V30.7109H41.5898C41.6133 31.6484 41.8857 32.4072 42.4072 32.9873C42.9346 33.5615 43.6025 33.8486 44.4111 33.8486C44.9854 33.8486 45.4717 33.7314 45.8701 33.4971C46.2686 33.2627 46.6172 32.9521 46.916 32.5654L47.9092 33.3389C47.1123 34.5635 45.917 35.1758 44.3232 35.1758ZM44.1211 26.6504C43.4648 26.6504 42.9141 26.8906 42.4688 27.3711C42.0234 27.8457 41.748 28.5137 41.6426 29.375H46.4062V29.252C46.3594 28.4258 46.1367 27.7871 45.7383 27.3359C45.3398 26.8789 44.8008 26.6504 44.1211 26.6504ZM56.1533 35H54.5273V21.5H56.1533V35ZM64.6348 35C64.541 34.8125 64.4648 34.4785 64.4062 33.998C63.6504 34.7832 62.748 35.1758 61.6992 35.1758C60.7617 35.1758 59.9912 34.9121 59.3877 34.3848C58.79 33.8516 58.4912 33.1777 58.4912 32.3633C58.4912 31.373 58.8662 30.6055 59.6162 30.0605C60.3721 29.5098 61.4326 29.2344 62.7979 29.2344H64.3799V28.4873C64.3799 27.9189 64.21 27.4678 63.8701 27.1338C63.5303 26.7939 63.0293 26.624 62.3672 26.624C61.7871 26.624 61.3008 26.7705 60.9082 27.0635C60.5156 27.3564 60.3193 27.7109 60.3193 28.127H58.6846C58.6846 27.6523 58.8516 27.1953 59.1855 26.7559C59.5254 26.3105 59.9824 25.959 60.5566 25.7012C61.1367 25.4434 61.7725 25.3145 62.4639 25.3145C63.5596 25.3145 64.418 25.5898 65.0391 26.1406C65.6602 26.6855 65.9824 27.4385 66.0059 28.3994V32.7764C66.0059 33.6494 66.1172 34.3438 66.3398 34.8594V35H64.6348ZM61.9365 33.7607C62.4463 33.7607 62.9297 33.6289 63.3867 33.3652C63.8438 33.1016 64.1748 32.7588 64.3799 32.3369V30.3857H63.1055C61.1133 30.3857 60.1172 30.9688 60.1172 32.1348C60.1172 32.6445 60.2871 33.043 60.627 33.3301C60.9668 33.6172 61.4033 33.7607 61.9365 33.7607ZM76.834 33.8486C77.4141 33.8486 77.9209 33.6729 78.3545 33.3213C78.7881 32.9697 79.0283 32.5303 79.0752 32.0029H80.6133C80.584 32.5479 80.3965 33.0664 80.0508 33.5586C79.7051 34.0508 79.2422 34.4434 78.6621 34.7363C78.0879 35.0293 77.4785 35.1758 76.834 35.1758C75.5391 35.1758 74.5078 34.7451 73.7402 33.8838C72.9785 33.0166 72.5977 31.833 72.5977 30.333V30.0605C72.5977 29.1348 72.7676 28.3115 73.1074 27.5908C73.4473 26.8701 73.9336 26.3105 74.5664 25.9121C75.2051 25.5137 75.958 25.3145 76.8252 25.3145C77.8916 25.3145 78.7764 25.6338 79.4795 26.2725C80.1885 26.9111 80.5664 27.7402 80.6133 28.7598H79.0752C79.0283 28.1445 78.7939 27.6406 78.3721 27.248C77.9561 26.8496 77.4404 26.6504 76.8252 26.6504C75.999 26.6504 75.3574 26.9492 74.9004 27.5469C74.4492 28.1387 74.2236 28.9971 74.2236 30.1221V30.4297C74.2236 31.5254 74.4492 32.3691 74.9004 32.9609C75.3516 33.5527 75.9961 33.8486 76.834 33.8486ZM82.0107 30.1572C82.0107 29.2256 82.1924 28.3877 82.5557 27.6436C82.9248 26.8994 83.4346 26.3252 84.085 25.9209C84.7412 25.5166 85.4883 25.3145 86.3262 25.3145C87.6211 25.3145 88.667 25.7627 89.4639 26.6592C90.2666 27.5557 90.668 28.748 90.668 30.2363V30.3506C90.668 31.2764 90.4893 32.1084 90.1318 32.8467C89.7803 33.5791 89.2734 34.1504 88.6113 34.5605C87.9551 34.9707 87.1992 35.1758 86.3438 35.1758C85.0547 35.1758 84.0088 34.7275 83.2061 33.8311C82.4092 32.9346 82.0107 31.748 82.0107 30.2715V30.1572ZM83.6455 30.3506C83.6455 31.4053 83.8887 32.252 84.375 32.8906C84.8672 33.5293 85.5234 33.8486 86.3438 33.8486C87.1699 33.8486 87.8262 33.5264 88.3125 32.8818C88.7988 32.2314 89.042 31.3232 89.042 30.1572C89.042 29.1143 88.793 28.2705 88.2949 27.626C87.8027 26.9756 87.1465 26.6504 86.3262 26.6504C85.5234 26.6504 84.876 26.9697 84.3838 27.6084C83.8916 28.2471 83.6455 29.1611 83.6455 30.3506ZM94.2363 25.4902L94.2803 26.5449C94.9775 25.7246 95.918 25.3145 97.1016 25.3145C98.4316 25.3145 99.3369 25.8242 99.8174 26.8438C100.134 26.3867 100.544 26.0176 101.048 25.7363C101.558 25.4551 102.158 25.3145 102.85 25.3145C104.936 25.3145 105.996 26.4189 106.031 28.6279V35H104.405V28.7246C104.405 28.0449 104.25 27.5381 103.939 27.2041C103.629 26.8643 103.107 26.6943 102.375 26.6943C101.771 26.6943 101.271 26.876 100.872 27.2393C100.474 27.5967 100.242 28.0801 100.178 28.6895V35H98.543V28.7686C98.543 27.3857 97.8662 26.6943 96.5127 26.6943C95.4463 26.6943 94.7168 27.1484 94.3242 28.0566V35H92.6982V25.4902H94.2363ZM108.062 30.1572C108.062 29.2256 108.243 28.3877 108.606 27.6436C108.976 26.8994 109.485 26.3252 110.136 25.9209C110.792 25.5166 111.539 25.3145 112.377 25.3145C113.672 25.3145 114.718 25.7627 115.515 26.6592C116.317 27.5557 116.719 28.748 116.719 30.2363V30.3506C116.719 31.2764 116.54 32.1084 116.183 32.8467C115.831 33.5791 115.324 34.1504 114.662 34.5605C114.006 34.9707 113.25 35.1758 112.395 35.1758C111.105 35.1758 110.06 34.7275 109.257 33.8311C108.46 32.9346 108.062 31.748 108.062 30.2715V30.1572ZM109.696 30.3506C109.696 31.4053 109.939 32.252 110.426 32.8906C110.918 33.5293 111.574 33.8486 112.395 33.8486C113.221 33.8486 113.877 33.5264 114.363 32.8818C114.85 32.2314 115.093 31.3232 115.093 30.1572C115.093 29.1143 114.844 28.2705 114.346 27.626C113.854 26.9756 113.197 26.6504 112.377 26.6504C111.574 26.6504 110.927 26.9697 110.435 27.6084C109.942 28.2471 109.696 29.1611 109.696 30.3506ZM118.362 30.166C118.362 28.707 118.708 27.5352 119.399 26.6504C120.091 25.7598 120.996 25.3145 122.115 25.3145C123.229 25.3145 124.11 25.6953 124.761 26.457V21.5H126.387V35H124.893L124.813 33.9805C124.163 34.7773 123.258 35.1758 122.098 35.1758C120.996 35.1758 120.097 34.7246 119.399 33.8223C118.708 32.9199 118.362 31.7422 118.362 30.2891V30.166ZM119.988 30.3506C119.988 31.4287 120.211 32.2725 120.656 32.8818C121.102 33.4912 121.717 33.7959 122.502 33.7959C123.533 33.7959 124.286 33.333 124.761 32.4072V28.0391C124.274 27.1426 123.527 26.6943 122.52 26.6943C121.723 26.6943 121.102 27.002 120.656 27.6172C120.211 28.2324 119.988 29.1436 119.988 30.3506ZM130.685 35H129.059V25.4902H130.685V35ZM128.927 22.9678C128.927 22.7041 129.006 22.4814 129.164 22.2998C129.328 22.1182 129.568 22.0273 129.885 22.0273C130.201 22.0273 130.441 22.1182 130.605 22.2998C130.77 22.4814 130.852 22.7041 130.852 22.9678C130.852 23.2314 130.77 23.4512 130.605 23.627C130.441 23.8027 130.201 23.8906 129.885 23.8906C129.568 23.8906 129.328 23.8027 129.164 23.627C129.006 23.4512 128.927 23.2314 128.927 22.9678ZM132.899 30.166C132.899 28.707 133.245 27.5352 133.937 26.6504C134.628 25.7598 135.533 25.3145 136.652 25.3145C137.766 25.3145 138.647 25.6953 139.298 26.457V21.5H140.924V35H139.43L139.351 33.9805C138.7 34.7773 137.795 35.1758 136.635 35.1758C135.533 35.1758 134.634 34.7246 133.937 33.8223C133.245 32.9199 132.899 31.7422 132.899 30.2891V30.166ZM134.525 30.3506C134.525 31.4287 134.748 32.2725 135.193 32.8818C135.639 33.4912 136.254 33.7959 137.039 33.7959C138.07 33.7959 138.823 33.333 139.298 32.4072V28.0391C138.812 27.1426 138.064 26.6943 137.057 26.6943C136.26 26.6943 135.639 27.002 135.193 27.6172C134.748 28.2324 134.525 29.1436 134.525 30.3506ZM149.326 35C149.232 34.8125 149.156 34.4785 149.098 33.998C148.342 34.7832 147.439 35.1758 146.391 35.1758C145.453 35.1758 144.683 34.9121 144.079 34.3848C143.481 33.8516 143.183 33.1777 143.183 32.3633C143.183 31.373 143.558 30.6055 144.308 30.0605C145.063 29.5098 146.124 29.2344 147.489 29.2344H149.071V28.4873C149.071 27.9189 148.901 27.4678 148.562 27.1338C148.222 26.7939 147.721 26.624 147.059 26.624C146.479 26.624 145.992 26.7705 145.6 27.0635C145.207 27.3564 145.011 27.7109 145.011 28.127H143.376C143.376 27.6523 143.543 27.1953 143.877 26.7559C144.217 26.3105 144.674 25.959 145.248 25.7012C145.828 25.4434 146.464 25.3145 147.155 25.3145C148.251 25.3145 149.109 25.5898 149.73 26.1406C150.352 26.6855 150.674 27.4385 150.697 28.3994V32.7764C150.697 33.6494 150.809 34.3438 151.031 34.8594V35H149.326ZM146.628 33.7607C147.138 33.7607 147.621 33.6289 148.078 33.3652C148.535 33.1016 148.866 32.7588 149.071 32.3369V30.3857H147.797C145.805 30.3857 144.809 30.9688 144.809 32.1348C144.809 32.6445 144.979 33.043 145.318 33.3301C145.658 33.6172 146.095 33.7607 146.628 33.7607ZM152.851 30.166C152.851 28.707 153.196 27.5352 153.888 26.6504C154.579 25.7598 155.484 25.3145 156.604 25.3145C157.717 25.3145 158.599 25.6953 159.249 26.457V21.5H160.875V35H159.381L159.302 33.9805C158.651 34.7773 157.746 35.1758 156.586 35.1758C155.484 35.1758 154.585 34.7246 153.888 33.8223C153.196 32.9199 152.851 31.7422 152.851 30.2891V30.166ZM154.477 30.3506C154.477 31.4287 154.699 32.2725 155.145 32.8818C155.59 33.4912 156.205 33.7959 156.99 33.7959C158.021 33.7959 158.774 33.333 159.249 32.4072V28.0391C158.763 27.1426 158.016 26.6943 157.008 26.6943C156.211 26.6943 155.59 27.002 155.145 27.6172C154.699 28.2324 154.477 29.1436 154.477 30.3506ZM167.476 30.166C167.476 28.707 167.821 27.5352 168.513 26.6504C169.204 25.7598 170.109 25.3145 171.229 25.3145C172.342 25.3145 173.224 25.6953 173.874 26.457V21.5H175.5V35H174.006L173.927 33.9805C173.276 34.7773 172.371 35.1758 171.211 35.1758C170.109 35.1758 169.21 34.7246 168.513 33.8223C167.821 32.9199 167.476 31.7422 167.476 30.2891V30.166ZM169.102 30.3506C169.102 31.4287 169.324 32.2725 169.77 32.8818C170.215 33.4912 170.83 33.7959 171.615 33.7959C172.646 33.7959 173.399 33.333 173.874 32.4072V28.0391C173.388 27.1426 172.641 26.6943 171.633 26.6943C170.836 26.6943 170.215 27.002 169.77 27.6172C169.324 28.2324 169.102 29.1436 169.102 30.3506ZM181.978 35.1758C180.688 35.1758 179.64 34.7539 178.831 33.9102C178.022 33.0605 177.618 31.9268 177.618 30.5088V30.21C177.618 29.2666 177.797 28.4258 178.154 27.6875C178.518 26.9434 179.021 26.3633 179.666 25.9473C180.316 25.5254 181.02 25.3145 181.775 25.3145C183.012 25.3145 183.973 25.7217 184.658 26.5361C185.344 27.3506 185.687 28.5166 185.687 30.0342V30.7109H179.244C179.268 31.6484 179.54 32.4072 180.062 32.9873C180.589 33.5615 181.257 33.8486 182.065 33.8486C182.64 33.8486 183.126 33.7314 183.524 33.4971C183.923 33.2627 184.271 32.9521 184.57 32.5654L185.563 33.3389C184.767 34.5635 183.571 35.1758 181.978 35.1758ZM181.775 26.6504C181.119 26.6504 180.568 26.8906 180.123 27.3711C179.678 27.8457 179.402 28.5137 179.297 29.375H184.061V29.252C184.014 28.4258 183.791 27.7871 183.393 27.3359C182.994 26.8789 182.455 26.6504 181.775 26.6504ZM194.247 23.1875V25.4902H196.022V26.7471H194.247V32.6445C194.247 33.0254 194.326 33.3125 194.484 33.5059C194.643 33.6934 194.912 33.7871 195.293 33.7871C195.48 33.7871 195.738 33.752 196.066 33.6816V35C195.639 35.1172 195.223 35.1758 194.818 35.1758C194.092 35.1758 193.544 34.9561 193.175 34.5166C192.806 34.0771 192.621 33.4531 192.621 32.6445V26.7471H190.89V25.4902H192.621V23.1875H194.247ZM203.801 34.0596C203.168 34.8037 202.239 35.1758 201.015 35.1758C200.001 35.1758 199.228 34.8828 198.694 34.2969C198.167 33.7051 197.9 32.832 197.895 31.6777V25.4902H199.521V31.6338C199.521 33.0752 200.106 33.7959 201.278 33.7959C202.521 33.7959 203.347 33.333 203.757 32.4072V25.4902H205.383V35H203.836L203.801 34.0596ZM213.952 26.6416C214.673 25.7568 215.61 25.3145 216.765 25.3145C218.774 25.3145 219.788 26.4482 219.806 28.7158V35H218.18V28.707C218.174 28.0215 218.016 27.5146 217.705 27.1865C217.4 26.8584 216.923 26.6943 216.272 26.6943C215.745 26.6943 215.282 26.835 214.884 27.1162C214.485 27.3975 214.175 27.7666 213.952 28.2236V35H212.326V21.5H213.952V26.6416ZM221.81 30.1572C221.81 29.2256 221.991 28.3877 222.354 27.6436C222.724 26.8994 223.233 26.3252 223.884 25.9209C224.54 25.5166 225.287 25.3145 226.125 25.3145C227.42 25.3145 228.466 25.7627 229.263 26.6592C230.065 27.5557 230.467 28.748 230.467 30.2363V30.3506C230.467 31.2764 230.288 32.1084 229.931 32.8467C229.579 33.5791 229.072 34.1504 228.41 34.5605C227.754 34.9707 226.998 35.1758 226.143 35.1758C224.854 35.1758 223.808 34.7275 223.005 33.8311C222.208 32.9346 221.81 31.748 221.81 30.2715V30.1572ZM223.444 30.3506C223.444 31.4053 223.688 32.252 224.174 32.8906C224.666 33.5293 225.322 33.8486 226.143 33.8486C226.969 33.8486 227.625 33.5264 228.111 32.8818C228.598 32.2314 228.841 31.3232 228.841 30.1572C228.841 29.1143 228.592 28.2705 228.094 27.626C227.602 26.9756 226.945 26.6504 226.125 26.6504C225.322 26.6504 224.675 26.9697 224.183 27.6084C223.69 28.2471 223.444 29.1611 223.444 30.3506ZM232.119 30.166C232.119 28.6836 232.462 27.5059 233.147 26.6328C233.833 25.7539 234.741 25.3145 235.872 25.3145C237.032 25.3145 237.938 25.7246 238.588 26.5449L238.667 25.4902H240.152V34.7715C240.152 36.002 239.786 36.9717 239.054 37.6807C238.327 38.3896 237.349 38.7441 236.118 38.7441C235.433 38.7441 234.762 38.5977 234.105 38.3047C233.449 38.0117 232.948 37.6104 232.603 37.1006L233.446 36.125C234.144 36.9863 234.996 37.417 236.004 37.417C236.795 37.417 237.41 37.1943 237.85 36.749C238.295 36.3037 238.518 35.6768 238.518 34.8682V34.0508C237.867 34.8008 236.979 35.1758 235.854 35.1758C234.741 35.1758 233.839 34.7275 233.147 33.8311C232.462 32.9346 232.119 31.7129 232.119 30.166ZM233.754 30.3506C233.754 31.4229 233.974 32.2666 234.413 32.8818C234.853 33.4912 235.468 33.7959 236.259 33.7959C237.284 33.7959 238.037 33.3301 238.518 32.3984V28.0566C238.02 27.1484 237.272 26.6943 236.276 26.6943C235.485 26.6943 234.867 27.002 234.422 27.6172C233.977 28.2324 233.754 29.1436 233.754 30.3506ZM248.484 35C248.391 34.8125 248.314 34.4785 248.256 33.998C247.5 34.7832 246.598 35.1758 245.549 35.1758C244.611 35.1758 243.841 34.9121 243.237 34.3848C242.64 33.8516 242.341 33.1777 242.341 32.3633C242.341 31.373 242.716 30.6055 243.466 30.0605C244.222 29.5098 245.282 29.2344 246.647 29.2344H248.229V28.4873C248.229 27.9189 248.06 27.4678 247.72 27.1338C247.38 26.7939 246.879 26.624 246.217 26.624C245.637 26.624 245.15 26.7705 244.758 27.0635C244.365 27.3564 244.169 27.7109 244.169 28.127H242.534C242.534 27.6523 242.701 27.1953 243.035 26.7559C243.375 26.3105 243.832 25.959 244.406 25.7012C244.986 25.4434 245.622 25.3145 246.313 25.3145C247.409 25.3145 248.268 25.5898 248.889 26.1406C249.51 26.6855 249.832 27.4385 249.855 28.3994V32.7764C249.855 33.6494 249.967 34.3438 250.189 34.8594V35H248.484ZM245.786 33.7607C246.296 33.7607 246.779 33.6289 247.236 33.3652C247.693 33.1016 248.024 32.7588 248.229 32.3369V30.3857H246.955C244.963 30.3857 243.967 30.9688 243.967 32.1348C243.967 32.6445 244.137 33.043 244.477 33.3301C244.816 33.6172 245.253 33.7607 245.786 33.7607ZM257.001 26.9492C256.755 26.9082 256.488 26.8877 256.201 26.8877C255.135 26.8877 254.411 27.3418 254.03 28.25V35H252.404V25.4902H253.986L254.013 26.5889C254.546 25.7393 255.302 25.3145 256.28 25.3145C256.597 25.3145 256.837 25.3555 257.001 25.4375V26.9492Z" fill="black"/>
</svg>
