<svg width="390" height="239" viewBox="0 0 390 239" fill="none" xmlns="http://www.w3.org/2000/svg">
<path d="M59.493 204.216C50.8326 211.412 48.3782 224.075 48.3782 224.075C48.3782 224.075 59.9649 225.069 68.6253 217.873C77.2856 210.676 79.74 198.013 79.74 198.013C79.74 198.013 68.1533 197.019 59.493 204.216Z" fill="#F1F1F1"/>
<path d="M63.1005 207.595C58.9383 218.706 48.514 224.433 48.514 224.433C48.514 224.433 44.8381 212.143 49.0004 201.031C53.1626 189.919 63.5868 184.193 63.5868 184.193C63.5868 184.193 67.2627 196.483 63.1005 207.595Z" fill="#F1F1F1"/>
<path d="M312.266 175.472C311.345 168.562 311.102 161.561 311.541 154.592L312.266 143.059C308.271 151.921 309.173 163.584 312.266 175.472V175.472Z" fill="#CACACA"/>
<path d="M315.381 177.401C314.938 173.278 314.821 169.119 315.032 164.973L315.381 158.108C313.459 163.383 313.893 170.325 315.381 177.401Z" fill="#CACACA"/>
<path d="M329.227 185.891V189.749C329.226 190.056 329.116 190.349 328.922 190.566C328.727 190.783 328.464 190.905 328.189 190.907H326.458C326.413 190.907 326.368 190.917 326.326 190.936C326.284 190.955 326.245 190.984 326.213 191.019C326.181 191.055 326.156 191.098 326.138 191.145C326.121 191.192 326.112 191.242 326.112 191.293V222.933C326.111 223.24 326.001 223.533 325.807 223.75C325.612 223.967 325.349 224.089 325.074 224.091H303.96C303.685 224.091 303.421 223.968 303.226 223.751C303.031 223.534 302.922 223.24 302.922 222.933V191.293C302.921 191.19 302.885 191.092 302.82 191.02C302.755 190.948 302.667 190.907 302.576 190.907H300.499C300.223 190.907 299.959 190.785 299.765 190.568C299.57 190.351 299.461 190.056 299.46 189.749V185.891C299.46 185.739 299.487 185.588 299.539 185.447C299.591 185.307 299.668 185.179 299.764 185.072C299.861 184.964 299.975 184.879 300.101 184.821C300.227 184.763 300.362 184.733 300.499 184.733H328.189C328.464 184.734 328.728 184.856 328.922 185.073C329.117 185.29 329.227 185.584 329.227 185.891Z" fill="#F2F2F2"/>
<path d="M326.143 191.717H302.953V192.875H326.143V191.717Z" fill="#E6E6E6"/>
<path d="M326.112 208.751C318.352 212.331 310.507 212.37 302.576 208.751V200.596C310.211 197.737 318.476 197.737 326.112 200.596V208.751Z" fill="#E6E6E6"/>
<path d="M196.126 84.059C213.45 84.059 227.493 68.4037 227.493 49.0918C227.493 29.78 213.45 14.1246 196.126 14.1246C178.803 14.1246 164.76 29.78 164.76 49.0918C164.76 68.4037 178.803 84.059 196.126 84.059Z" fill="#FEB8B8"/>
<path d="M225.423 18.9251C220.734 10.4358 213.393 4.18035 204.814 1.36293L200.963 4.49556V0.42793C198.903 0.0764015 196.818 -0.0590175 194.735 0.0234543L191.413 3.3745V0.301861C186.494 0.983277 181.755 2.79347 177.495 5.6183C173.235 8.44314 169.546 12.2213 166.661 16.7146C159.446 28.3095 158.228 44.4404 165.324 56.1283C167.272 49.4545 169.637 43.1926 171.585 36.5195C173.116 36.7522 174.668 36.7606 176.201 36.5445L178.57 30.3797L179.233 36.2836C186.579 35.5704 197.474 34.0037 204.438 32.5685L203.761 28.0391L207.812 31.8028C209.946 31.2554 211.212 30.7586 211.108 30.379C216.287 39.6873 222.626 45.6323 227.804 54.9405C229.771 41.8154 232.036 30.9021 225.423 18.9251Z" fill="#2F2E41"/>
<path d="M263.587 139.011C262.508 131.777 261.396 124.404 258.38 117.888C256.398 113.619 253.252 109.551 249.01 108.707C248.175 108.624 247.354 108.413 246.57 108.078C245.328 107.41 228.627 96.7823 225.972 94.9312C223.693 93.3421 220.095 90.3996 218.281 90.3996C216.456 90.3549 209.458 92.1706 182.144 89.7903C182.144 89.7903 174.64 93.0875 168.834 97.0855C168.746 97.0208 140.484 113.939 139.423 113.895C137.412 113.8 135.543 115.236 134.39 117.043C133.238 118.85 132.697 121.088 132.131 123.251C138.304 138.576 143.952 153.92 150.125 169.245C150.414 169.822 150.568 170.471 150.572 171.132C150.448 171.818 150.185 172.464 149.804 173.02C146.776 178.441 146.873 185.26 147.203 191.631C147.534 198.003 147.943 204.734 145.389 210.445C144.694 212.013 143.791 213.448 143.13 215.016C141.583 218.567 141.023 229.925 141.927 233.741L255.168 237.357C252.733 229.896 263.587 139.011 263.587 139.011Z" fill="#6C63FF"/>
<path d="M122.343 169.924C122.117 171.746 122.094 173.593 122.275 175.421L123.898 201.405C124.05 203.855 124.2 206.298 124.406 208.74C124.796 213.482 125.378 218.185 126.1 222.881C126.116 223.548 126.369 224.181 126.803 224.64C127.237 225.099 127.817 225.347 128.415 225.331C135.56 227.016 142.941 226.948 150.233 226.489C161.359 225.797 189.825 224.487 191.564 221.969C193.304 219.45 192.29 215.377 190.022 213.34C187.755 211.304 150.19 206.339 150.19 206.339C150.557 203.096 151.664 200.042 152.714 196.964C154.601 191.503 156.363 185.864 156.397 180.014C156.431 174.165 154.454 168.015 150.156 164.664C146.62 161.913 142.068 161.403 137.76 161.516C134.625 161.616 129.208 160.779 126.345 162.145C124.079 163.258 122.766 167.451 122.343 169.924Z" fill="#FBBEBE"/>
<path d="M131.804 123.717C131.254 124.36 130.828 125.12 130.551 125.953C125.986 137.423 123.289 149.707 122.587 162.231C122.6 162.842 122.474 163.446 122.22 163.988C121.971 164.348 121.693 164.683 121.39 164.989C121.126 165.338 120.926 165.741 120.802 166.176C120.678 166.611 120.632 167.069 120.667 167.524C120.701 167.979 120.816 168.421 121.004 168.827C121.192 169.232 121.45 169.592 121.763 169.887C121.814 169.935 121.867 169.981 121.921 170.026C122.853 168.071 125.084 167.432 127.067 167.262C136.56 166.425 145.834 171.349 155.356 170.977C154.685 168.389 153.718 165.902 153.17 163.283C150.747 151.654 156.791 138.993 153.086 127.792C152.346 125.55 151.109 123.347 149.161 122.364C148.354 122.002 147.51 121.753 146.647 121.623C144.241 121.138 139.452 119.067 137.125 119.898C136.267 120.207 135.928 121.106 135.216 121.65C134.135 122.42 132.701 122.703 131.804 123.717Z" fill="#6C63FF"/>
<path d="M263.655 162.145C260.792 160.779 255.375 161.616 252.24 161.516C247.932 161.403 243.38 161.913 239.844 164.664C235.546 168.015 233.569 174.165 233.603 180.014C233.637 185.864 235.399 191.503 237.285 196.964C238.336 200.042 239.443 203.096 239.81 206.339C239.81 206.339 202.245 211.303 199.978 213.34C197.71 215.377 196.696 219.45 198.436 221.969C200.175 224.487 254.44 227.016 261.585 225.331C262.183 225.347 262.763 225.099 263.197 224.64C263.631 224.181 263.884 223.548 263.9 222.881C264.622 218.185 265.204 213.482 265.594 208.741C265.8 206.298 265.95 203.854 266.102 201.405L267.725 175.421C267.906 173.593 267.883 171.746 267.657 169.924C267.234 167.451 265.921 163.258 263.655 162.145Z" fill="#FBBEBE"/>
<path d="M254.784 121.651C254.072 121.107 253.733 120.207 252.875 119.898C250.549 119.067 245.759 121.138 243.353 121.623C242.49 121.753 241.646 122.002 240.839 122.364C238.891 123.347 237.654 125.55 236.914 127.792C233.209 138.993 239.253 151.654 236.83 163.283C236.282 165.902 235.315 168.389 234.644 170.977C244.166 171.349 253.44 166.425 262.934 167.262C264.916 167.432 267.147 168.071 268.079 170.026C268.133 169.981 268.186 169.935 268.237 169.887C268.55 169.592 268.808 169.232 268.996 168.827C269.184 168.421 269.299 167.979 269.333 167.524C269.368 167.069 269.322 166.611 269.198 166.176C269.074 165.741 268.874 165.338 268.61 164.989C268.307 164.683 268.029 164.348 267.78 163.988C267.526 163.446 267.4 162.842 267.413 162.231C266.711 149.707 264.014 137.423 259.449 125.953C259.172 125.12 258.746 124.36 258.196 123.717C257.299 122.704 255.865 122.42 254.784 121.651Z" fill="#6C63FF"/>
<path d="M186.836 226.572C191.512 226.572 195.302 222.346 195.302 217.134C195.302 211.922 191.512 207.696 186.836 207.696C182.161 207.696 178.371 211.922 178.371 217.134C178.371 222.346 182.161 226.572 186.836 226.572Z" fill="#FBBEBE"/>
<path d="M205.582 226.572C210.258 226.572 214.048 222.346 214.048 217.134C214.048 211.922 210.258 207.696 205.582 207.696C200.907 207.696 197.116 211.922 197.116 217.134C197.116 222.346 200.907 226.572 205.582 226.572Z" fill="#FBBEBE"/>
<path d="M257.84 238.4H141.532C140.174 238.399 138.872 237.797 137.912 236.726C136.952 235.656 136.411 234.205 136.41 232.691V154.03C136.411 152.516 136.952 151.065 137.912 149.995C138.872 148.924 140.174 148.322 141.532 148.321H257.84C259.198 148.322 260.5 148.924 261.46 149.995C262.42 151.065 262.96 152.516 262.962 154.03V232.691C262.96 234.205 262.42 235.656 261.46 236.726C260.5 237.797 259.198 238.399 257.84 238.4Z" fill="#3F3D56"/>
<path d="M199.404 197.138C201.275 197.138 202.793 195.447 202.793 193.361C202.793 191.274 201.275 189.583 199.404 189.583C197.532 189.583 196.015 191.274 196.015 193.361C196.015 195.447 197.532 197.138 199.404 197.138Z" fill="white"/>
<path d="M390 222.534H0V235.894H23.0681V239H366.941V235.894H390V222.534Z" fill="#F1F1F1"/>
<path d="M167.283 62.1248C162.243 62.1248 158.157 57.2001 158.157 51.1251V45.6252C158.157 39.5503 162.243 34.6256 167.283 34.6256V62.1248H167.283Z" fill="#6C63FF"/>
<path d="M225.529 34.6256C230.569 34.6256 234.655 39.5503 234.655 45.6253V51.1251C234.655 57.2001 230.569 62.1248 225.529 62.1248V34.6256Z" fill="#6C63FF"/>
<path d="M230.311 46.4895H228.863C228.863 24.3561 213.924 6.34908 195.561 6.34908C177.199 6.34908 162.259 24.3561 162.259 46.4895H160.811C160.811 23.3937 176.4 4.60385 195.561 4.60385C214.723 4.60386 230.311 23.3937 230.311 46.4895Z" fill="#6C63FF"/>
</svg>
