<svg width="691" height="477" viewBox="0 0 691 477" fill="none" xmlns="http://www.w3.org/2000/svg">
<path d="M137.677 477C213.714 477 275.354 472.355 275.354 466.625C275.354 460.896 213.714 456.251 137.677 456.251C61.6402 456.251 0 460.896 0 466.625C0 472.355 61.6402 477 137.677 477Z" fill="#E6E6E6"/>
<path d="M105.238 105.838C129.198 95.7267 159.04 102.133 188.185 106.579C188.456 101.195 191.743 94.6418 188.3 90.8853C184.116 86.3215 184.501 81.5262 187.019 76.7034C193.456 64.3706 184.233 51.2478 174.92 40.3363C172.821 37.8825 170.169 35.9545 167.177 34.7089C164.186 33.4633 160.941 32.9352 157.706 33.1676L140.455 34.3902C136.257 34.6877 132.251 36.2501 128.973 38.8683C125.694 41.4866 123.3 45.0358 122.11 49.041C117.991 54.5994 115.786 60.1423 117.174 65.6564C111.004 69.8398 109.968 74.8896 112.74 80.5824C115.091 84.1667 115.066 87.6558 112.633 91.0483C109.438 95.3735 106.991 100.196 105.392 105.319L105.238 105.838Z" fill="#2F2E41"/>
<path d="M674.626 412.359H186.292C181.949 412.359 177.785 410.647 174.714 407.601C171.643 404.554 169.918 400.422 169.918 396.113C346.939 375.701 520.633 375.701 691 396.113C691 400.422 689.275 404.554 686.204 407.601C683.133 410.647 678.969 412.359 674.626 412.359Z" fill="#2F2E41"/>
<path d="M691 397.069L169.918 396.113L230.31 295.293L230.598 294.815V72.6191C230.598 69.9221 231.134 67.2515 232.174 64.7598C233.214 62.2681 234.738 60.004 236.661 58.097C238.583 56.1899 240.865 54.6772 243.376 53.6452C245.887 52.6132 248.579 52.0822 251.297 52.0824H606.731C609.449 52.0822 612.141 52.6132 614.652 53.6452C617.164 54.6772 619.446 56.1899 621.368 58.097C623.29 60.004 624.815 62.2681 625.855 64.7598C626.895 67.2515 627.43 69.9221 627.43 72.6191V296.344L691 397.069Z" fill="#3F3D56"/>
<path d="M250.825 66.417C249.038 66.419 247.324 67.1244 246.06 68.3785C244.796 69.6326 244.085 71.3329 244.083 73.1065V275.702C244.085 277.476 244.796 279.176 246.06 280.43C247.324 281.684 249.038 282.39 250.825 282.392H610.093C611.88 282.39 613.594 281.684 614.858 280.43C616.122 279.176 616.833 277.476 616.835 275.702V73.1065C616.833 71.333 616.122 69.6327 614.858 68.3786C613.594 67.1245 611.88 66.4191 610.093 66.417H250.825Z" fill="white"/>
<path d="M252.331 309.15C251.778 309.151 251.238 309.308 250.773 309.604C250.308 309.899 249.937 310.321 249.706 310.818L231.097 350.955C230.895 351.392 230.806 351.872 230.839 352.352C230.873 352.832 231.028 353.295 231.289 353.7C231.55 354.105 231.91 354.438 232.335 354.669C232.76 354.899 233.237 355.02 233.722 355.02H625.049C625.542 355.02 626.026 354.896 626.456 354.658C626.886 354.42 627.248 354.076 627.507 353.661C627.766 353.245 627.913 352.77 627.935 352.282C627.958 351.794 627.853 351.308 627.633 350.871L607.406 310.734C607.168 310.257 606.799 309.856 606.342 309.576C605.886 309.296 605.359 309.148 604.822 309.15H252.331Z" fill="#2F2E41"/>
<path d="M429.014 63.0723C431.408 63.0723 433.349 61.1469 433.349 58.7719C433.349 56.3969 431.408 54.4715 429.014 54.4715C426.62 54.4715 424.68 56.3969 424.68 58.7719C424.68 61.1469 426.62 63.0723 429.014 63.0723Z" fill="white"/>
<path d="M390.55 362.666C389.915 362.666 389.297 362.874 388.793 363.258C388.289 363.641 387.926 364.178 387.76 364.787L383.092 381.988C382.977 382.413 382.962 382.859 383.048 383.29C383.134 383.722 383.319 384.128 383.589 384.478C383.858 384.827 384.205 385.11 384.603 385.305C385.001 385.5 385.439 385.601 385.882 385.601H474.653C475.113 385.601 475.567 385.492 475.977 385.282C476.386 385.073 476.739 384.769 477.006 384.397C477.273 384.024 477.447 383.594 477.512 383.142C477.578 382.689 477.533 382.228 477.382 381.796L471.381 364.595C471.184 364.031 470.816 363.543 470.326 363.197C469.837 362.852 469.251 362.666 468.65 362.666H390.55Z" fill="#2F2E41"/>
<path d="M627.43 291.47V295.293H230.31L230.608 294.815V291.47H627.43Z" fill="#2F2E41"/>
<path d="M616.353 133.79C653.59 133.79 683.776 103.84 683.776 66.8948C683.776 29.9498 653.59 0 616.353 0C579.117 0 548.93 29.9498 548.93 66.8948C548.93 103.84 579.117 133.79 616.353 133.79Z" fill="#6C63FF"/>
<path d="M644.286 96.0419H588.421C587.4 96.0409 586.42 95.6378 585.698 94.9212C584.976 94.2045 584.569 93.2328 584.568 92.2193V58.7719C584.569 57.7584 584.976 56.7868 585.698 56.0701C586.42 55.3535 587.4 54.9504 588.421 54.9493H644.286C645.307 54.9504 646.286 55.3535 647.009 56.0701C647.731 56.7868 648.137 57.7584 648.138 58.7719V92.2193C648.137 93.2328 647.731 94.2045 647.009 94.9212C646.287 95.6378 645.307 96.0409 644.286 96.0419ZM588.421 58.7719V92.2193H644.289L644.286 58.7719L588.421 58.7719Z" fill="white"/>
<path d="M633.691 58.7719H599.016V43.4816C599.016 32.4069 606.308 24.3688 616.353 24.3688C626.399 24.3688 633.691 32.4069 633.691 43.4816L633.691 58.7719ZM602.869 54.9493H629.838V43.4816C629.838 34.4791 624.293 28.1914 616.353 28.1914C608.414 28.1914 602.869 34.4791 602.869 43.4816L602.869 54.9493Z" fill="white"/>
<path d="M616.353 78.3625C618.481 78.3625 620.206 76.6511 620.206 74.54C620.206 72.4288 618.481 70.7174 616.353 70.7174C614.225 70.7174 612.5 72.4288 612.5 74.54C612.5 76.6511 614.225 78.3625 616.353 78.3625Z" fill="white"/>
<path d="M569.286 213.673H291.632C290.269 213.672 288.962 213.134 287.998 212.177C287.034 211.221 286.492 209.924 286.49 208.572V140.237C286.492 138.884 287.034 137.588 287.998 136.631C288.962 135.675 290.269 135.137 291.632 135.135H569.286C570.65 135.137 571.956 135.675 572.92 136.631C573.884 137.588 574.427 138.884 574.428 140.237V208.572C574.427 209.924 573.884 211.221 572.92 212.177C571.956 213.134 570.65 213.672 569.286 213.673ZM291.632 137.176C290.814 137.177 290.03 137.5 289.451 138.074C288.873 138.647 288.548 139.425 288.547 140.237V208.572C288.548 209.383 288.873 210.161 289.451 210.735C290.03 211.309 290.814 211.632 291.632 211.633H569.286C570.104 211.632 570.889 211.309 571.467 210.735C572.045 210.161 572.371 209.383 572.371 208.572V140.237C572.371 139.425 572.045 138.647 571.467 138.073C570.889 137.5 570.104 137.177 569.286 137.176L291.632 137.176Z" fill="#E6E6E6"/>
<path d="M334.774 192.563C346.341 192.563 355.718 183.259 355.718 171.782C355.718 160.305 346.341 151.002 334.774 151.002C323.206 151.002 313.829 160.305 313.829 171.782C313.829 183.259 323.206 192.563 334.774 192.563Z" fill="#E6E6E6"/>
<path d="M383.146 157.929C382.687 157.928 382.233 158.017 381.808 158.191C381.384 158.364 380.999 158.619 380.674 158.941C380.349 159.263 380.092 159.645 379.916 160.065C379.74 160.486 379.65 160.937 379.65 161.392C379.65 161.847 379.74 162.298 379.916 162.719C380.092 163.139 380.349 163.521 380.674 163.843C380.999 164.165 381.384 164.42 381.808 164.593C382.233 164.767 382.687 164.856 383.146 164.855H547.712C548.638 164.855 549.525 164.491 550.18 163.841C550.835 163.191 551.203 162.311 551.203 161.392C551.203 160.473 550.835 159.592 550.18 158.943C549.525 158.293 548.638 157.929 547.712 157.929H383.146Z" fill="#E6E6E6"/>
<path d="M383.146 178.709C382.22 178.709 381.332 179.074 380.678 179.724C380.023 180.373 379.655 181.254 379.655 182.173C379.655 183.091 380.023 183.972 380.678 184.622C381.332 185.271 382.22 185.636 383.146 185.636H453.959C454.885 185.636 455.773 185.271 456.428 184.622C457.082 183.972 457.45 183.091 457.45 182.173C457.45 181.254 457.082 180.373 456.428 179.724C455.773 179.074 454.885 178.709 453.959 178.709H383.146Z" fill="#E6E6E6"/>
<path d="M229.626 180.11L178.3 207.184L177.65 184.623C194.403 181.848 210.341 177.017 225.078 169.152L230.446 155.993C231.031 154.56 231.982 153.301 233.205 152.342C234.428 151.383 235.882 150.756 237.423 150.522C238.964 150.289 240.54 150.457 241.996 151.01C243.452 151.563 244.738 152.483 245.727 153.678C247.175 155.427 247.899 157.656 247.752 159.915C247.605 162.173 246.598 164.292 244.936 165.841L229.626 180.11Z" fill="#FFB8B8"/>
<path d="M104.215 336.425C103.84 335.063 103.761 333.637 103.982 332.242C104.202 330.847 104.718 329.513 105.495 328.33L116.77 311.162C119.437 307.102 123.529 304.169 128.252 302.932C132.975 301.696 137.993 302.244 142.332 304.471C137.593 312.474 138.254 319.494 143.968 325.595C135.097 329.892 126.898 335.438 119.626 342.061C118.298 342.959 116.773 343.529 115.178 343.724C113.583 343.919 111.965 343.733 110.457 343.182C108.949 342.63 107.596 341.729 106.51 340.554C105.425 339.379 104.638 337.963 104.215 336.425Z" fill="#2F2E41"/>
<path d="M231.964 313.978C230.258 316.799 227.85 319.138 224.97 320.77C222.09 322.402 218.837 323.272 215.52 323.297L140.617 323.86L137.368 305.166L170.503 295.497L142.566 274.224L173.102 238.77L228.565 290.059C231.807 293.057 233.913 297.068 234.532 301.422C235.15 305.775 234.244 310.208 231.964 313.978Z" fill="#2F2E41"/>
<path d="M128.922 441.825H111.38C95.6301 334.709 79.5979 227.293 126.973 187.201L182.848 196.226L175.701 243.283L144.515 278.737L128.922 441.825Z" fill="#2F2E41"/>
<path d="M144.342 466.089C142.969 466.461 141.532 466.54 140.126 466.321C138.72 466.102 137.376 465.591 136.184 464.82L117.137 462.28C113.044 459.634 110.087 455.574 108.841 450.888C107.595 446.202 108.147 441.223 110.391 436.918C118.457 441.619 125.533 440.964 131.682 435.293C136.027 443.997 143.185 443.466 150.021 450.799C150.927 452.116 151.502 453.629 151.698 455.211C151.895 456.794 151.708 458.4 151.152 459.896C150.596 461.392 149.688 462.734 148.504 463.812C147.319 464.889 145.893 465.67 144.342 466.089Z" fill="#2F2E41"/>
<path d="M170.503 115.649L138.018 107.913C143.413 96.9561 143.858 84.7639 141.267 71.8147L163.356 71.1701C164.049 87.2727 166.143 102.317 170.503 115.649Z" fill="#FFB8B8"/>
<path d="M179.431 215.635C155.783 231.623 139.074 216.182 126.323 192.358C128.095 177.78 125.226 160.335 119.913 141.379C117.55 133.018 118.432 124.082 122.385 116.335C126.339 108.588 133.076 102.593 141.266 99.5333L169.204 111.136C192.926 130.321 197.595 151.102 188.695 173.02L179.431 215.635Z" fill="#6C63FF"/>
<path d="M111.38 131.764L85.3921 145.301L131.521 172.375L137.94 188.083C138.368 189.132 138.577 190.256 138.553 191.387C138.529 192.518 138.274 193.632 137.802 194.662C137.33 195.692 136.651 196.616 135.808 197.377C134.964 198.138 133.973 198.721 132.895 199.09C131.67 199.509 130.363 199.641 129.078 199.476C127.792 199.31 126.563 198.852 125.486 198.137C124.409 197.421 123.513 196.468 122.869 195.352C122.226 194.236 121.851 192.987 121.775 191.703L121.126 180.755L62.4964 161.559C60.5211 160.912 58.7199 159.828 57.2295 158.388C55.739 156.948 54.5982 155.191 53.8937 153.249C52.8666 150.419 52.8143 147.33 53.745 144.467C54.6757 141.604 56.5367 139.127 59.037 137.426L106.183 105.335L111.38 131.764Z" fill="#FFB8B8"/>
<path d="M137.368 134.343C126.53 129.63 116.674 134.749 104.234 138.855L102.284 104.69C114.637 98.1579 126.415 96.3967 137.368 101.467L137.368 134.343Z" fill="#6C63FF"/>
<path d="M150.334 88.0931C161.788 88.0931 171.074 78.8799 171.074 67.515C171.074 56.15 161.788 46.9368 150.334 46.9368C138.879 46.9368 129.593 56.15 129.593 67.515C129.593 78.8799 138.879 88.0931 150.334 88.0931Z" fill="#FFB8B8"/>
<path d="M175.146 64.9185C154.611 66.914 138.964 63.5819 128.963 54.0943V46.4536H173.403L175.146 64.9185Z" fill="#2F2E41"/>
</svg>
